<?xml version="1.0" encoding="UTF-8" standalone="no"?>
<!-- Created with Inkscape (http://www.inkscape.org/) -->

<svg
   version="1.1"
   id="svg288"
   width="1732.2269"
   height="1732.2269"
   viewBox="0 0 1732.2269 1732.2269"
   sodipodi:docname="accept_logo_carrier.svg"
   inkscape:version="1.2.1 (9c6d41e410, 2022-07-14)"
   xmlns:inkscape="http://www.inkscape.org/namespaces/inkscape"
   xmlns:sodipodi="http://sodipodi.sourceforge.net/DTD/sodipodi-0.dtd"
   xmlns="http://www.w3.org/2000/svg"
   xmlns:svg="http://www.w3.org/2000/svg">
  <defs
     id="defs292" />
  <sodipodi:namedview
     id="namedview290"
     pagecolor="#ffffff"
     bordercolor="#000000"
     borderopacity="0.25"
     inkscape:showpageshadow="2"
     inkscape:pageopacity="0.0"
     inkscape:pagecheckerboard="0"
     inkscape:deskcolor="#d1d1d1"
     showgrid="false"
     inkscape:zoom="0.46991534"
     inkscape:cx="866.11346"
     inkscape:cy="867.17749"
     inkscape:window-width="1920"
     inkscape:window-height="1001"
     inkscape:window-x="-9"
     inkscape:window-y="-9"
     inkscape:window-maximized="1"
     inkscape:current-layer="g294" />
  <g
     inkscape:groupmode="layer"
     inkscape:label="Image"
     id="g294">
    <path
       style="fill:#ffffff;stroke:none;stroke-width:0.81287"
       d="m 1360.7451,148.75529 v 10.56732 c 4.7228,0 17.1434,-2.19963 20.6469,1.30303 2.9426,2.94747 1.3006,11.89636 1.3006,15.76724 v 43.89501 h 12.1931 v -43.89501 c 0,-3.87088 -1.642,-12.81896 1.3006,-15.76724 3.5034,-3.50266 15.9241,-1.30303 20.6469,-1.30303 v -10.56732 h -56.0881 m 78.0356,22.76037 2.4386,-0.81287 c 5.0723,12.17192 12.1605,24.38693 18.8342,35.75411 2.2273,3.78066 6.8525,6.78828 11.0306,3.58638 6.942,-5.32267 11.7623,-20.2299 15.8348,-27.9603 0.9835,-1.8696 3.2921,-9.00498 6.1534,-8.42866 2.9588,0.59665 1.7964,8.75218 1.7964,10.86727 v 35.7663 h 10.5673 v -71.5326 c -3.5359,0 -8.8765,-0.98601 -12.0386,0.83563 -3.7961,2.18662 -5.8608,8.47499 -7.8523,12.1703 -5.7876,10.70225 -14.9243,23.03024 -17.5011,34.95343 -8.5433,-7.32315 -14.339,-24.08861 -19.5089,-34.14056 -1.8777,-3.65711 -4.4708,-11.54195 -8.4051,-13.32864 -2.5361,-1.15102 -10.8111,-1.5095 -12.2418,1.39407 -2.0484,4.1619 -0.4877,12.22476 -0.4877,16.81179 v 35.7663 c 0,4.18547 -1.3819,11.37856 0.4877,15.18604 1.3412,2.71418 9.0798,2.84586 10.8681,0.58121 2.0891,-2.63939 0.8372,-9.322 0.8372,-12.51577 v -13.00593 c 0,-6.99637 1.1787,-15.21693 -0.8128,-21.9475 M 382.86198,178.8315 c -1.27215,4.23343 -9.83167,11.0973 -13.8188,13.00592 0.10079,2.82635 -5.02679,4.75611 -7.04515,6.77365 -6.1453,6.14612 -19.51214,13.288 -22.21819,21.67682 l -13.00592,8.94157 -13.8188,12.19306 -15.44454,16.25741 c -9.85849,1.68345 -17.56288,16.81585 -26.82472,21.13463 l -15.44454,16.25741 c -3.96681,0.67712 -6.3599,3.99038 -9.28298,6.63058 -6.52004,5.88762 -12.84417,11.93213 -19.24065,17.98801 -24.49666,23.19282 -40.30293,56.63838 -44.40223,89.99614 -2.45975,20.021 -1.04535,40.80853 -1.04535,60.96528 v 485.28365 135.74937 38.2049 c 0,4.3895 -1.47049,12.0142 0.49016,15.9973 1.6298,3.3165 9.48051,1.8859 12.51576,1.8859 h 36.57917 131.68501 32.51482 c 2.82554,0 9.37402,1.203 11.35743,-1.3006 2.28173,-2.8857 0.83563,-10.6324 0.83563,-14.144 V 1094.1236 946.18119 727.51904 476.34208 398.30651 c 0,-12.64989 -2.12078,-27.50834 0.81287,-39.83065 9.0066,2.66215 20.69487,0.81287 30.07621,0.81287 h 61.77815 203.21761 69.90686 c 6.22577,0 21.2655,2.77108 26.41016,-0.83563 3.24741,-2.27604 4.19197,-9.43499 5.495,-12.98316 4.46347,-12.15323 8.61643,-24.41782 13.06283,-36.57917 12.33937,-33.76989 24.20728,-67.72024 36.20525,-101.60881 5.51939,-15.59736 15.73717,-33.92027 17.18408,-50.39797 H 560.06773 459.2718 c -15.67133,0 -33.30168,-2.28904 -48.77223,0.12031 -10.95912,1.70703 -16.78577,19.76169 -27.63759,21.8272 m 39.83065,616.96866 h 222.7265 69.09398 l 35.7663,0.81287 c -10.59739,24.37798 -16.1688,51.84487 -24.07397,77.22269 -15.8526,50.89382 -31.79868,101.79576 -47.34645,152.81968 -8.43028,27.6701 -16.74188,55.389 -25.34286,82.9859 -3.71563,11.9248 -10.98676,25.6136 -11.34849,38.1318 h 169.88993 44.70787 c 4.49517,0 13.66435,1.7395 17.5011,-0.8373 2.99136,-2.0159 3.15394,-7.3809 4.17815,-10.5429 3.16207,-9.6894 6.08028,-19.4927 8.96597,-29.2634 11.07129,-37.4896 21.17527,-76.2716 34.4657,-112.98896 16.12735,-44.53717 28.87316,-91.13903 42.29365,-136.56223 4.24318,-14.37968 8.17748,-28.84064 12.90025,-43.08213 1.61762,-4.87966 2.35733,-12.83116 5.60881,-16.81179 2.95885,-3.62378 12.1199,-1.88423 16.3387,-1.88423 h 35.76633 c 3.4791,0 10.4291,1.31766 13.3636,-0.83563 3.1214,-2.29555 3.9342,-9.46182 4.7634,-12.98317 2.3329,-9.89426 6.5111,-19.40322 9.0554,-29.26334 7.3158,-28.45209 17.5092,-56.25063 25.4509,-84.53852 3.1296,-11.16396 8.9416,-22.51733 9.9577,-34.14056 4.5439,2.76782 5.5682,11.39075 7.1776,16.25741 4.8204,14.55526 9.2261,29.25846 13.8026,43.895 17.9563,57.44637 35.2704,115.2065 54.2266,172.32854 21.6223,65.1922 41.5783,131.07535 61.8188,196.71461 27.2799,88.4891 57.3642,176.1978 83.6281,264.9958 12.632,42.7407 26.6052,85.1563 40.1314,127.6207 3.2596,10.234 7.0151,20.4924 9.7219,30.889 1.1624,4.4708 2.4224,12.632 6.186,15.6559 3.7473,2.9995 12.1036,2.6256 16.7532,3.5766 16.6557,3.4141 33.6285,5.6414 50.398,8.4702 40.6516,6.8525 81.2383,14.0789 121.9305,20.6143 18.7448,3.0077 38.7577,9.3481 57.7139,9.3968 -2.1785,-10.4616 -6.7062,-20.6631 -9.8439,-30.889 -7.6003,-24.7194 -15.6153,-49.2925 -23.3294,-73.9713 -24.0853,-77.0519 -48.6422,-153.9576 -73.1583,-230.8552 -68.7851,-215.78455 -136.1071,-432.04385 -204.8515,-647.8577 -30.1087,-94.50432 -59.494,-189.23461 -89.7734,-283.69178 -8.8441,-27.59695 -17.0459,-55.41907 -26.2151,-82.91279 -3.0808,-9.25046 -4.739,-25.53795 -10.8437,-33.06919 -2.6093,-3.2149 -9.4537,-1.88423 -13.1278,-1.88423 h -37.3921 -104.0474 c -18.6716,0 -40.08264,-2.5199 -57.7138,4.70245 -29.21456,11.96952 -36.96122,37.41399 -45.12244,65.2044 -4.87722,16.60369 -10.68111,32.93914 -15.48518,49.5851 -23.97968,83.08999 -52.03184,165.03627 -76.73497,247.92548 -7.04758,23.62689 -14.1033,47.31719 -21.91824,70.71973 -2.25409,6.75089 -3.21652,20.80786 -8.44897,25.72166 -3.10192,2.91333 -11.93863,1.10307 -15.99892,1.10307 H 742.15071 625.91024 c -19.31706,0 -39.19418,-1.36481 -58.45352,0.0813 -5.7283,0.43001 -8.74079,6.42981 -12.09551,10.41369 -7.97588,9.47075 -15.916,18.97889 -23.80897,28.52281 -25.99804,31.43532 -52.40576,62.55607 -78.31519,94.06049 -6.74276,8.19942 -13.52292,16.44193 -20.44532,24.4804 -3.63841,4.22612 -8.57822,8.48556 -10.0991,13.95699 M 1067.2989,530.80439 c 6.4704,31.41013 19.3382,62.97308 29.2633,93.48011 h -39.8306 l -21.1347,-0.81288 c 8.4864,-22.7563 14.1359,-46.79044 21.533,-69.90767 1.9834,-6.19813 3.2352,-20.66154 10.169,-22.75956 z"
       id="path298" />
  </g>
</svg>
