<?xml version="1.0" encoding="UTF-8" standalone="no"?>
<!-- Created with Inkscape (http://www.inkscape.org/) -->

<svg
   version="1.1"
   id="svg219"
   width="1732.2269"
   height="1732.2269"
   viewBox="0 0 1732.2269 1732.2269"
   sodipodi:docname="america_logo_carrier.svg"
   inkscape:version="1.2.1 (9c6d41e410, 2022-07-14)"
   xmlns:inkscape="http://www.inkscape.org/namespaces/inkscape"
   xmlns:sodipodi="http://sodipodi.sourceforge.net/DTD/sodipodi-0.dtd"
   xmlns="http://www.w3.org/2000/svg"
   xmlns:svg="http://www.w3.org/2000/svg">
  <defs
     id="defs223" />
  <sodipodi:namedview
     id="namedview221"
     pagecolor="#ffffff"
     bordercolor="#000000"
     borderopacity="0.25"
     inkscape:showpageshadow="2"
     inkscape:pageopacity="0.0"
     inkscape:pagecheckerboard="0"
     inkscape:deskcolor="#d1d1d1"
     showgrid="false"
     inkscape:zoom="0.46991534"
     inkscape:cx="484.12976"
     inkscape:cy="756.51925"
     inkscape:window-width="1920"
     inkscape:window-height="1001"
     inkscape:window-x="-9"
     inkscape:window-y="-9"
     inkscape:window-maximized="1"
     inkscape:current-layer="g225" />
  <g
     inkscape:groupmode="layer"
     inkscape:label="Image"
     id="g225">
    <path
       style="fill:#ffffff;stroke:none;stroke-width:0.81287"
       d="M 48.772226,1522.442 H 315.39373 c 42.99434,0 93.52074,7.6653 133.31075,-11.5916 40.75976,-19.7202 66.41721,-55.1288 92.19902,-90.8301 18.27495,-25.3047 37.00105,-50.2923 55.27519,-75.597 67.78201,-93.8702 137.18733,-186.57 204.9669,-280.4403 23.95042,-33.1732 47.90571,-66.3871 72.38937,-99.17014 13.16037,-17.63116 24.77629,-37.35953 41.75715,-51.66605 31.25487,-26.337 68.21609,-25.55665 106.48599,-25.55665 h 120.3049 48.7722 c 10.486,0 20.9639,-0.97544 30.8891,3.0564 19.4438,7.9011 24.5405,27.64572 34.1405,44.09009 h -79.6613 v 10.56732 h 165.0127 c 36.2866,0 76.6049,0.2845 106.486,24.23166 21.281,17.0459 23.3132,44.28517 28.6212,69.24847 7.958,37.4326 16.3468,74.7922 24.5568,112.1761 3.9506,17.9644 10.3966,36.9531 11.8517,55.2752 h -0.8129 c -2.1622,-6.6493 -4.5602,-12.9328 -8.6083,-18.696 -28.0847,-40.0095 -84.7824,-31.702 -127.1411,-31.702 h -42.2692 c -22.2564,0 -59.3152,-5.7307 -72.8738,17.0703 -6.8525,11.5265 -5.9746,25.3534 -5.9746,38.2049 v 63.4039 247.1126 h 258.4928 V 689.24978 429.13124 347.84419 l 0.8128,-41.45639 c -12.8596,-3.80017 -30.4745,-0.81287 -43.895,-0.81287 h -93.4801 -306.4521 -108.92467 -29.26334 c -3.80423,0 -9.4862,-1.0356 -12.93277,0.83563 -7.44589,4.04972 -13.46113,17.59214 -18.46841,24.36336 -15.45267,20.88995 -30.14124,42.33754 -45.35005,63.40389 C 801.95765,468.4888 748.77885,543.1542 695.47488,617.71718 545.26536,827.83606 394.5413,1037.5729 244.33178,1247.6918 c -43.97629,61.518 -87.29497,123.5807 -132.06137,184.5216 -14.401622,19.6064 -28.196847,39.6518 -42.487109,59.3395 -6.753002,9.2992 -17.382584,19.9478 -21.011075,30.8891 M 1140.4572,561.62912 c 8.7953,13.30588 11.4778,34.41368 16.5257,49.5851 1.5526,4.6423 2.4305,13.0864 6.0152,16.58011 3.2921,3.21003 13.77,1.30304 18.1026,1.30304 h 52.0238 l -13.8188,11.37124 -28.4505,20.90784 -14.461,11.75736 4.9829,18.55458 16.7939,50.39797 -16.2574,-11.03553 -25.199,-19.04068 -16.2574,-10.91604 -17.0703,11.56065 -40.6435,30.24447 16.9159,-51.21084 4.8609,-18.55458 -13.6481,-11.22005 -30.0762,-22.14584 -13.0059,-10.67055 h 52.0237 c 4.4464,0 14.7861,1.89967 18.2408,-1.30304 3.5848,-3.33114 4.4708,-12.03861 6.0315,-16.58011 5.2999,-15.44617 7.6735,-35.76305 16.3712,-49.5851 m 456.0203,836.79318 c -9.4618,1.3575 -18.7529,4.4302 -26.8247,9.6 -29.6372,18.9887 -36.3759,62.8024 -14.2496,90.0336 14.0545,17.2978 36.1646,25.3778 58.1446,22.5246 8.1531,-1.0567 16.5257,-4.0562 23.5733,-8.2588 56.0067,-33.3927 23.6138,-123.1092 -40.6436,-113.8994 m 4.0644,12.4207 c 14.9649,0.024 29.7754,3.5685 40.4078,14.9406 29.1414,31.1573 6.0071,82.8396 -36.3435,82.8396 -23.7845,0 -45.033,-17.0297 -49.2111,-40.6435 -4.7878,-27.1174 16.3387,-57.1774 45.1468,-57.1367 m -24.3861,80.7099 h 13.8188 v -24.3861 c 10.5998,0.01 15.4608,4.926 20.7688,13.8188 1.7965,3.0157 3.2678,7.7954 6.3648,9.73 3.7636,2.3574 11.624,0.8373 15.9485,0.8373 -3.3409,-9.1773 -10.673,-22.2401 -19.5089,-26.8247 4.0237,-2.1216 8.6408,-3.1052 11.7623,-6.6574 7.3077,-8.2994 5.4055,-21.7768 -4.4464,-27.1418 -7.3484,-4.0074 -17.1516,-2.78 -25.199,-2.78 -3.9099,0 -16.0624,-1.9997 -18.6717,1.3006 -2.5605,3.2352 -0.8372,12.5995 -0.8372,16.5826 v 45.5207 m 13.8188,-35.7663 v -16.2574 c 5.8039,0 31.3199,-1.2762 24.3617,11.2989 -3.4384,6.2184 -18.1758,4.9422 -24.3617,4.9585 z"
       id="path229" />
  </g>
</svg>
