<?xml version="1.0" encoding="UTF-8" standalone="no"?>
<!-- Created with Inkscape (http://www.inkscape.org/) -->

<svg
   version="1.1"
   id="svg44"
   width="1732.2269"
   height="1732.2269"
   viewBox="0 0 1732.2269 1732.2269"
   sodipodi:docname="common_logo_carrier.svg"
   inkscape:version="1.2.1 (9c6d41e410, 2022-07-14)"
   xmlns:inkscape="http://www.inkscape.org/namespaces/inkscape"
   xmlns:sodipodi="http://sodipodi.sourceforge.net/DTD/sodipodi-0.dtd"
   xmlns="http://www.w3.org/2000/svg"
   xmlns:svg="http://www.w3.org/2000/svg">
  <defs
     id="defs48" />
  <sodipodi:namedview
     id="namedview46"
     pagecolor="#ffffff"
     bordercolor="#000000"
     borderopacity="0.25"
     inkscape:showpageshadow="2"
     inkscape:pageopacity="0.0"
     inkscape:pagecheckerboard="0"
     inkscape:deskcolor="#d1d1d1"
     showgrid="false"
     inkscape:zoom="0.33228032"
     inkscape:cx="-520.64474"
     inkscape:cy="573.31111"
     inkscape:window-width="1920"
     inkscape:window-height="1001"
     inkscape:window-x="-9"
     inkscape:window-y="-9"
     inkscape:window-maximized="1"
     inkscape:current-layer="g50" />
  <g
     inkscape:groupmode="layer"
     inkscape:label="Image"
     id="g50">
    <path
       style="fill:#ffffff;stroke:none;stroke-width:0.81287"
       d="M 829.81268,1.5419118 C 809.47059,4.213912 788.51967,4.014852 768.03452,6.209172 726.13755,10.697012 684.40479,18.841412 643.66535,29.553412 462.23673,77.258022 298.3019,186.63063 183.11247,334.47388 121.69604,413.30118 72.868532,503.36153 42.420932,598.65677 -38.209718,851.01238 -0.7463782,1134.7042 150.27331,1353.8134 c 64.13954,93.0574 144.92586,172.7675 238.96359,235.4642 80.11001,53.4055 169.96714,93.2606 263.37002,116.6143 107.03065,26.7516 218.26386,33.5472 327.58676,19.1757 282.23682,-37.1157 538.72992,-219.0849 663.09102,-476.1145 55.6979,-115.1187 85.6765,-239.7155 88.8061,-367.41742 C 1737.5939,656.42341 1648.3163,435.9575 1495.4804,271.88286 1384.7756,153.03713 1236.7844,66.666392 1079.3639,27.311682 1022.7963,13.168952 965.22058,4.524292 907.03538,1.9779118 c -24.8901,-1.08931 -52.4383,-3.69105 -77.2227,-0.436 M 842.00573,99.7868 c 17.17595,-2.0273 35.64435,-0.20484 52.83655,0.54869 57.1448,2.50202 113.71252,10.11211 169.07712,25.10794 215.8659,58.46652 403.4682,212.12505 497.2247,416.31241 42.8464,93.30615 67.265,193.37294 71.7521,295.88484 7.1939,164.30552 -42.6107,329.84652 -135.7412,464.96182 -122.7597,178.1081 -324.5873,302.6967 -540.53452,325.8229 -110.4203,11.8354 -219.77092,1.4144 -325.96106,-31.5881 C 551.18426,1572.1422 475.21746,1531.9946 408.74579,1482.1412 341.19951,1431.4831 281.95019,1370.5504 233.99897,1300.9768 77.613912,1074.0803 57.640142,776.02754 177.28744,528.74991 212.16527,456.667 260.06122,390.61396 315.29739,332.84814 416.96391,226.52631 551.74027,151.6268 694.87618,118.77952 c 35.07699,-8.04904 70.69941,-13.24003 106.48603,-16.6484 13.49365,-1.28515 27.20677,-0.76003 40.64352,-2.34432 m 104.86025,131.45253 c 2.6581,33.67397 5.6657,67.84136 6.4949,101.60881 0.2276,9.48864 1.5851,18.97321 1.6338,28.45046 0.016,3.79936 -0.6259,10.98839 1.6502,14.21711 3.032,4.31146 16.1192,6.24528 21.1102,6.91753 16.0705,-24.30239 38.94472,-45.24356 52.02372,-71.5326 h 0.8129 c 1.7965,22.73598 1.1462,45.57764 3.8286,68.28111 0.6097,5.11702 -0.951,17.55638 3.154,21.18828 3.2189,2.85074 17.5986,7.35892 21.094,4.49193 11.6728,-9.58293 20.5818,-27.33846 29.5397,-39.499 12.0142,-16.29074 24.0284,-32.58148 36.1646,-48.77223 6.3973,-8.52376 14.4609,-17.29382 19.2081,-26.82472 l -28.4505,-8.12871 -40.107,59.33954 -15.981,24.38612 h -0.8129 c -4.17,-22.4458 -3.2108,-48.682 -3.2515,-71.5326 -0.01,-6.86713 1.8534,-24.84945 -2.4467,-30.31844 -2.398,-3.04014 -13.6319,-6.18432 -16.6476,-3.53111 -10.0715,8.87248 -17.6799,24.47065 -25.3859,35.47529 -10.0309,14.33416 -25.65432,30.02337 -31.92962,46.33361 l -1.6258,-29.26333 -1.4875,-49.5851 -0.9755,-22.98147 -7.2914,-3.01006 -20.3218,-5.71042 m -99.983,86.16427 c -17.67183,-17.67343 -35.11684,-35.9305 -51.88555,-54.46232 -5.4633,-6.03719 -14.26831,-19.69422 -22.08568,-22.2377 -5.62507,-1.83058 -14.3553,1.09901 -20.32177,1.10307 0.0219,33.33094 4.79025,68.5014 8.7091,101.6088 0.95837,8.09376 1.22174,16.27773 1.99641,24.38612 0.22435,2.34594 -0.0553,7.39387 1.51031,9.23177 1.40789,1.65419 4.63011,0.65111 6.4802,0.55194 6.24529,-0.33572 12.45237,-1.38676 18.69602,-1.65501 l -7.31583,-90.22862 c 20.41524,20.41768 39.58679,42.27414 59.26638,63.4039 11.16071,11.97927 17.93191,23.99106 35.83941,18.69602 l -5.8282,-65.02964 -6.3648,-70.71973 c -5.9827,0.0496 -11.9167,1.13477 -17.8832,1.5534 -2.1541,0.15119 -5.76321,-0.48691 -7.28327,1.48837 -2.75563,3.58719 0.65842,18.4611 1.25182,22.97009 2.55245,19.43573 4.38135,39.75749 5.21865,59.33954 m -217.8493,-37.04413 c -24.94781,3.57419 -49.31116,19.40809 -58.47302,43.54709 -18.45785,48.62835 21.88328,106.66161 74.73043,99.06371 27.31488,-3.92698 52.99021,-22.32792 60.61737,-49.47861 13.20996,-47.02455 -26.97185,-100.28139 -76.87478,-93.13219 m 5.69009,23.45781 c 32.61887,-3.74326 54.52247,37.78141 46.16454,65.61003 -5.4186,18.04084 -24.3471,28.27001 -42.10019,29.93802 -31.74665,2.98242 -53.49744,-36.39465 -45.72721,-64.07858 5.33649,-19.01223 23.00261,-29.32755 41.66286,-31.46947 m 575.51233,30.6566 c -17.4361,27.90584 -40.8224,53.74699 -61.136,79.6613 -5.2837,6.74358 -10.486,13.55706 -15.7453,20.32176 -1.5445,1.98747 -4.926,5.20563 -4.4789,7.98727 0.4389,2.74913 4.5846,4.82438 6.5761,6.36071 6.5111,5.01866 13.0384,10.01375 19.5089,15.08606 12.9246,10.13243 26.0931,19.94622 39.0178,30.07621 3.1295,2.45568 10.2421,10.33321 14.4935,9.65934 5.2267,-0.82751 13.648,-15.00397 15.5827,-19.58449 -19.3951,-14.37399 -38.5707,-34.77135 -60.1524,-45.52074 3.7636,-6.025 8.6083,-11.41027 12.9002,-17.07028 1.3819,-1.8249 3.2759,-5.52183 5.8689,-5.71773 4.544,-0.34385 12.7215,8.52375 16.1843,11.23712 13.2417,10.38116 27.223,24.37879 42.2693,31.87265 l 13.8188,-20.32176 -57.7138,-43.89501 v -0.81287 l 18.696,-23.57324 c 14.6723,11.82482 29.8486,23.02862 44.7078,34.60877 3.3003,2.56948 11.7135,11.6907 16.1843,10.53968 3.8693,-0.99496 15.4771,-15.91926 13.2904,-19.71455 -3.8692,-6.73382 -15.2575,-12.36132 -21.3459,-17.13449 -12.9247,-10.13569 -25.9225,-20.22341 -39.0178,-30.14124 -6.1697,-4.67563 -12.3475,-10.89653 -19.5089,-13.92447 m -732.39632,28.45046 -20.06734,20.32177 2.07851,21.13463 6.60864,50.39796 c -16.02655,-2.06956 -32.04904,-5.60474 -47.95936,-8.47336 -6.32657,-1.14127 -15.59573,-4.7431 -21.9475,-3.4295 -5.87949,1.21606 -12.77182,10.32833 -17.06621,14.41382 -1.65501,1.57453 -4.43665,3.82456 -3.78717,6.43062 1.91594,7.68894 15.37707,17.25805 20.85257,22.76037 16.88982,16.97192 32.87817,34.88434 49.5981,52.02371 4.76993,4.89023 9.86662,9.50652 14.387,14.63167 1.99397,2.26059 4.43095,6.25666 7.54831,7.03458 5.36413,1.33961 15.21775,-12.95309 19.50889,-15.97616 l -20.24941,-21.9475 -47.21883,-49.5851 c 17.68237,2.24678 35.2737,6.09328 52.83657,9.1448 4.77562,0.82994 15.13728,4.79349 19.38859,1.73304 4.60003,-3.31245 1.29246,-14.20898 0.70151,-19.00654 -2.29311,-18.61148 -3.65955,-37.65541 -7.08417,-56.08806 17.12962,17.27187 33.23909,35.59397 50.39878,52.83658 3.44982,3.46689 12.98642,16.90201 17.89453,16.90201 3.99607,0 19.08539,-14.7097 17.25968,-18.52857 -2.04681,-4.28138 -7.44671,-8.05636 -10.76891,-11.37937 -6.91184,-6.91428 -13.40667,-14.20897 -20.32176,-21.13463 -14.32115,-14.34473 -28.22205,-29.23814 -42.23756,-43.895 -6.55661,-6.85657 -12.54422,-14.82107 -20.35346,-20.32177 M 1227.3064,518.1826 c 2.1134,5.57791 10.8599,21.27444 17.0784,22.42953 9.665,1.79157 22.3702,-9.54635 29.4828,0.3349 8.7058,12.09633 17.2816,24.32353 25.768,36.57511 3.1051,4.48867 8.9578,10.12593 10.3316,15.44454 2.0403,7.92223 -11.0063,16.66709 -11.9574,24.38611 -0.8291,6.66066 11.2095,17.99695 14.648,23.57324 h 1.6257 c 16.6476,-31.61334 36.4003,-62.02607 54.7875,-92.66723 l 14.9568,-25.19898 c 1.6745,-2.80522 5.3162,-7.14513 5.056,-10.56732 -0.3658,-4.75447 -12.2743,-22.20599 -17.1597,-22.50106 -13.6399,-0.82425 -30.3525,5.90713 -43.8218,8.33761 -20.6469,3.72457 -41.1556,8.17748 -61.7782,12.04105 -12.7295,2.38496 -26.7678,3.66523 -39.0177,7.8125 m 130.0592,0 c -7.836,18.18147 -20.7769,36.32311 -31.7019,52.83658 h -0.8129 l -28.4505,-40.64353 60.9653,-12.19305 m -1034.78408,17.88315 -11.55576,26.82472 9.93002,19.50889 24.38612,43.89501 c -16.38016,2.11508 -32.52132,6.47776 -48.77223,9.40978 -5.98842,1.08031 -16.79878,1.12664 -21.63048,5.00891 -5.68115,4.5659 -11.29565,19.98686 -12.51008,27.0377 l 91.04149,42.15627 32.51482,14.74466 10.56731,-23.57324 -88.60287,-41.4564 c 17.59376,-4.55207 35.8297,-7.16626 53.64944,-10.72989 4.5659,-0.91285 15.90788,-1.07786 18.28959,-5.64701 2.6654,-5.11458 -4.77724,-14.20003 -7.08742,-18.57652 -8.49124,-16.08183 -18.81795,-32.00922 -25.83383,-48.77223 27.46933,16.03306 59.22411,29.24139 88.60287,41.45639 L 446.9507,593.77955 381.10819,563.06849 322.58152,536.06575 M 711.94646,806.7516 c -15.88267,1.29734 -32.8294,9.94141 -46.33361,17.89128 -45.74754,26.9304 -78.84843,78.6208 -78.84843,132.4897 0,21.8906 1.12988,44.74042 10.48684,65.02962 6.1453,13.3311 22.61487,17.6312 35.0339,10.5674 -10.3893,-22.2483 -19.00329,-43.22852 -19.4967,-68.28112 -0.99414,-50.5362 31.41175,-99.9424 76.39763,-121.7192 19.39102,-9.38869 39.76237,-12.35566 60.96528,-14.03018 -2.53859,-14.24149 -11.61266,-27.9034 -15.14052,-42.26926 -8.13602,-33.13178 -1.40058,-70.4149 16.80935,-99.17019 14.24636,-22.49538 33.84467,-39.69572 57.67071,-51.40918 4.35699,-2.14354 24.2398,-6.45256 22.99611,-12.01016 -2.73937,-12.23126 -18.78544,-17.38486 -29.49907,-14.48698 -21.3793,5.78358 -43.23333,24.15201 -57.36833,40.51428 -29.47712,34.12186 -43.17805,77.03736 -40.10378,121.93056 0.81856,11.94432 4.84796,23.20095 6.43062,34.95343 M 898.90668,627.10724 c 59.5996,19.05693 106.02272,71.91383 101.53562,137.3751 -1.59322,23.25622 -12.59952,41.45395 -17.81002,63.40389 19.44392,4.64149 38.22122,4.70652 56.90102,13.25795 49.5119,22.6709 82.0186,74.4264 79.6288,128.9944 -0.6097,13.9244 -3.9506,28.51552 -9.0717,41.45632 -2.8287,7.137 -8.2425,14.4772 -9.5918,21.9475 36.6604,14.1196 42.4399,-33.3357 44.846,-58.52662 0.5934,-6.1778 1.1299,-12.4776 0.5365,-18.696 -5.1861,-54.4623 -30.7427,-102.5761 -78.7102,-131.35988 -13.6725,-8.20186 -31.0029,-16.88982 -47.1465,-18.2083 2.9832,-14.40975 6.633,-28.27001 7.2833,-43.08213 1.7721,-40.41673 -12.8027,-82.84206 -39.93632,-112.98899 -15.0463,-16.71587 -35.62,-34.44213 -57.5756,-41.27675 -13.006,-4.05053 -28.4261,3.91804 -30.8891,17.70351 m 425.13122,42.26926 7.2915,25.19898 21.159,66.65538 22.7604,-6.50297 -6.7306,-23.57324 -14.4041,-43.895 c 36.1159,-7.47516 72.2073,-22.72298 107.2989,-34.14056 l -7.3158,-24.38611 -41.4564,12.46374 -88.6029,28.17978 M 890.77798,657.99631 c -3.4629,27.42137 17.94,32.56278 32.97,50.39797 17.6962,21.00457 22.801,48.96244 13.6156,74.78408 -3.2271,9.06188 -8.3807,17.21172 -14.7536,24.38286 -44.716,50.27926 -126.23717,19.91858 -132.48977,-45.51749 -1.97283,-20.64447 7.66293,-43.08132 21.88166,-57.6821 13.93341,-14.30896 34.97861,-22.05236 29.19099,-46.36532 -58.43319,7.8759 -88.37283,77.56004 -73.62411,129.2464 12.3857,43.39916 56.05798,75.10107 101.26173,73.12587 47.1546,-2.0647 88.5622,-35.22172 97.9915,-82.06744 8.4376,-41.93111 -9.8764,-86.33416 -46.7807,-108.59868 -8.6571,-5.22107 -19.0212,-10.81199 -29.2633,-11.70615 m -598.27266,94.64088 c -49.76393,7.12969 -76.55777,65.94981 -49.0169,108.57669 15.55346,24.0773 46.62706,34.4901 74.21588,30.5396 49.7493,-7.1289 74.46869,-67.58206 47.39116,-109.38799 -14.97551,-23.12129 -46.01497,-33.53578 -72.59014,-29.7283 m 1175.41068,7.7808 3.2515,43.08213 c -27.5563,0.0179 -55.4215,4.53663 -82.9128,6.43062 -6.7875,0.4674 -13.5505,0.91285 -20.3218,1.5599 -2.3654,0.22598 -6.4054,-0.55519 -8.1043,1.55421 -3.0726,3.81073 0.252,20.85663 1.6014,25.40873 l 40.6435,-3.3897 71.5326,-5.5519 3.2515,43.0821 22.736,-2.9263 0.097,-7.641 -1.6257,-21.1346 -6.5761,-82.09993 -23.5733,1.62574 M 299.00828,777.72075 c 14.59102,-1.74523 33.0757,4.05622 42.83746,15.22425 14.62516,16.73212 13.29531,48.28858 -3.85138,63.01778 -7.82388,6.7143 -17.56288,9.5106 -27.60589,10.7055 -15.90219,1.9021 -34.47465,-4.3407 -44.69568,-16.8671 -14.60891,-17.90749 -11.23956,-49.04531 7.30689,-62.98279 7.66699,-5.76081 16.64271,-7.97751 26.0086,-9.09764 m 360.1016,238.75135 c 23.90002,-11.372 10.95425,-36.01012 12.26541,-55.27512 1.79725,-26.3858 16.33869,-51.097 39.7583,-63.9648 59.18835,-32.5229 132.13209,28.3773 107.61592,92.4153 -3.04827,7.94982 -6.998,15.50952 -12.65965,21.94742 -15.10394,17.1678 -34.69412,27.0767 -57.56423,28.3773 -17.85145,1.008 -44.31688,-11.8191 -53.64945,12.2662 49.82165,29.0764 115.99499,11.1689 143.62608,-39.8306 8.47822,-15.6396 11.63222,-32.79122 11.63222,-50.39792 0,-12.4938 -2.2923,-24.9795 -6.9907,-36.5792 -4.81222,-11.8598 -11.69723,-23.3294 -20.65507,-32.5148 -10.27793,-10.5348 -22.14584,-18.7286 -35.75817,-24.378 -11.9118,-4.9423 -24.52592,-7.324 -37.39204,-7.324 -16.99468,0 -33.49595,2.9426 -48.77222,10.7787 -52.50168,26.9141 -70.92132,94.0003 -41.4564,144.47952 m 377.98482,35.7663 c -8.08,-23.7602 -35.8314,-11.9085 -52.83662,-12.2337 -22.0044,-0.4308 -43.2447,-10.9737 -57.47,-27.5969 -6.3404,-7.4053 -11.0144,-15.981 -14.0626,-25.19892 -14.6561,-44.3584 16.0542,-92.8949 62.591,-98.9345 16.3956,-2.1297 32.80752,1.894 47.14652,9.7707 21.2078,11.6566 37.1075,36.3678 38.1724,60.7133 0.8779,20.0291 -11.2908,45.51262 12.2256,57.71372 31.2548,-47.39032 10.8681,-115.43562 -37.3921,-142.36602 -39.00962,-21.7606 -89.26132,-15.7453 -121.93062,14.8186 -9.9088,9.2667 -18.3302,21.4923 -23.4106,34.0674 -22.6385,56.1043 6.0315,122.44262 65.6799,139.46412 14.3228,4.0888 29.9787,4.8285 44.70792,2.7882 12.9572,-1.7965 25.3128,-6.4298 36.5792,-13.006 m 325.961,-139.00082 -5.6901,26.0119 53.6495,11.3802 -13.8188,65.02962 -54.4623,-11.3802 -4.8773,25.199 133.3108,29.2633 4.3163,-24.1422 -13.2579,-4.479 -41.4564,-8.7708 13.8188,-65.02962 56.0881,12.193 5.6901,-26.0118 -58.5267,-12.6645 -74.7841,-16.5989 m -1011.21084,13.006 -12.19306,21.9475 c 6.86551,4.9341 12.30767,10.5348 16.56955,17.8831 7.41094,12.7783 9.40491,31.40122 2.20695,44.70792 -15.97372,29.5315 -61.07015,33.7259 -80.37501,5.69 -4.80243,-6.9744 -7.26137,-15.2738 -8.41402,-23.57322 -1.43471,-10.3234 1.90456,-19.0943 5.79577,-28.4504 l -21.13463,-12.1931 c -6.60864,15.8754 -11.96789,30.377 -9.00579,47.95942 2.28497,13.5667 7.74096,26.6296 16.32487,37.392 31.45484,39.4323 102.90533,27.4913 121.55909,-18.696 9.74469,-24.126 3.86845,-56.17752 -11.99635,-76.40982 -4.952,-6.316 -11.51674,-13.6644 -19.33737,-16.2574 m 513.73412,103.23452 c -32.57985,45.3581 -80.33924,76.4098 -138.18798,67.1106 -18.19285,-2.9182 -32.55058,-12.1362 -49.5851,-17.5255 -10.08122,26.1825 11.43628,36.7255 33.32769,41.7409 38.89992,8.9172 80.59529,2.9995 115.4276,-16.4281 10.26656,-5.7308 19.63899,-12.5508 28.45049,-20.3055 2.6093,-2.3005 7.7629,-9.0229 11.3802,-9.0229 3.9343,0 8.6733,7.1207 11.3801,9.5675 8.6409,7.8035 18.3628,14.339 28.4505,20.1104 34.5551,19.769 76.8813,24.5568 115.42762,15.9648 21.0371,-4.6903 44.3177,-16.2493 32.5149,-41.6271 -12.7459,4.6415 -24.0041,11.7134 -37.3921,15.0543 -38.34312,9.5919 -80.63682,1.1787 -112.17612,-22.8985 -9.1692,-7.007 -17.306,-14.8837 -24.5487,-23.8578 -4.6984,-5.8283 -8.6571,-13.1522 -14.4691,-17.8831 m -500.72819,126.4257 c -22.88231,5.2512 -14.83408,40.9849 8.1287,35.7175 23.31881,-5.3486 15.06086,-41.0418 -8.1287,-35.7175 m 993.32771,3.2515 c -22.7766,5.43 -12.8108,40.9605 9.7544,35.303 23.2888,-5.8446 13.3799,-40.8143 -9.7544,-35.303 m -146.3167,132.8799 v 0.8129 l 54.4623,59.3395 h 0.8129 c 9.3643,-8.1856 18.4115,-16.7207 27.6376,-25.0608 5.0479,-4.5602 12.1605,-9.0797 15.9485,-14.7698 2.5687,-3.8612 -3.162,-10.8031 -7.0069,-11.9411 -3.7067,-1.0974 -7.4378,4.0319 -9.7545,6.1778 -6.0965,5.6495 -14.2333,16.0867 -21.9475,19.2 -3.8448,1.5526 -13.1116,-7.9173 -12.0223,-11.7378 0.7153,-2.5362 4.4952,-4.8285 6.3322,-6.5761 6.3973,-6.0803 13.258,-11.6485 19.5089,-17.8832 v -0.8129 l -9.8926,-9.0066 -7.9905,5.4138 -19.5089,18.2245 h -0.8129 l -10.5673,-13.8188 c 11.3395,-5.2836 21.4435,-18.5741 30.8891,-26.8247 -2.0485,-2.9426 -6.5355,-10.3966 -10.5673,-10.3966 -4.2513,-0.01 -10.0552,7.6003 -13.006,10.2584 -10.8599,9.7707 -21.7686,19.5008 -32.5148,29.4015 m -790.11008,19.5089 c 2.3687,3.3572 9.37321,12.0305 13.81879,12.0224 4.65531,0 10.02839,-9.0066 13.00918,-12.0224 10.10398,-10.2259 19.91777,-20.7363 30.07296,-30.8891 3.29944,-3.3002 10.75183,-8.3481 11.9118,-13.0059 0.94293,-3.7798 -8.94076,-13.4855 -12.72467,-12.632 -5.84373,1.325 -12.91814,11.7216 -17.07028,15.8835 -5.28691,5.2918 -10.1495,10.9656 -15.44454,16.2574 -8.00271,8.0068 -15.59329,16.3875 -23.57324,24.3861 m 99.17019,-17.8831 c -12.61981,14.7942 -22.86198,32.1165 -34.14056,47.9593 -2.81578,3.9587 -11.72322,12.7946 -11.28833,17.81 0.38693,4.4545 10.93555,9.6569 14.53981,11.4534 l 27.6376,-39.0178 c 0.38449,18.6147 0.38936,41.1881 4.45697,59.3314 0.9348,4.17 7.50848,9.8032 11.76792,10.4372 4.48217,0.6666 10.42588,-11.2907 12.69379,-14.4934 11.54194,-16.3062 26.76132,-33.1651 35.29808,-51.2109 l -15.29497,-9.0391 -8.29859,9.852 -19.48857,28.4505 h -0.81287 l -3.019,-46.3337 -1.88017,-16.1192 -12.17111,-9.0797 m 701.50719,76.4098 -16.2574,-3.2515 c -0.7234,4.8935 -2.5361,9.2667 -5.8445,13.0059 -2.9182,3.3003 -6.4054,6.0071 -10.4129,7.8686 -16.6557,7.7142 -35.6118,-7.2914 -35.1891,-24.9388 0.2438,-10.2097 8.0799,-19.1269 17.306,-22.8173 5.9339,-2.3736 11.7541,-1.2356 17.8831,-0.756 l 4.0644,-15.4445 c -10.1609,-4.292 -21.9882,-2.3736 -31.702,2.2598 -7.0882,3.3896 -13.4611,8.5757 -18.2652,14.8104 -4.3163,5.6007 -6.9988,12.5345 -7.7873,19.5089 -2.4874,21.9069 12.1037,42.8708 34.1812,46.7726 22.2564,3.9343 50.9264,-12.9734 52.0237,-37.0181 m -629.97459,38.2049 -12.19306,9.7544 c 7.32722,22.9474 58.60227,42.7814 68.79892,12.1931 5.00403,-15.0056 -7.87672,-24.882 -18.40095,-33.0432 -3.85301,-2.9913 -9.6569,-6.568 -11.1095,-11.5265 -1.88261,-6.4298 6.41192,-8.8115 11.1095,-7.9986 9.53578,1.6582 17.94737,9.4211 23.57324,16.802 16.46225,-7.6735 8.24251,-17.7937 -3.25148,-25.012 -12.81003,-8.0474 -33.57074,-13.8107 -45.37036,-0.9673 -14.804,16.1111 1.02259,31.4499 13.66841,41.5864 4.45616,3.5685 15.72579,11.2258 8.82127,17.4686 -10.52261,9.5187 -31.45402,-10.8437 -35.64599,-19.2569 m 497.47679,11.3802 -37.3921,-22.1101 -17.0703,-9.0066 -14.6316,5.1048 c 9.413,24.4105 21.6061,50.1623 27.6376,75.597 l 17.8831,-5.6901 c -2.1866,-14.7861 -10.1771,-31.8645 -16.2574,-45.5208 l 39.0178,22.5328 15.4445,8.023 14.6317,-4.5439 c -8.4132,-24.8576 -16.233,-53.2186 -28.4505,-76.4098 l -16.1598,6.8443 2.9995,11.8517 12.3475,33.3277 m -388.55215,-29.2634 c -4.28952,20.7851 -18.1327,49.1218 -9.37728,69.9069 8.96271,21.2728 44.564,27.6864 60.5556,11.3639 10.51854,-10.7299 12.06056,-28.2391 15.38276,-42.253 1.71109,-7.2183 4.36674,-14.5422 4.97152,-21.9475 -3.66768,-0.7559 -15.03567,-5.6901 -17.93355,-2.7312 -2.73775,2.7963 -3.22385,10.3803 -4.10825,14.1114 -2.84586,12.0061 -3.87902,29.117 -11.7159,39.0015 -7.82794,9.8764 -25.12989,7.1289 -29.53809,-4.8609 -3.2653,-8.8847 1.47536,-20.5575 3.65304,-29.2634 2.40041,-9.6 5.48525,-19.4601 6.80617,-29.2633 l -18.69602,-4.0644 m 215.41063,104.8603 c 4.5927,-0.8535 16.4444,-0.4145 19.2651,-4.4139 3.1539,-4.487 1.0892,-12.4369 5.4706,-16.1192 5.7632,-4.8366 23.0936,-4.5927 30.5395,-5.4787 9.4374,-1.1137 8.2181,9.9576 14.8024,13.7944 4.5521,2.6499 14.42032,-0.6828 19.33822,-1.6014 -2.2517,-7.0557 -7.64912,-13.3229 -11.63222,-19.5089 -7.1451,-11.1038 -14.2008,-22.2726 -21.4191,-33.3276 -4.0075,-6.1372 -7.9743,-16.0542 -13.7132,-20.6388 -2.9751,-2.3817 -15.7046,-0.3983 -18.6228,1.9346 -4.4708,3.5766 -5.4219,16.5744 -6.9582,21.9556 -5.8689,20.5494 -13.9651,42.2693 -17.0703,63.4039 m -109.73748,-1.6257 19.50889,0.8129 0.81287,-22.7604 16.76142,2.1135 15.095,21.4353 19.3544,1.6502 -16.2574,-27.6376 c 17.9401,-4.1131 22.7116,-30.0112 11.9248,-43.0822 -11.3802,-13.7944 -31.393,-12.9978 -47.69109,-13.0059 -3.50347,0 -13.88382,-2.7556 -15.76724,1.073 -2.99381,6.0803 -1.3006,19.7202 -1.30304,26.5646 -0.007,17.5987 -2.07525,35.2461 -2.43861,52.8366 m 145.50378,-66.6554 16.2574,27.6376 -24.3861,4.0644 8.1287,-31.702 m -124.36915,30.0762 0.81288,-28.4504 c 7.76291,0.6096 18.26517,-0.7072 25.19897,3.3246 8.3644,4.8691 8.5677,18.3546 -0.016,23.1587 -7.072,3.9668 -18.14326,1.9671 -25.99559,1.9671 z"
       id="path158" />
  </g>
</svg>
