<?xml version="1.0" encoding="UTF-8" standalone="no"?>
<!-- Created with Inkscape (http://www.inkscape.org/) -->

<svg
   version="1.1"
   id="svg2695"
   width="1352.1127"
   height="1352.1127"
   viewBox="0 0 1352.1127 1352.1127"
   sodipodi:docname="logo-kemper-cuadrado.svg"
   inkscape:version="1.2.1 (9c6d41e410, 2022-07-14)"
   xmlns:inkscape="http://www.inkscape.org/namespaces/inkscape"
   xmlns:sodipodi="http://sodipodi.sourceforge.net/DTD/sodipodi-0.dtd"
   xmlns="http://www.w3.org/2000/svg"
   xmlns:svg="http://www.w3.org/2000/svg">
  <defs
     id="defs2699" />
  <sodipodi:namedview
     id="namedview2697"
     pagecolor="#ffffff"
     bordercolor="#000000"
     borderopacity="0.25"
     inkscape:showpageshadow="2"
     inkscape:pageopacity="0.0"
     inkscape:pagecheckerboard="0"
     inkscape:deskcolor="#d1d1d1"
     showgrid="false"
     inkscape:zoom="0.42569302"
     inkscape:cx="714.12964"
     inkscape:cy="665.97287"
     inkscape:window-width="1920"
     inkscape:window-height="1001"
     inkscape:window-x="-9"
     inkscape:window-y="-9"
     inkscape:window-maximized="1"
     inkscape:current-layer="g2701" />
  <g
     inkscape:groupmode="layer"
     inkscape:label="Image"
     id="g2701">
    <path
       style="fill:#ffffff;stroke-width:5.71718"
       d="m 9.3083678,1281.1128 -4.1644689,-4.1644 v -33.0027 -33.0025 l 23.6372011,-27.5044 23.637214,-27.5043 45.34046,-47.4195 45.340516,-47.4196 36.4608,1.6821 36.46087,1.6819 -40.09664,44.183 -40.09666,44.1829 36.60453,58.7264 36.60448,58.7267 4.15902,7.1465 4.15903,7.1464 -36.0698,-0.061 -36.06986,-0.061 -19.98154,-34.7037 -19.98157,-34.7036 -7.954049,-6.6013 -7.953977,-6.6012 -37.935544,41.7197 -37.935531,41.7199 -4.1644812,-4.1645 z M 239.54867,1173.086 v -111.4851 h 88.61644 88.61645 v 22.8687 22.8688 h -57.1719 -57.1719 v 20.0101 20.0102 h 48.59612 48.59611 v 25.7273 25.7275 h -48.95836 -48.95835 l 1.79154,18.5808 1.79153,18.5808 55.7426,1.6364 55.74261,1.6364 v 22.6617 22.6617 h -88.61645 -88.61644 z m 205.81885,0 v -111.4851 h 36.63465 36.63473 l 27.1997,48.4577 27.19969,48.4579 26.25059,-47.0285 26.25054,-47.0286 h 37.1225 37.12252 v 108.6266 108.6268 l -29.82527,1.7214 -29.82525,1.7215 -1.61929,-64.215 -1.61926,-64.2149 -21.78977,35.3368 -21.7898,35.3368 h -18.77377 -18.7737 l -8.7958,-10.0051 -8.79577,-10.005 -13.52979,-25.7275 -13.52977,-25.7273 -1.61655,64.3183 -1.61653,64.3185 h -31.25731 -31.25729 z m 280.14227,0 v -111.4851 h 65.93133 65.93131 l 19.38185,8.0982 19.38184,8.0983 10.16138,15.5082 10.16128,15.5081 0.24184,29.2776 0.24183,29.2776 -8.53596,17.1515 -8.53595,17.1516 -20.00359,9.9963 -20.00359,9.996 -35.73244,0.017 -35.73243,0.016 v 31.4446 31.4445 H 756.95395 725.5094 v -111.4851 z m 120.43684,-3.0596 11.05852,-5.9184 v -22.8092 -22.809 l -14.66516,-5.5757 -14.66516,-5.5757 h -19.63797 -19.63798 v 34.3031 34.3032 h 23.24461 23.24461 z m 91.09918,3.0596 v -111.4851 h 91.47499 91.4751 v 22.6687 22.6687 l -58.6012,1.6294 -58.6012,1.6292 -1.7915,18.581 -1.79161,18.5808 h 48.95831 48.9585 v 25.7273 25.7275 h -48.9585 -48.95831 l 1.79161,18.5808 1.7915,18.5808 58.6012,1.6294 58.6012,1.6293 v 22.6686 22.6689 h -91.4751 -91.47499 z m 205.81889,0 v -111.4851 h 69.1715 69.1716 l 19.3547,9.1844 19.3547,9.1844 12.2168,19.7671 12.2167,19.7672 -2.6883,27.9793 -2.6884,27.9793 -15.1556,19.8698 -15.1552,19.8697 v 3.8403 3.8401 l 17.1516,25.4138 17.1514,25.4137 v 5.4307 5.4306 h -33.1441 -33.1439 l -19.74,-30.0153 -19.74,-30.0153 h -14.293 -14.2929 l -1.728,30.0153 -1.7281,30.0153 h -31.1457 -31.1458 z m 124.5059,-6.0413 12.7065,-8.9 v -16.6956 -16.6955 l -13.8559,-9.0788 -13.8559,-9.0788 -21.8764,1.8005 -21.8766,1.8004 -1.7899,24.9522 -1.79,24.9521 3.0398,7.9218 3.0398,7.9217 h 21.7762 21.7761 z m -1256.261987,-52.8731 -0.247521,-53.1972 27.156647,1.7425 27.156648,1.7425 1.532207,20.0102 1.532194,20.0102 -28.44132,31.4445 -28.441333,31.4446 -0.247509,-53.1973 z M 824.17945,942.96918 813.44396,927.24688 711.76309,764.19621 610.08225,601.14556 l -8.29632,-11.32364 -8.29627,-11.32357 -38.3759,40.02032 -38.37589,40.02033 -91.42781,99.84924 -91.42776,99.84923 -40.02032,42.13106 -40.02033,42.13101 -1.90571,5.2374 -1.90576,5.23727 h -5.24073 -5.24078 V 785.71544 618.45658 l 21.43947,-23.10436 21.43947,-23.10435 91.47503,-99.70059 91.47503,-99.70064 L 505.398,329.79569 545.41833,286.74473 676.10951,145.33278 806.80069,3.9207827 h 154.2154 154.21541 l -1.9057,5.3305764 -1.9057,5.3305899 -53.8497,58.987812 -53.8498,58.987789 -69.06986,74.21479 -69.0698,74.21483 -34.14962,37.27037 -34.14963,37.27041 -16.5384,18.10737 -16.5384,18.10743 58.26215,93.37778 58.26216,93.37782 63.09197,100.05081 63.09193,100.05083 21.322,34.30313 21.322,34.30314 29.8719,47.66244 29.8717,47.66245 3.1006,8.08022 3.1008,8.0801 H 975.2085 834.91503 Z M 239.54867,226.77518 V 3.6887976 l 118.6317,1.5453034 118.63168,1.5452782 1.56793,92.2789888 1.5679,92.278992 -27.29525,31.40573 -27.29529,31.40577 -90.53902,97.85633 -90.53895,97.85639 h -2.36539 -2.36531 z"
       id="path2711" />
  </g>
</svg>
