<?xml version="1.0" encoding="UTF-8" standalone="no"?>
<!-- Created with Inkscape (http://www.inkscape.org/) -->

<svg
   version="1.1"
   id="svg2781"
   width="30676.057"
   height="4701.9717"
   viewBox="0 0 30676.057 4701.9717"
   sodipodi:docname="logo-plansource.svg"
   inkscape:version="1.2.1 (9c6d41e410, 2022-07-14)"
   xmlns:inkscape="http://www.inkscape.org/namespaces/inkscape"
   xmlns:sodipodi="http://sodipodi.sourceforge.net/DTD/sodipodi-0.dtd"
   xmlns="http://www.w3.org/2000/svg"
   xmlns:svg="http://www.w3.org/2000/svg">
  <defs
     id="defs2785" />
  <sodipodi:namedview
     id="namedview2783"
     pagecolor="#ffffff"
     bordercolor="#000000"
     borderopacity="0.25"
     inkscape:showpageshadow="2"
     inkscape:pageopacity="0.0"
     inkscape:pagecheckerboard="0"
     inkscape:deskcolor="#d1d1d1"
     showgrid="false"
     inkscape:zoom="0.046094582"
     inkscape:cx="15348.876"
     inkscape:cy="2353.8558"
     inkscape:window-width="1920"
     inkscape:window-height="1001"
     inkscape:window-x="-9"
     inkscape:window-y="-9"
     inkscape:window-maximized="1"
     inkscape:current-layer="g2787" />
  <g
     inkscape:groupmode="layer"
     inkscape:label="Image"
     id="g2787">
    <path
       style="fill:#ffffff;stroke-width:3.38028"
       d="m 16390.986,4459.7194 c -427.229,-23.0207 -808.964,-160.6225 -1145.915,-413.0616 -39.843,-29.8496 -118.31,-94.01 -118.31,-96.7386 0,-0.8376 19.394,11.1418 43.098,26.6207 385.619,251.808 847.631,352.752 1307.324,285.6342 148.926,-21.744 320.697,-70.2271 459.889,-129.8052 628.794,-269.1431 1061.395,-849.5388 1138.8,-1527.8619 49.402,-432.9238 -56.383,-878.9519 -294.562,-1241.9866 -312.095,-475.69798 -809.327,-782.66541 -1371.732,-846.84262 -431.677,-49.2596 -876.2,56.33651 -1240.418,294.6607 -24.088,15.76235 -41.582,25.9898 -38.875,22.72759 6.999,-8.43339 110.368,-90.70167 148.589,-118.25709 417.675,-301.12792 927.625,-434.3252 1441.529,-376.52307 712.421,80.13065 1335.108,528.08219 1639.542,1179.46049 105.582,225.9082 165.559,454.2259 188.249,716.6197 6.255,72.3343 5.246,261.1033 -1.807,338.0282 -36.13,394.0663 -172.693,750.8735 -406.887,1063.0986 -316.131,421.4623 -783.505,707.5088 -1300.626,796.0215 -141.403,24.2028 -316.972,35.259 -447.888,28.205 z M 13441.69,4045.9473 c -266.653,-15.9357 -499.233,-100.4765 -688.233,-250.1669 -45.408,-35.9638 -128.9,-119.6988 -166.344,-166.8274 -16.151,-20.329 -29.318,-37.8219 -29.259,-38.8732 0.06,-1.0509 40.749,-31.1263 90.423,-66.8339 49.673,-35.7076 113.431,-81.6727 141.683,-102.1447 l 51.368,-37.2216 22.591,34.539 c 38.136,58.3034 79.331,105.3793 131.574,150.3593 143.339,123.4101 333.889,190.0952 543.187,190.0952 125.262,0 234.172,-24.6716 342.447,-77.5747 224.978,-109.9248 345.385,-306.0169 326.287,-531.3854 -17.483,-206.304 -120.029,-343.8276 -335.507,-449.9444 -91.775,-45.1969 -170.913,-74.8605 -377.601,-141.5374 -210.988,-68.0639 -300.069,-101.2709 -398.254,-148.4581 -227.102,-109.143 -361.731,-246.889 -427.679,-437.5788 -50.157,-145.0288 -58.819,-339.325 -22.606,-507.0422 18.104,-83.8502 61.257,-187.0776 108.1,-258.5916 130.064,-198.5675 353.852,-336.43399 628.669,-387.2982 75.597,-13.992 122.517,-18.52878 212.957,-20.5917 317.125,-7.23353 546.984,63.76682 760.564,234.9275 31.415,25.1757 142.158,133.1809 141.78,138.2746 -0.105,1.4163 -61.971,50.4308 -137.481,108.9211 l -137.289,106.346 -7.026,-9.7716 c -80.652,-112.1659 -179.295,-191.5225 -296.041,-238.1581 -215.843,-86.2216 -502.514,-66.3935 -697.273,48.2278 -87.297,51.3771 -161.852,128.9541 -203.598,211.8505 -68.711,136.4419 -72.795,326.3038 -9.879,459.329 51.43,108.7418 139.676,189.2833 288.778,263.5665 83.147,41.4237 155.923,69.2623 363.876,139.191 191.022,64.2355 260.4,89.3609 336.803,121.9748 331.09,141.3315 496.304,330.3736 541.701,619.8305 8.754,55.8114 10.711,199.7983 3.469,255.2113 -20.62,157.7783 -81.409,297.9863 -182.138,420.0956 -136.919,165.9793 -346.484,289.2598 -581.202,341.903 -110.304,24.7393 -216.371,32.6765 -338.847,25.3572 z m 6611.832,1.6391 c -7.437,-0.7238 -33.296,-2.9926 -57.465,-5.0417 -261.415,-22.1622 -486.697,-120.2143 -648.919,-282.4361 -161.301,-161.3013 -268.978,-395.5643 -309.275,-672.862 -19.221,-132.2695 -18.193,-69.7421 -19.455,-1183.303 l -1.163,-1025.07039 h 157.167 157.166 l 1.313,1006.47889 c 0.93,712.463 2.422,1016.8471 5.109,1041.9718 7.504,70.1949 14.857,120.8538 24.69,170.1083 75.971,380.5466 306.733,607.1685 668.86,656.861 57.987,7.9572 178.632,7.9572 236.619,0 398.025,-54.6183 633.993,-318.1396 687.535,-767.8144 11.565,-97.1357 12.152,-151.7239 12.168,-1131.5493 V 878.87321 h 157.183 157.183 v 998.02819 c 0,642.1983 -1.25,1017.9136 -3.477,1053.8027 -25.41,409.4433 -170.872,724.8771 -420.959,912.8461 -144.33,108.4814 -317.529,172.4491 -535.548,197.7955 -43.021,5.0015 -235.535,9.4722 -268.732,6.2407 z m 5952.676,-1.7581 c -463.348,-25.0973 -877.537,-230.7086 -1155.863,-573.7917 -260.211,-320.7545 -384.706,-746.8233 -349.788,-1197.1071 59.28,-764.4389 597.145,-1348.40686 1343.397,-1458.54813 148.287,-21.8861 320.133,-24.31301 459.719,-6.49243 306.591,39.14193 578.267,168.07145 779.154,369.76496 36.656,36.8022 85.358,91.4654 92.452,103.7677 1.466,2.5415 -46.263,40.2992 -131.769,104.2395 -73.736,55.1401 -135.79,100.9161 -137.897,101.7246 -2.107,0.8085 -11.54,-9.5923 -20.962,-23.1128 -76.808,-110.2192 -228.703,-225.0431 -388.108,-293.3877 -157.95,-67.7204 -307.083,-94.7547 -467.449,-84.7369 -238.539,14.9012 -446.226,81.3355 -623.414,199.416 -76.228,50.7989 -120.267,86.9757 -185.388,152.2887 -95.42,95.702 -162.665,188.1332 -225.126,309.4427 -83.081,161.3593 -130.88,325.3559 -152.219,522.2535 -6.976,64.364 -7.982,221.6801 -1.827,285.6338 41.162,427.7102 237.705,780.175 555.074,995.4233 159.92,108.4621 341.745,173.3571 561,200.2269 48.599,5.9561 249.965,5.8662 297.464,-0.1318 310.353,-39.195 536.835,-170.8526 709.345,-412.3525 15.52,-21.7266 29.506,-39.9819 31.08,-40.5672 2.276,-0.8462 243.383,168.3483 254.667,178.7096 3.398,3.1203 -24.163,43.7601 -61.774,91.0871 -33.346,41.9608 -121.466,130.1777 -164.552,164.7326 -281.126,225.4655 -630.514,332.4642 -1017.216,311.5183 z M 882.25354,2421.9718 V 875.49293 l 474.08456,0.049 c 549.0699,0.0568 597.6476,1.75761 734.3662,25.71123 377.3739,66.1174 616.6897,268.51764 685.817,580.02654 15.4776,69.7471 19.4877,105.8679 21.3935,192.7042 2.5533,116.3351 -5.1684,189.9837 -29.5889,282.214 -75.6105,285.5633 -304.159,477.1162 -650.3227,545.0536 -140.3364,27.5422 -199.3614,30.5794 -594.2835,30.5794 h -327.1 v 718.3099 718.3098 H 1039.4366 882.25354 Z m 914.36626,-180.922 c 434.9261,-25.6706 661.0584,-209.8016 661.0277,-538.2499 -0.01,-62.6534 -3.566,-93.2957 -16.9767,-146.1179 -11.4499,-45.0991 -30.4362,-89.9717 -54.6962,-129.2706 -24.5709,-39.8025 -88.1935,-104.2754 -131.0359,-132.7874 -84.4591,-56.208 -198.8925,-96.129 -329.8258,-115.0622 -88.6902,-12.8247 -119.273,-13.9564 -425.1129,-15.731 l -303.3803,-1.7604 v 541.2183 541.2183 l 271.2677,-0.034 c 149.1971,-0.017 297.1267,-1.559 328.7324,-3.4245 z m 1593.8028,180.922 V 875.49293 h 157.1831 157.1831 V 2278.3098 3681.1267 h 721.6902 721.6901 v 143.6619 143.662 h -878.8732 -878.8733 z m 2334.2299,1542.2534 c 0.8931,-2.3239 303.3712,-697.8591 672.1741,-1545.6337 l 670.5509,-1541.40843 153.527,-0.8787 153.5273,-0.87874 671.6749,1543.97727 c 369.4208,849.1875 671.6667,1545.1313 671.6572,1546.5416 0,1.4102 -82.4839,2.1708 -183.2768,1.6901 l -183.2597,-0.8741 -169.3264,-403.9437 -169.3264,-403.9436 -790.8433,-0.8522 -790.8436,-0.8522 -156.9877,374.3733 c -86.3432,205.9055 -162.9374,388.4437 -170.2091,405.6409 l -13.2212,31.2676 h -183.7204 c -145.5884,0 -183.3833,-0.8769 -182.0968,-4.2254 z M 7886.819,2868.1106 c 0.9617,-0.9617 -148.1331,-366.0584 -331.3217,-811.326 -183.189,-445.2676 -334.1442,-808.4103 -335.4561,-806.9839 -3.1376,3.4109 -669.0551,1612.6784 -669.0551,1616.8497 0,3.3304 1332.5064,4.7869 1335.8329,1.4602 z M 9272.1129,2421.9718 V 875.49293 l 196.9014,0.14705 196.9014,0.14704 921.2953,1310.33158 c 506.712,720.6824 923.12,1310.9401 925.352,1311.6841 3.151,1.0502 4.057,-291.5205 4.057,-1310.4787 V 875.49293 h 157.183 157.183 V 2421.9718 3968.4506 l -196.901,-0.034 -196.902,-0.034 -921.126,-1323.2302 c -506.62,-727.7931 -923.0286,-1323.3057 -925.3526,-1323.3614 -3.3732,-0.081 -4.2253,266.7743 -4.2253,1323.2789 V 3968.4506 H 9429.296 9272.1129 Z m 12797.7471,-0.163 V 875.16721 l 538.31,1.29488 c 558.059,1.34238 557.905,1.33863 666.76,16.19943 338.828,46.25631 572.732,192.77458 686.025,429.72948 39.95,83.5559 60.434,158.4014 73.355,268.0314 5.273,44.7417 5.224,173.8476 -0.08,216.338 -18.067,144.6628 -69.441,275.5621 -149.347,380.5315 -130.387,171.284 -341.784,280.5887 -601.5,311.0119 -17.662,2.0689 -32.38,4.0084 -32.708,4.3099 -0.328,0.3015 195.644,323.7734 435.492,718.8263 239.848,395.0529 439.908,724.7429 444.578,732.6443 l 8.492,14.3662 h -192.507 -192.506 l -423.606,-718.3097 -423.604,-718.3099 h -261.393 -261.394 v 718.3099 718.3098 h -157.183 -157.183 V 2421.8089 Z m 1034.366,-185.3057 c 132.845,-15.4954 226.458,-39.6638 310.986,-80.2886 155.169,-74.5754 245.149,-189.6865 274.484,-351.1442 10.001,-55.0423 9.998,-151.138 0,-206.2996 -33.391,-184.1277 -149.217,-310.1835 -347.325,-377.9988 -68.705,-23.5189 -163.669,-42.1808 -261.802,-51.4486 -27.501,-2.5972 -156.438,-4.5457 -369.296,-5.5809 l -327.042,-1.5906 v 541.4228 541.4228 l 335.493,-1.3886 c 287.283,-1.189 342.536,-2.2101 384.507,-7.1057 z m 4718.873,185.4687 V 875.49293 h 960 960 v 143.65497 143.6549 l -801.972,0.8521 -801.971,0.8521 -0.856,526.4789 -0.856,526.4788 h 750.433 750.433 v 143.6545 143.6545 l -749.577,0.8525 -749.577,0.8526 -0.855,587.3239 -0.855,587.324 h 828.179 828.178 v 143.6619 143.662 h -985.352 -985.352 z"
       id="path2791" />
  </g>
</svg>
