<?xml version="1.0" encoding="UTF-8" standalone="no"?>
<!-- Created with Inkscape (http://www.inkscape.org/) -->

<svg
   version="1.1"
   id="svg2745"
   width="14186.29"
   height="5359.7173"
   viewBox="0 0 14186.29 5359.7173"
   sodipodi:docname="logo-facil-insurtech.svg"
   inkscape:version="1.2.1 (9c6d41e410, 2022-07-14)"
   xmlns:inkscape="http://www.inkscape.org/namespaces/inkscape"
   xmlns:sodipodi="http://sodipodi.sourceforge.net/DTD/sodipodi-0.dtd"
   xmlns="http://www.w3.org/2000/svg"
   xmlns:svg="http://www.w3.org/2000/svg">
  <defs
     id="defs2749" />
  <sodipodi:namedview
     id="namedview2747"
     pagecolor="#ffffff"
     bordercolor="#000000"
     borderopacity="0.25"
     inkscape:showpageshadow="2"
     inkscape:pageopacity="0.0"
     inkscape:pagecheckerboard="0"
     inkscape:deskcolor="#d1d1d1"
     showgrid="false"
     inkscape:zoom="0.099673699"
     inkscape:cx="7093.145"
     inkscape:cy="2683.7571"
     inkscape:window-width="1920"
     inkscape:window-height="1001"
     inkscape:window-x="-9"
     inkscape:window-y="-9"
     inkscape:window-maximized="1"
     inkscape:current-layer="g2751" />
  <g
     inkscape:groupmode="layer"
     inkscape:label="Image"
     id="g2751">
    <path
       style="fill:#ffffff;stroke-width:3.39223"
       d="m 7225.4418,4989.9647 v -366.3605 h 42.4028 42.4029 v 366.3605 366.3604 h -42.4029 -42.4028 z m 223.887,0 v -366.3605 l 56.8197,0.2171 56.8198,0.2171 267.9859,319.2641 267.9859,319.2638 0.8653,-319.4809 0.8654,-319.4808 h 40.6894 40.6894 v 366.3604 366.3604 h -57.522 -57.5216 l -267.284,-317.9116 -267.2837,-317.9117 -0.8654,317.9117 -0.8657,317.9116 h -40.689 -40.6894 V 4989.965 Z m 916.9255,359.2682 c -25.1001,-9.7071 -49.478,-32.9344 -62.6521,-59.695 -9.2166,-18.7213 -11.1801,-27.0177 -12.3914,-52.3587 l -1.4397,-30.1121 h 40.6504 40.6504 l 1.8929,20.8727 c 2.0221,22.2998 9.1563,35.48 23.1221,42.716 6.3387,3.2843 65.3302,4.0391 265.0506,3.3922 l 256.897,-0.8325 11.0888,-11.0844 11.0889,-11.0848 1.0007,-93.0993 c 1.0801,-100.4642 -0.034,-108.0631 -17.1491,-117.8466 -5.9221,-3.3834 -66.3122,-4.7145 -273.887,-6.0368 l -266.2897,-1.6961 -19.2513,-9.0247 c -26.957,-12.6367 -48.2445,-33.4796 -61.3144,-60.0326 l -11.0244,-22.3975 v -113.7074 c 0,-110.5299 0.2103,-114.1613 7.5711,-129.9586 11.2764,-24.2035 38.1252,-50.7477 62.9112,-62.1964 l 21.1078,-9.75 h 274.7703 274.7703 l 20.1685,9.9026 c 24.7208,12.1378 45.9195,32.7954 58.2852,56.7971 7.8069,15.1531 9.5648,23.5 10.7788,51.1802 l 1.4505,33.0742 h -41.1012 -41.1012 v -17.07 c 0,-9.3887 -2.1697,-22.2625 -4.821,-28.6087 -9.6645,-23.1306 2.5723,-22.1658 -281.1963,-22.1658 h -255.824 l -9.349,7.354 c -17.2457,13.5655 -18.7037,22.3792 -18.7037,113.07 0,88.6365 1.4393,98.2012 16.8468,111.9435 7.4354,6.6318 13.6456,6.8224 276.0865,8.4805 l 268.4801,1.6962 19.3238,9.0579 c 23.5492,11.0383 46.5716,33.4025 59.3379,57.6417 l 9.5362,18.106 1.015,112.2179 c 0.9715,107.3673 0.7045,113.0483 -6.1759,131.4372 -8.927,23.8603 -33.7181,51.6538 -58.1401,65.1813 l -18.1124,10.0329 -278.1626,0.7116 c -271.4208,0.6944 -278.5899,0.5462 -295.7953,-6.1077 z m 846.6328,2.4089 c -31.6708,-11.3175 -62.6154,-41.3784 -74.0472,-71.9332 -6.8462,-18.2977 -6.9669,-24.1455 -6.9669,-337.3623 v -318.7421 h 40.6548 40.6548 l 0.8999,313.7165 0.9,313.7165 11.0899,11.0891 11.0902,11.0892 h 260.8628 260.8629 l 8.7591,-8.2285 c 4.8173,-4.5259 10.2744,-13.6849 12.1268,-20.3533 2.1137,-7.6088 3.3753,-125.5229 3.3872,-316.5772 l 0.034,-304.4523 h 40.7735 40.7739 l -0.9152,321.4871 -0.9149,321.487 -11.1285,22.6027 c -13.5978,27.6182 -37.8057,50.4547 -63.7918,60.1771 -18.2275,6.8201 -24.363,6.9639 -290.7193,6.8181 -213.5874,-0.1154 -274.7377,-1.092 -284.371,-4.5344 z m 763.6502,-360.0312 v -364.7149 l 323.1097,0.8986 323.109,0.8983 16.962,8.3353 c 22.758,11.1846 45.731,34.8253 57.872,59.5526 l 9.972,20.3099 v 137.3852 137.3852 l -9.75,21.1078 c -11.51,24.9192 -38.181,51.8145 -62.196,62.7192 -14.495,6.5816 -23.985,7.5836 -87.782,9.2675 l -71.531,1.8878 109.747,128.9046 c 60.361,70.8975 111.303,131.576 113.204,134.841 3.237,5.5561 -0.08,5.9214 -51.785,5.7023 l -55.243,-0.2341 -113.165,-135.4549 -113.166,-135.455 h -153.972 -153.972 v 135.689 135.6891 h -40.707 -40.7067 z m 635.1407,-1.3644 11.078,-9.8951 0.972,-120.635 c 0.835,-103.7438 0.234,-122.0622 -4.298,-130.825 -11.004,-21.2797 -0.149,-20.4812 -278.384,-20.4812 -228.316,0 -254.138,0.5455 -262.607,5.548 -20.316,12.0013 -20.49,13.1934 -20.476,140.8411 0,110.5757 0.359,117.0759 6.806,127.6505 3.737,6.1281 10.218,12.5187 14.404,14.2019 4.273,1.7175 120.303,3.1541 264.519,3.2749 l 256.908,0.2137 11.078,-9.8952 z m 494.471,42.1213 v -323.9576 h -162.827 -162.827 v -42.4028 -42.4029 h 366.36 366.361 v 42.4029 42.4028 h -162.827 -162.827 v 323.9576 323.9576 h -40.707 -40.706 z m 485.088,-42.4028 v -366.3605 h 334.134 334.135 v 42.4029 42.4028 h -293.428 -293.428 v 120.424 120.424 h 235.76 235.76 v 42.4029 42.4028 h -235.76 -235.76 v 120.424 120.424 h 293.428 293.428 v 40.7068 40.7067 h -334.135 -334.134 z m 848.929,356.3367 c -37.608,-17.7919 -62.201,-50.1378 -68.812,-90.5066 -4.672,-28.53 -4.323,-506.6141 0.389,-532.3448 7.197,-39.304 32.527,-71.3952 70.349,-89.125 l 19.251,-9.0247 319.717,-0.9474 319.718,-0.9475 v 42.5023 42.5022 h -312.032 -312.031 l -11.078,9.8975 -11.078,9.8975 -0.911,258.1362 c -0.8,226.6563 -0.275,259.3642 4.298,268.2074 11.045,21.3591 -5.288,20.3631 333.97,20.3631 h 308.862 v 40.7068 40.7067 h -319.718 -319.717 z m 769.163,-356.3367 v -366.3605 h 40.707 40.706 v 162.8269 162.8268 h 291.732 291.731 v -162.8268 -162.8269 h 42.403 42.403 v 366.3605 366.3604 h -42.403 -42.403 v -161.1308 -161.1307 h -291.731 -291.732 v 161.1307 161.1308 h -40.706 -40.707 z M 1811.2229,3584.3089 C 817.84888,2677.7575 4.6557636,1934.9446 4.1270601,1933.6135 c -0.5287036,-1.331 16.6364469,-14.189 38.1447769,-28.5732 147.841333,-98.8726 310.717663,-171.578 478.434883,-213.5659 339.47114,-84.9863 721.59008,-59.3007 1086.30708,73.0204 452.7752,164.269 865.3896,470.5311 1199.8785,890.607 137.2708,172.3949 258.8355,362.6356 370.5448,579.8783 l 36.8842,71.7292 37.221,-46.2537 C 3525.8501,2919.5788 3857.163,2571.7439 4184.311,2281.1709 5451.4279,1155.7171 7066.4034,437.01768 8986.0072,144.31093 9845.5885,13.239501 10778.422,-29.528531 11723.534,18.802405 c 735.67,37.620584 1493.083,131.804595 2151.399,267.525695 140.214,28.90713 312.347,68.72563 300.369,69.4827 -3.246,0.20523 -59.726,-4.93959 -125.513,-11.43268 -985.385,-97.25674 -1893.524,-120.56174 -2706.185,-69.44708 -1310.088,82.40186 -2416.6622,356.78115 -3378.9133,837.81446 -627.4316,313.6556 -1192.7603,708.8258 -1763.6544,1232.8112 -246.4849,226.2317 -519.7416,502.6045 -788.4643,797.4546 -259.1888,284.3892 -473.3675,532.6231 -978.9323,1134.5859 -387.5449,461.4394 -714.737,844.7114 -802.191,939.6843 l -14.0913,15.3026 z m 9983.5481,962.2938 c -263.31,-20.4771 -513.894,-158.9692 -675.696,-373.4406 -36.737,-48.6958 -65.071,-95.5051 -95.919,-158.4625 -66.516,-135.7558 -93.403,-252.444 -93.403,-405.371 0,-213.1794 60.598,-392.3365 192.76,-569.894 38.437,-51.6383 125.704,-138.7703 178.689,-178.4119 187.358,-140.1755 399.162,-204.9015 625.801,-191.2418 139.198,8.3895 245.351,36.5018 366.425,97.039 153.731,76.8659 270.794,180.6603 365.276,323.8727 15.522,23.5276 28.222,44.3579 28.222,46.2894 0,3.6549 -384.266,255.2672 -393.394,257.5892 -3.51,0.8932 -7.168,-3.5305 -11.287,-13.6515 -3.353,-8.2348 -13.817,-28.4392 -23.254,-44.8986 -71.234,-124.2325 -184.366,-211.546 -307.174,-237.0724 -94.915,-19.7286 -202.029,-1.8692 -288.539,48.1089 -42.032,24.2821 -67.004,43.4578 -100.831,77.4258 -56.03,56.2653 -103.06,133.8497 -128.633,212.204 -74.054,226.9029 6.9,477.3221 193.659,599.0579 111.741,72.8366 257.545,91.7024 384.4,49.7386 64.707,-21.405 118.92,-55.5399 171.514,-107.9929 40.737,-40.6284 66.853,-76.9286 92.575,-128.676 l 15.916,-32.0206 196.847,129.4827 c 108.266,71.2154 197.164,131.0091 197.552,132.8748 1.118,5.3862 -49.312,81.5281 -78.635,118.7279 -57.593,73.0632 -149.095,154.9454 -231.105,206.8081 -39.073,24.71 -136.094,72.5028 -179.313,88.3302 -72.451,26.5326 -155.842,44.9361 -237.931,52.509 -34.633,3.1951 -129.31,3.8142 -164.522,1.0756 z m -2179.5058,-3.0241 c -142.3385,-13.9991 -230.6921,-39.1887 -351.8414,-100.3112 -183.2504,-92.4534 -329.4041,-239.999 -422.8461,-426.8717 -70.5532,-141.0982 -98.9756,-272.6942 -94.4233,-437.1809 3.3495,-121.0214 23.4932,-219.7807 65.8157,-322.6777 32.2953,-78.5187 91.6759,-178.9295 143.5335,-242.7112 144.3101,-177.4921 355.8422,-301.1623 576.8858,-337.2703 150.9832,-24.6635 316.7053,-11.0958 438.7695,35.922 43.7591,16.8555 103.9891,48.9813 140.9871,75.201 37.885,26.8481 102.953,88.7184 131.108,124.6652 l 19.926,25.4417 0.891,-122.179 0.89,-122.1789 h 241.367 241.367 l -2.256,491.0247 c -1.241,270.0636 -2.257,679.1661 -2.257,909.1166 v 418.0919 h -239.052 -239.053 l -1.081,-485.9364 -1.082,-485.9364 -7.533,-32.9012 c -23.222,-101.431 -67.92,-182.3386 -141.238,-255.6568 -158.3336,-158.3338 -386.7936,-197.2709 -586.7925,-100.0089 -142.7788,69.435 -243.2711,198.9297 -277.3531,357.3977 -10.7856,50.1497 -10.8226,145.1676 -0.075,194.6351 44.5769,205.1829 203.6639,359.8613 411.1402,399.7471 40.3946,7.7655 109.9397,10.1149 152.602,5.1551 40.7966,-4.743 104.0935,-19.9415 124.8859,-29.9872 7.8255,-3.781 15.0631,-5.5236 16.0835,-3.8726 14.0435,22.7225 177.948,327.2772 177.948,330.6491 0,6.2688 -54.219,41.5958 -98.221,63.9964 -65.4077,33.2984 -137.2133,55.4999 -220.6482,68.2221 -33.9348,5.1745 -167.2425,9.4836 -198.4452,6.4147 z M 7225.4418,3237.8798 V 1960.7067 h 861.6255 861.6254 v 217.1025 217.1025 H 8343.1804 7737.668 V 3454.9823 4515.053 h -256.1131 -256.1131 z m 5610.7422,366.3605 v -910.8127 h 242.544 242.544 v 910.8127 910.8127 h -242.544 -242.544 z m 703.324,343.4629 c 1.241,-312.0424 2.257,-886.0071 2.258,-1275.4771 v -708.1272 h 240.848 240.848 V 3239.576 4515.053 h -243.106 -243.106 z M 7947.1298,3254.841 7829.2645,3019.0813 h 405.368 405.3677 v 235.7597 235.7597 h -287.5028 -287.5023 z m 1466.2979,-764.3646 c 0,-1.5453 38.7942,-95.8068 86.2094,-209.4699 l 86.2093,-206.6602 246.5189,-0.8703 c 135.5856,-0.4787 246.0067,0.425 245.3807,2.0082 -0.626,1.5831 -61.252,96.2362 -134.7239,210.3402 l -133.5859,207.4618 H 9611.432 c -108.9024,0 -198.0043,-1.2644 -198.0043,-2.8098 z m 3422.7563,-312.6672 v -213.7103 h 242.544 242.544 v 213.7103 213.7102 h -242.544 -242.544 z"
       id="path2757" />
  </g>
</svg>
