<?xml version="1.0" encoding="UTF-8" standalone="no"?>
<!-- Created with Inkscape (http://www.inkscape.org/) -->

<svg
   version="1.1"
   id="svg2764"
   width="666.55377"
   height="415.3768"
   viewBox="0 0 666.55377 415.3768"
   sodipodi:docname="logo-alliance.svg"
   inkscape:version="1.2.1 (9c6d41e410, 2022-07-14)"
   xmlns:inkscape="http://www.inkscape.org/namespaces/inkscape"
   xmlns:sodipodi="http://sodipodi.sourceforge.net/DTD/sodipodi-0.dtd"
   xmlns="http://www.w3.org/2000/svg"
   xmlns:svg="http://www.w3.org/2000/svg">
  <defs
     id="defs2768" />
  <sodipodi:namedview
     id="namedview2766"
     pagecolor="#ffffff"
     bordercolor="#000000"
     borderopacity="0.25"
     inkscape:showpageshadow="2"
     inkscape:pageopacity="0.0"
     inkscape:pagecheckerboard="0"
     inkscape:deskcolor="#d1d1d1"
     showgrid="false"
     inkscape:zoom="1.9596665"
     inkscape:cx="333.21996"
     inkscape:cy="207.94355"
     inkscape:window-width="1920"
     inkscape:window-height="1001"
     inkscape:window-x="-9"
     inkscape:window-y="-9"
     inkscape:window-maximized="1"
     inkscape:current-layer="g2770" />
  <g
     inkscape:groupmode="layer"
     inkscape:label="Image"
     id="g2770">
    <path
       style="fill:#ffffff;stroke:none;stroke-width:0.81287"
       d="m 65.029636,273.12447 c 4.724647,-4.04728 7.288603,-10.89165 10.338981,-16.25741 6.014347,-10.57951 12.047471,-21.15089 18.111485,-31.70195 15.373818,-26.75075 30.498898,-53.65188 45.749158,-80.47417 7.10205,-12.49219 17.73359,-25.9956 21.71909,-39.83065 -24.50886,0 -54.32007,-4.995904 -75.596953,9.78615 -34.413764,23.90977 -24.386113,74.2614 -24.386113,110.51867 0,16.15662 -1.671424,32.57091 4.064352,47.95936 m 99.983064,-168.26418 11.15177,21.13463 22.64657,39.83065 61.3075,107.2989 c 4.49111,-5.09588 4.06436,-13.1051 4.06436,-19.50889 v -40.64352 c 0,-36.03861 8.92531,-82.70144 -30.07621,-102.2022 -5.53727,-2.76864 -11.7728,-4.59841 -17.88315,-5.55272 -16.35333,-2.55404 -34.65592,-0.35685 -51.21084,-0.35685 m -3.25148,0.81287 c -16.18425,47.84068 -35.35417,94.98879 -53.18124,142.25233 -4.69514,12.44748 -9.247211,24.94455 -13.942351,37.39204 -1.376189,3.64816 -5.566536,10.61283 -4.561016,14.52355 0.730771,2.83936 5.071499,4.03103 7.467841,4.9325 7.771046,2.92552 15.380326,3.30432 23.573246,3.30432 h 86.16427 c 6.74357,0 24.77303,-0.17883 28.34316,-7.49873 1.62493,-3.33114 -2.23295,-9.6569 -3.40349,-12.82303 -4.51061,-12.20119 -9.05537,-24.38937 -13.60013,-36.57917 -18.05629,-48.43245 -37.86107,-96.55031 -54.42168,-145.50381 h -2.43861 m 208.90771,37.39204 v 66.65538 h 5.69009 V 143.0652 h -5.69009 m 21.13463,0 v 66.65538 h 5.69009 V 143.0652 h -5.69009 m -88.60288,66.65538 h 7.31583 c 1.23069,-4.30497 3.25474,-12.04918 6.82324,-14.95438 4.65612,-3.79042 18.24975,-1.31523 24.06584,-1.30303 2.33863,0.005 5.05768,-0.27475 6.99556,1.30303 3.5685,2.9052 5.59255,10.64941 6.82324,14.95438 h 7.31583 c -2.85561,-16.06801 -13.62777,-32.97328 -20.09334,-47.95936 -1.73223,-4.01558 -3.91316,-14.06754 -9.19276,-14.4634 -5.59092,-0.41945 -7.88972,9.64714 -9.60975,13.65053 -6.55336,15.25758 -17.53849,32.4254 -20.44369,48.77223 m 112.19969,-60.98886 c -5.17879,1.14371 -3.61646,9.05538 1.55746,7.57351 4.48624,-1.28433 3.09379,-8.60179 -1.55746,-7.57351 m -82.12349,6.52654 13.00593,32.51481 h -26.82472 c 2.69791,-9.86337 7.38736,-24.55437 13.81879,-32.51481 m 99.1702,17.88315 v 0.81287 c 7.4654,5.90956 20.06327,-8.39614 25.82652,4.8886 0.7958,1.83546 0.90716,3.71563 0.9982,5.67871 -4.81788,0 -9.89425,-0.4609 -14.63166,0.54381 -2.75889,0.58527 -5.69416,1.40789 -8.11651,2.89057 -19.4146,11.88091 12.45073,35.12169 21.9353,15.26164 h 0.81287 l 0.81288,6.50297 h 5.69009 c -0.79011,-10.01457 1.78913,-23.95286 -1.60136,-33.32769 -4.6927,-12.97504 -23.20501,-10.23485 -31.72633,-3.25148 m 50.39797,0.81287 c -0.26175,-4.7179 -1.9639,-5.63563 -6.50297,-5.6901 v 27.6376 l 0.49017,11.93456 6.0128,1.88424 c 0,-8.74161 -2.55648,-22.29785 1.92406,-30.07296 3.66849,-6.36559 13.47414,-9.89914 18.67977,-3.16613 6.00873,7.77023 2.96941,23.99187 2.96941,33.23909 h 5.69009 c 0,-10.15845 2.31994,-23.65372 -1.01527,-33.32769 -4.49274,-13.0295 -20.44857,-9.83248 -28.24806,-2.43861 m 75.59695,30.0762 v -0.81287 c -6.2274,-4.76911 -11.22899,3.54737 -18.69602,1.4843 -14.68288,-4.05866 -15.26652,-26.44999 -0.81287,-31.35729 7.74828,-2.63045 13.11566,6.31845 19.50889,1.42253 -20.06164,-27.16044 -56.4254,20.58838 -24.38611,34.17713 3.55305,1.50707 7.56213,1.82002 11.38018,1.51357 5.2292,-0.42107 9.22446,-2.98649 13.00593,-6.42737 m 43.08213,-1.62574 v -0.81287 l -4.06435,-3.25148 h -0.81287 c -9.8715,9.63983 -26.21263,8.06855 -27.63759,-8.1287 h 34.14055 c -0.052,-6.3217 -1.29246,-12.9531 -5.95752,-17.61572 -9.6569,-9.65365 -26.81416,-5.45843 -32.51563,6.23553 -12.01342,24.63892 19.16017,40.84511 36.84741,23.57324 M 412.93819,168.26418 v 41.4564 h 5.69009 v -41.4564 h -5.69009 m 183.70872,17.88315 h -27.63759 c 0.90553,-17.41818 26.81578,-17.94655 27.63759,0 m -137.37511,3.25148 c -0.008,3.03608 0.0691,6.1323 -1.27864,8.94077 -2.98323,6.22008 -12.16542,9.71868 -18.04491,5.09913 -5.07394,-3.98631 -1.97772,-10.60958 3.0694,-12.56454 1.80132,-0.69825 3.76846,-1.12826 5.68684,-1.33392 3.4799,-0.37473 7.07116,-0.14144 10.56731,-0.14144 m -99.98306,60.96529 h -21.13463 v 4.87722 c 3.68799,0 10.38442,-1.28352 13.5603,0.83563 3.69938,2.46869 2.9556,17.84332 0,20.70625 -5.50801,5.33568 -17.45964,5.52346 -24.12762,2.90357 -22.90181,-8.99685 -23.33913,-43.67552 0.81287,-51.59695 10.19258,-3.34333 17.45965,1.1494 26.01186,6.01687 l 3.25148,-3.25148 c -3.98144,-8.33761 -14.64874,-8.95458 -22.76037,-8.94158 -21.31591,0.0341 -32.26852,17.67506 -30.81592,37.39204 1.41033,19.13091 18.81145,27.2271 35.69314,26.81254 5.11702,-0.12519 14.56582,-1.364 18.20586,-5.39259 1.91268,-2.11752 1.30303,-5.7917 1.30303,-8.41402 v -21.9475 m 18.69602,0.81287 v -7.31583 h -4.87722 v 41.45639 h 4.87722 c 0,-14.77067 -3.52948,-36.56535 17.07028,-36.57917 l 0.81287,-4.87722 c -7.96694,-2.35001 -12.68322,2.01266 -17.88315,7.31583 m 36.57917,-7.77186 c -27.62865,4.30659 -21.24112,46.69291 6.50296,42.36844 27.77335,-4.32854 21.41182,-46.71892 -6.50296,-42.36844 m 87.79001,7.77186 h -0.81287 l -0.81287,-7.31583 -4.87722,0.81287 v 65.8425 h 5.69009 v -32.51482 c 3.41812,4.00502 6.97768,6.47289 12.19306,7.5849 3.81642,0.81368 7.64504,0.38367 11.38018,-0.66981 3.67743,-1.03722 7.00288,-3.17669 9.43743,-6.13473 7.40931,-9.00417 6.32982,-23.95367 -2.94666,-31.23699 -8.23681,-6.46638 -23.83824,-6.32494 -29.25114,3.63191 m -53.64945,-7.31583 c 0,14.10736 -4.48623,50.78408 21.13463,40.99874 3.4165,-1.30466 5.9876,-3.99119 8.94158,-6.04532 v 6.50297 h 4.87722 v -41.45639 h -4.87722 c -2.75401,9.3163 2.44511,21.4679 -2.62395,30.07295 -5.03086,8.54002 -17.8295,10.03651 -21.23136,-0.80962 -2.89545,-9.23096 1.41195,-19.94052 -1.34368,-29.26333 h -4.87722 m -34.14056,4.33178 c 20.72657,-3.701 26.63533,29.1975 6.50296,32.79282 -20.68592,3.69368 -26.38252,-29.24301 -6.50296,-32.79282 m 99.98307,0 c 20.70543,-3.63109 26.51664,29.21863 6.50296,32.79282 -21.30777,3.80424 -27.97575,-29.0276 -6.50296,-32.79282 z"
       id="path2774" />
  </g>
</svg>
