<?xml version="1.0" encoding="UTF-8" standalone="no"?>
<!-- Created with Inkscape (http://www.inkscape.org/) -->

<svg
   version="1.1"
   id="svg339"
   width="1280"
   height="292"
   viewBox="0 0 1280 292"
   sodipodi:docname="logo_lemonade_carrier.svg"
   inkscape:version="1.2.1 (9c6d41e410, 2022-07-14)"
   xmlns:inkscape="http://www.inkscape.org/namespaces/inkscape"
   xmlns:sodipodi="http://sodipodi.sourceforge.net/DTD/sodipodi-0.dtd"
   xmlns="http://www.w3.org/2000/svg"
   xmlns:svg="http://www.w3.org/2000/svg">
  <defs
     id="defs343" />
  <sodipodi:namedview
     id="namedview341"
     pagecolor="#ffffff"
     bordercolor="#000000"
     borderopacity="0.25"
     inkscape:showpageshadow="2"
     inkscape:pageopacity="0.0"
     inkscape:pagecheckerboard="0"
     inkscape:deskcolor="#d1d1d1"
     showgrid="false"
     inkscape:zoom="1.1046875"
     inkscape:cx="640"
     inkscape:cy="146.19519"
     inkscape:window-width="1920"
     inkscape:window-height="1001"
     inkscape:window-x="-9"
     inkscape:window-y="-9"
     inkscape:window-maximized="1"
     inkscape:current-layer="g345" />
  <g
     inkscape:groupmode="layer"
     inkscape:label="Image"
     id="g345">
    <path
       style="fill:#ffffff;stroke:none"
       d="m 1067,122 c -42.97,-10.229 -74.212,29.629 -82.575,67 -2.603,11.633 1.932,30.569 -4.484,39.999 -7.563,11.118 -22.835,17.092 -28.191,1.001 -5.252,-15.779 -4.402,-38.579 -2.464,-55 1.255,-10.637 1.708,-21.367 3.138,-32 0.862,-6.408 3.349,-14.594 2.333,-20.999 C 952.473,107.595 927.742,110.734 927,125 c -10.986,-3.141 -20.245,-6.379 -32,-4.7 -31.195,4.457 -53.601,36.259 -61.116,64.7 -5.056,19.137 -0.463,52.914 -25.884,58.467 -15.717,3.433 -20.134,-17.14 -20.911,-28.467 -1.871,-27.309 11.147,-53.144 10.166,-80 -0.789,-21.596 -17.397,-25.881 -34.255,-14.226 -5.038,3.483 -9.667,7.637 -13.714,12.226 -6.957,7.889 -13.298,16.064 -18.861,25 -7.488,12.028 -16.127,26.116 -19.425,40 h -1 c 0.685,-15.946 3.624,-32.264 6.247,-48 1.202,-7.215 4.195,-16.836 1.949,-23.999 -3.215,-10.254 -15.84,-11.168 -23.156,-4.776 C 686.623,128.578 683.463,143.245 683,154 669.319,145.442 658.712,133.165 644,125.809 608.411,108.014 563.491,113.55 541.229,149 c -8.57,13.647 -14.029,29.878 -15.14,46 -0.558,8.105 2.667,19.517 -0.087,27 -3.597,9.773 -13.976,20.065 -25.002,18.89 -13.366,-1.424 -14.983,-19.494 -15,-29.89 -0.038,-23.897 4.316,-48.339 7.424,-72 1.392,-10.596 1.588,-22.448 -11.424,-24.671 -11.907,-2.034 -19.196,8.173 -25.29,16.671 -10.696,14.916 -20.473,30.406 -30.134,46 -5.616,9.063 -12.676,19.339 -14.576,30 h -1 c 2.661,-20.942 7.724,-41.371 11.997,-62 1.544,-7.455 4.6,-18.98 -0.006,-25.892 -7.176,-10.767 -22.361,-3.083 -28.82,3.907 C 382.634,135.498 374.705,151.523 366,166 c -5.8,9.646 -13.196,18.844 -18,29 h -1 c 1.386,-10.97 2.714,-21.998 3.95,-33 1.178,-10.484 7.267,-27.944 3.308,-37.985 -3.94,-9.992 -21.058,-7.563 -26.033,0.079 -10.481,16.098 -12.046,42.319 -14.798,60.906 -0.87,5.882 -0.243,13.565 -2.861,18.961 -3.754,7.739 -15.431,14.125 -22.566,18.438 -22.494,13.597 -59.115,28.743 -77,0.601 27.743,-11.954 67.674,-36.871 70.829,-70 0.462,-4.859 -0.368,-10.385 -1.933,-15 -12.139,-35.803 -58.632,-25.849 -79.892,-5.91 -35.288,33.095 -41.59,112.597 11.996,131.82 35.289,12.659 72.769,-8.682 97,-32.91 0,8.191 -1.969,19.371 1.367,26.996 4.585,10.481 20.677,12.255 28.101,3.816 9.898,-11.253 14.894,-30.451 21.79,-43.812 11.636,-22.543 30.12,-45.914 37.742,-70 h 1 c -3.94,29.258 -13.245,58.262 -13.985,88 -0.204,8.175 -3.477,23.235 4.325,28.991 7.442,5.489 22.822,1.631 27.243,-6.031 9.466,-16.406 13.375,-37.455 20.844,-54.96 8.248,-19.329 21.814,-39.009 27.573,-59 h 1 c -3.853,30.464 -12.868,65.579 -4.844,96 6.86,26.01 34.098,31.369 54.844,16.961 7.203,-5.003 12.295,-11.426 18,-17.961 8.022,33.463 56.297,34.646 80,19.301 35.505,-22.985 41.674,-85.047 18,-118.301 13.775,4.691 26.153,12.437 37,22.05 3.686,3.267 9.216,6.624 9.812,11.95 0.777,6.935 -1.948,15.057 -2.643,22 -1.44,14.394 -2.17,28.525 -2.169,43 10e-4,9.665 0.988,22.738 12,26.196 17.362,5.452 21.495,-13.416 27.245,-25.196 13.578,-27.819 28.592,-66.569 54.755,-85 -0.082,29.619 -14.723,63.185 -1.687,92 12.317,27.225 54.554,23.5 66.687,-2 6.14,7.028 12.185,13.825 21,17.535 25.616,10.784 60.076,-1.328 72,-26.535 3.506,6.976 4.751,14.863 10.468,20.671 18.403,18.699 41.909,-0.222 54.532,-14.671 18.18,38.213 75.89,26.902 92,-7 h 1 c 11.03,23.589 34.73,32.812 59,24.644 5.79,-1.948 16.37,-11.391 21.91,-10.762 4.97,0.564 11.16,9.258 16.09,11.625 15.73,7.557 35.95,7.521 52,1.04 15.2,-6.14 29.17,-16.901 39.54,-29.547 3,-3.671 10.4,-12.528 5.71,-17.397 -6.85,-7.12 -24.54,11.547 -30.25,14.944 -19.96,11.876 -40.77,13.535 -58,-3.547 12.65,-4.796 24.59,-15.349 35,-23.804 8.87,-7.205 17.66,-15.808 24.23,-25.196 17.53,-25.044 8.42,-62.432 -26.23,-63.961 -31.17,-1.374 -58.28,20.782 -69.19,48.961 -5.2,13.434 -7.03,28.663 -5.64,43 0.64,6.662 4.52,14.454 4.05,20.985 -0.89,12.159 -26.79,12.526 -34.22,8.01 -15.27,-9.287 -18.76,-35.461 -10.58,-49.995 21.5,-38.168 43.45,-80.353 45.62,-125 0.77,-15.9058 0.79,-33.6255 -9.57,-46.9992 C 1126.64,-8.73953 1098.33,0.602356 1084.16,20 1063.18,48.7108 1067,88.3841 1067,122 m -961,10 c -1.121,26.1 -5.752,54.637 -12,80 -12.081,-4.532 -26.2298,-5.061 -39,-4.999 -8.9133,0.043 -18.6015,1.374 -27,4.435 -23.67701,8.631 -39.6322,40.058 -16.9853,59.235 C 39.0305,294.396 111.634,284.323 119,243 c 17.947,6.571 33.125,23.637 47,36.17 3.679,3.323 11.789,13.676 17.682,12.013 4.047,-1.142 1.595,-7.799 0.519,-10.183 -3.883,-8.604 -10.517,-15.928 -16.626,-23 -7.907,-9.153 -16.922,-17.805 -26.575,-25.102 -4.146,-3.134 -12.509,-6.38 -14.883,-11.108 -2.846,-5.668 2.579,-18.723 3.633,-24.79 3.551,-20.438 8.822,-42.247 9.25,-63 37.084,-4.691 63.096,-28.752 72.37,-65 C 219.294,38.0321 208.102,2.09131 171,3.01465 133.333,3.95209 120.436,51.3928 113.651,81 c -1.594,6.9571 -1.261,25.53 -6.393,30.356 C 104.097,114.328 96.2908,110.327 93,108.985 82.7031,104.788 73.381,98.0357 66.7847,89 64.195,85.4525 60.6507,78.1376 55.0586,79.7122 45.0506,82.5302 55.0537,100.417 58.1049,105 68.1207,120.043 88.1162,130.539 106,132 m 993,26 c -4.1,-8.53 -3,-22.607 -3,-32 0,-23.495 -1.07,-46.9092 4.01,-70 1.98,-8.9709 7.88,-30.8137 20.98,-27.5509 11.24,2.8026 10.68,24.7444 9.84,33.5509 -3.24,33.9158 -19.71,64.766 -31.83,96 M 142,113 c 2.238,-12.014 3.67,-24.1149 6.627,-36 1.85,-7.439 3.784,-14.7935 6.426,-22 4.042,-11.0205 21.185,-38.2775 32.505,-16.9961 3.966,7.4562 2.921,18.0497 1.231,25.9961 -4.747,22.3322 -21.473,48.461 -46.789,49 m 1042,92 c -0.18,-21.278 -1.42,-42.259 15.17,-58.826 6.64,-6.632 18.92,-12.946 27.73,-6.471 8.13,5.982 4.92,17.002 0.76,24.297 -8.68,15.233 -27.35,34.103 -43.66,41 m -979,-4 c 0,-21.113 4.449,-40.325 21,-54.815 6.185,-5.415 17.998,-12.051 25.66,-5.532 7.54,6.415 4.048,17.642 -0.82,24.347 -9.609,13.239 -29.018,33 -45.84,36 m 386,-59.671 c 16.113,-2.883 24.165,10.78 26.996,24.671 4.617,22.649 0.078,72.611 -28.996,77.671 C 572.278,246.582 561.287,231.684 558.616,217 554.395,193.799 561.953,146.527 591,141.329 M 1069,142 c 0.04,15.325 2.34,30.689 3.04,46 0.8,17.654 -3.9,34.321 -18.08,46.674 -8.63,7.516 -22.47,10.041 -30.57,0.283 -8.02,-9.658 -6.8,-23.381 -5.56,-34.957 2.89,-26.938 17.49,-64.254 51.17,-58 m -160,0.301 c 19.067,-2.81 13.777,14.729 12,27.699 -2.91,21.241 -8.422,68.186 -36,71.295 C 865.493,243.494 863.11,221.299 864.089,207 865.866,181.064 879.604,146.633 909,142.301 M 89,231 c -5.2818,18.334 -22.1094,26.209 -40,25.996 -7.2171,-0.086 -17.8157,-1.988 -21.5432,-9.039 -4.7012,-8.893 4.1225,-15.9 11.5432,-18.725 14.9494,-5.691 35.4566,-4.669 50,1.768 z"
       id="path349" />
  </g>
</svg>
