<?xml version="1.0" encoding="UTF-8" standalone="no"?>
<!-- Created with Inkscape (http://www.inkscape.org/) -->

<svg
   version="1.1"
   id="svg322"
   width="12980.282"
   height="7301.4087"
   viewBox="0 0 12980.282 7301.4087"
   sodipodi:docname="Progressive-logo-grande.svg"
   inkscape:version="1.2.1 (9c6d41e410, 2022-07-14)"
   xmlns:inkscape="http://www.inkscape.org/namespaces/inkscape"
   xmlns:sodipodi="http://sodipodi.sourceforge.net/DTD/sodipodi-0.dtd"
   xmlns="http://www.w3.org/2000/svg"
   xmlns:svg="http://www.w3.org/2000/svg">
  <defs
     id="defs326" />
  <sodipodi:namedview
     id="namedview324"
     pagecolor="#ffffff"
     bordercolor="#000000"
     borderopacity="0.25"
     inkscape:showpageshadow="2"
     inkscape:pageopacity="0.0"
     inkscape:pagecheckerboard="0"
     inkscape:deskcolor="#d1d1d1"
     showgrid="false"
     inkscape:zoom="0.054467229"
     inkscape:cx="716.02688"
     inkscape:cy="2212.3395"
     inkscape:window-width="1920"
     inkscape:window-height="1001"
     inkscape:window-x="-9"
     inkscape:window-y="-9"
     inkscape:window-maximized="1"
     inkscape:current-layer="g328" />
  <g
     inkscape:groupmode="layer"
     inkscape:label="Image"
     id="g328">
    <path
       style="fill:#ffffff;stroke:none;stroke-width:3.38028"
       d="m 3420.8452,2880.0001 v 13.5211 h -60.8451 v 13.5212 h -43.9437 c -1.707,13.0715 -16.1104,10.1408 -27.0422,10.1408 v 13.5211 l -10.1409,10.1409 h -3.3803 v -6.7606 h -3.3802 l 3.3802,10.1409 h -23.6619 v 13.5211 h -13.5212 v 13.5211 h -23.6619 v 13.5211 h -13.5212 v 10.1409 h -13.5211 v 13.5211 h -13.5211 v 27.0423 h -13.5211 v 13.5211 h -13.5212 v 13.5211 h -10.1408 v 23.662 h -13.5211 v 27.0422 h -13.5212 v 23.662 l -3.3803,3.3803 -6.7605,-3.3803 -3.3803,27.0423 c -15.4918,0.8112 -13.4738,14.089 -13.5211,27.0422 h -13.5212 v 27.0423 h -10.1408 v 23.662 h -13.5211 v 27.0422 h -13.5212 v 27.0423 h -13.5211 v 23.6619 h -13.5211 v 27.0423 h -13.5211 v 27.0422 h -10.1409 l -3.3803,37.1831 h -3.3802 v -10.1408 h -3.3803 l -3.3803,37.1831 h -13.5211 v 23.662 h -13.5212 v 27.0422 h -13.5211 v 27.0423 h -13.5211 v 23.662 h -10.1409 v 27.0422 h -13.5211 v 27.0423 h -13.5211 v 23.6619 h -13.5211 v 30.4226 l -13.5212,-3.3803 c 0.5274,12.9465 0.1758,25.8591 -13.5211,30.4225 l 6.7606,6.7606 -6.7606,27.0422 h -10.1408 v 27.0423 h -13.5212 v 27.0422 h -13.5211 v 23.662 h -13.5211 v 27.0423 h -13.5211 v 27.0422 h -13.5212 v 23.662 h -10.1408 v 27.0423 h -13.5211 v 27.0422 h -13.5212 c 0,13.2507 3.7826,29.6789 -6.7605,27.0423 l 6.7605,10.1408 -10.1408,-3.3803 -3.3803,30.4226 h -13.5211 v 23.6619 h -13.5212 c 0,10.5127 2.5454,25.1831 -10.1408,27.0423 v 40.5634 h -13.5211 v 50.7042 h -13.5212 v 128.4507 h 13.5212 v 40.5634 h 13.5211 v 23.662 h 10.1408 v 13.5211 h 13.5212 v 13.5211 h 13.5211 v 13.5211 h 13.5211 v 13.5212 h 27.0423 v 13.5211 h 23.662 v 10.1408 l 30.4225,3.3803 -3.3803,10.1409 h 50.7042 v 13.5211 h 162.2536 331.2676 v -13.5211 h 64.2253 v -13.5212 h 50.7043 v -10.1408 h 27.0422 v -13.5211 h 37.1831 l -3.3803,-10.1409 16.9014,-3.3803 v -13.5211 h 27.0423 v -13.5211 h 13.5211 v -13.5211 h 13.5211 l 10.1409,-10.1409 v -13.5211 c 10.0394,-1.724 13.0479,-3.2451 13.5211,-13.5211 h 13.5211 v -13.5212 h 13.5212 v -13.5211 h 13.5211 v -13.5211 h 13.5211 v -23.662 h 10.1409 v -13.5211 h 13.5211 v -27.0423 h 13.5211 v -23.6619 h 13.5211 v -27.0423 h 13.5212 v -27.0423 h 13.5211 v -23.6619 h 10.1408 v -27.0423 h 13.5212 v -27.0422 h 13.5211 v -23.662 h 13.5211 v -27.0423 h 13.5212 l 3.3802,-30.4225 10.1409,3.3803 v -33.8028 h 3.3803 v 10.1408 h 3.3802 l -3.3802,-13.5211 6.7605,-27.0423 h 13.5212 v -27.0422 h 13.5211 v -23.662 h 13.5211 v -27.0423 h 13.5211 v -27.0422 h 13.5212 v -23.662 h 10.1408 v -27.0422 h 13.5211 v -37.1831 h 13.5212 v -27.0423 h 13.5211 v -27.0422 h 13.5211 v -23.662 h 13.5211 v -27.0423 h 10.1409 v -27.0422 h 13.5211 v -23.662 h 13.5211 c 0.1353,-12.169 -0.676,-24.9465 13.5212,-27.0422 v -40.5634 h 13.5211 v -23.662 h 13.5211 v -27.0423 h 10.1409 v -27.0422 h 13.5211 v -23.662 h 13.5211 v -27.0422 h 13.5212 v -30.4226 l 13.5211,3.3803 6.7605,-33.8028 -6.7605,3.3803 v -3.3803 l 13.5211,-3.3803 v -27.0422 h 10.1409 c 0.034,-10.053 -1.555,-21.9448 10.1408,-23.662 l 3.3803,-3.3803 v -50.7042 h 13.5211 v -155.493 h -13.5211 v -23.662 h -13.5211 v -13.5211 h -10.1409 v -27.0422 l -16.9014,-13.5212 h -3.3803 l 3.3803,13.5212 h -10.1408 v -3.3803 l 3.3802,-10.1409 h -16.9014 v -13.5211 l -20.2817,-10.1408 h -30.4225 v -13.5212 h -54.0845 v -13.5211 h -567.8873 m 1321.6901,0 v 13.5211 l -104.7887,13.5212 v 10.1408 h -27.0423 v 13.5211 h -23.6619 v 13.5212 h -27.0423 v 13.5211 h -13.5211 v 13.5211 h -23.662 l 3.3803,13.5211 h -16.9014 v 10.1409 h -13.5211 v 13.5211 h -13.5212 v 13.5211 h -13.5211 v 13.5212 h -13.5211 l -10.1409,13.5211 v 23.662 h -13.5211 v 13.5211 h -13.5211 v 27.0422 h -13.5212 v 27.0423 h -13.5211 v 23.662 h -13.5211 v 27.0422 h -10.1409 v 27.0423 h -13.5211 v 23.662 h -13.5211 c 0,10.5228 2.5352,25.1831 -10.1409,27.0422 l -3.3802,3.3803 v 33.8028 h -13.5212 v 27.0423 h -13.5211 v 27.0422 h -10.1408 v 23.662 h -13.5212 v 27.0422 h -13.5211 v 27.0423 h -13.5211 v 23.662 h -13.5211 v 27.0422 h -13.5212 v 40.5634 h -3.3803 v -13.5211 h -3.3802 l -3.3803,37.1831 H 4198.31 v 27.0422 h -13.5212 v 27.0423 h -13.5211 v 23.662 h -13.5211 v 27.0422 h -13.5211 v 27.0423 h -10.1409 v 23.6619 h -13.5211 v 27.0423 h -13.5211 c 0,10.5127 2.5352,25.1831 -10.1409,27.0422 l -3.3803,3.3803 v 33.8028 h -3.3803 l -3.3802,-13.5211 h -3.3803 l 3.3803,13.5211 -6.7606,27.0423 h -13.5211 v 23.662 h -10.1409 v 27.0422 h -13.5211 v 27.0423 h -13.5211 v 23.662 h -13.5212 v 27.0422 h -13.5211 l -3.3803,30.4225 -10.1408,-3.3802 v 37.1831 h -10.1409 v 40.5633 h -13.5211 v 37.1831 h -13.5211 v 3.3803 l 6.7606,3.3803 -6.7606,37.1831 v 98.0282 h 13.5211 v 40.5634 h 13.5211 v 27.0422 l 10.1409,10.1409 h 13.5211 v 13.5211 h 13.5211 v 13.5211 h 13.5212 v 13.5211 h 13.5211 v 13.5212 h 23.662 l -3.3803,13.5211 h 30.4225 v 10.1408 c 13.9268,0 36.5409,-4.1915 33.8028,6.7606 l 6.7606,-3.3803 -3.3803,10.1409 h 54.0845 v 13.5211 h 517.1831 v -13.5211 h 64.2254 v -13.5212 h 40.5634 v -10.1408 h 27.0422 v -13.5211 h 23.662 v -13.5212 h 13.5211 v -13.5211 h 13.5212 v -13.5211 h 13.5211 v -13.5211 l 10.1408,-10.1409 h 13.5212 v -13.5211 h 13.5211 v -13.5211 h 13.5211 v -27.0423 h 13.5211 v -13.5211 h 13.5212 v -23.662 h 10.1408 v -27.0422 h 13.5211 v -27.0423 h 13.5212 v -23.662 h 13.5211 v -27.0422 h 13.5211 v -30.4226 l 13.5211,3.3803 v -37.1831 h 10.1409 v -27.0422 h 13.5211 v -23.662 h 13.5211 v -27.0423 h 13.5212 c 0.1352,-12.169 -0.6761,-24.9464 13.5211,-27.0422 v -37.1831 h 13.5211 v -27.0423 h 10.1409 v -27.0422 h 13.5211 v -23.662 h 13.5211 v -27.0423 h 13.5212 v -37.1831 h 13.5211 v -27.0422 h 13.5211 v -27.0423 h 10.1409 v -23.6619 h 13.5211 v -27.0423 h 13.5211 c 0,-13.2507 -3.7859,-29.6789 6.7606,-27.0422 l -6.7606,-13.5212 13.5211,10.1409 -6.7605,-6.7606 6.7605,-27.0422 h 13.5212 v -27.0423 h -172.3944 -358.3099 v 13.5211 h -13.5211 v 13.5212 h -13.5211 c -0.034,10.0394 1.5549,21.938 -10.1409,23.6619 l -3.3803,3.3803 v 37.1831 c -15.4816,0.8113 -13.4873,14.0958 -13.5211,27.0423 H 4678.31 v 23.6619 h -13.5212 v 27.0423 h -13.5211 v 27.0422 h -13.5211 v 23.662 h -13.5211 v 40.5634 h 172.3943 l -3.3802,37.1831 h -13.5212 v 27.0423 h -13.5211 v 27.0422 h -10.1408 v 37.1831 h -13.5212 v 27.0423 h -13.5211 v 23.6619 h -13.5211 v 27.0423 h -13.5212 v 27.0422 h -13.5211 v 23.662 H 4678.31 v 27.0423 h -13.5212 v 13.5211 h -27.0422 v 13.5211 h -297.4648 v -13.5211 h -13.5211 v -77.7465 h 13.5211 v -27.0422 h 13.5211 v -23.662 h 13.5211 v -27.0423 h 10.1409 v -27.0422 h 13.5211 v -30.4226 l 10.1409,6.7606 v -10.1408 h -10.1409 v -3.3803 h 13.5211 v -27.0423 h 13.5212 v -27.0422 h 13.5211 v -23.662 h 13.5211 v -27.0423 h 10.1409 v -27.0422 h 13.5211 v -23.662 h 13.5211 v -27.0422 h 13.5212 v -27.0423 h 13.5211 v -23.662 h 13.5211 l 10.1409,-27.0422 v -37.1831 h 13.5211 v -27.0423 h 13.5211 v -27.0422 h 13.5211 v -23.662 h 13.5212 v -27.0422 h 13.5211 v -27.0423 h 10.1408 v -23.662 h 13.5212 v -27.0422 h 13.5211 v -27.0423 h 13.5211 v -23.662 h 13.5211 v -27.0422 h 13.5212 v -40.5634 h 10.1408 v -23.662 h 13.5211 v -27.0422 h 13.5212 v -27.0423 h 13.5211 v -23.6619 h 13.5211 v -13.5212 h 13.5212 v -27.0422 h 13.5211 l -3.3803,-13.5212 h 40.5634 c 2.2986,-17.4862 46.5803,-10.1408 60.845,-10.1408 h 196.0564 v 10.1408 h 27.0422 v 67.6057 h -13.5211 v 23.662 h -13.5211 v 40.5633 h -10.1409 v 23.662 h -13.5211 v 27.0423 h -13.5211 v 27.0422 h -13.5211 v 23.662 h -13.5212 v 27.0422 h 338.0282 v -13.5211 h 13.5211 v -23.662 h 13.5212 v -27.0422 h 10.1408 v -27.0423 h 13.5211 v -30.4225 l 10.1409,6.7606 3.3803,-40.5634 h 13.5211 v -27.0423 h 13.5211 c 0.3719,-11.5538 0.5747,-21.7386 13.5212,-23.6619 v -40.5634 h 10.1408 v -64.2254 h 13.5211 v -64.2253 l -13.5211,3.3802 v -43.9436 h -10.1408 v -23.662 h -13.5212 v -13.5211 h -13.5211 v -13.5211 h -13.5211 v -13.5212 h -13.5212 v -13.5211 h -23.6619 v -10.1408 h -40.5634 v -13.5212 h -57.4648 c -10.8845,-27.0828 -98.6366,-13.5211 -125.0704,-13.5211 h -398.8733 m 523.9437,0 6.7606,6.7606 -6.7606,-6.7606 m 3113.2395,0 3.3803,13.5211 h -104.7887 v 13.5212 h -54.0846 v 10.1408 h -37.1831 v 13.5211 h -27.0422 v 13.5212 h -23.662 v 13.5211 h -13.5211 v 13.5211 h -27.0423 l -13.5211,13.5211 -10.1408,10.1409 v 13.5211 h -13.5212 l -6.7605,27.0423 3.3803,-10.1409 h -3.3803 l -6.7606,23.662 h -13.5211 v 13.5211 h -13.5211 v 23.662 h -13.5212 v 40.5634 h -10.1408 v 37.1831 c -22.2423,1.1662 -13.5211,47.4186 -13.5211,64.2253 h -13.5212 v 169.0141 h 13.5212 v 84.5071 212.9577 h 3.3802 l 3.3803,-6.7606 v 6.7606 h 3.3803 v -6.7606 h 3.3803 v 283.9437 c 0,16.4282 8.5859,85.1493 -10.1409,87.8873 l -3.3802,3.3803 v 20.2817 h -13.5212 v 27.0423 h -27.0422 v 13.5211 h -23.662 v 13.5211 h -351.5493 v 13.5212 h -13.5211 v 23.6619 h -13.5212 l -10.1408,27.0423 v 37.1831 h -13.5211 v 27.0422 h -13.5212 v 27.0423 h -13.5211 v 23.662 h -13.5211 v 27.0422 h -13.5211 v 27.0423 h -10.1409 v 50.7042 c 160.1578,0 327.3465,-13.9268 486.7606,0 l 3.3803,-3.3803 -3.3803,-6.7605 81.1268,-3.3803 v -13.5212 h 54.0845 v -10.1408 h 23.6619 v -13.5211 h 30.4226 l -3.3803,-13.5212 h 23.662 v -13.5211 h 27.0422 v -13.5211 h 13.5211 v -13.5211 h 13.5212 v -10.1409 h 13.5211 v -13.5211 h 10.1408 v -13.5211 h 13.5212 v -13.5212 h 13.5211 v -13.5211 h 13.5211 v -13.5211 h 13.5212 v -23.662 h 13.5211 v -27.0422 h 10.1408 v -27.0423 h 13.5212 v -37.1831 h 13.5211 v -50.7042 h 13.5211 l 3.3803,-94.6479 10.1408,3.3803 v -104.7888 h -13.5211 l -3.3803,-233.2394 h -3.3803 l -6.7605,13.5211 v -74.3662 -185.9155 l -13.5211,3.3803 v -145.3521 h 13.5211 v -37.1831 h 13.5211 v -13.5211 h 13.5211 v -13.5212 h 13.5212 v -13.5211 h 10.1408 v -13.5211 h 43.9437 l -3.3803,-13.5212 h 297.4648 v -27.0422 l 13.5211,3.3803 v -40.5634 h 13.5211 v -23.662 h 13.5212 v -27.0422 h 10.1408 v -27.0423 h 13.5211 v -23.662 h 13.5212 v -27.0422 h 13.5211 v -27.0423 h 13.5211 l 10.1409,-23.6619 h 3.3802 v -13.5212 h -13.5211 v -13.5211 h -297.4648 -145.3521 m 848.4507,0 3.3803,13.5211 h -98.0282 l 3.3803,10.1409 -57.4648,3.3803 v 10.1408 h -23.6619 v 13.5211 h -40.5634 v 13.5212 h -13.5211 v 13.5211 h -23.662 v 13.5211 h -13.5211 v 13.5211 c -9.6676,0.7065 -13.5212,0.5848 -13.5212,10.1409 h -27.0422 v 27.0422 h -10.1409 v 13.5212 h -13.5211 v 13.5211 h -13.5211 v 23.662 h -13.5212 v 23.6619 l -3.3802,3.3803 -6.7606,-3.3803 -3.3803,30.4226 h -13.5211 v 37.1831 h -10.1409 v 77.7465 h -3.3802 l -3.3803,-13.5212 h -3.3803 l 3.3803,13.5212 -6.7606,37.1831 3.3803,104.7887 6.7606,-6.7606 h 3.3802 l 0.1015,280.5634 9.6676,23.7634 0.3718,131.7296 v 104.7887 l 6.7606,37.1831 v 3.3803 l -6.7606,10.1408 h 3.3803 l 6.7605,-13.5211 h 3.3803 l -3.3803,43.9437 h -3.3802 l 3.3802,-10.1409 h -3.3802 l -6.7606,84.5071 -20.2817,10.1408 -3.3803,3.3803 v 23.662 h -27.0422 v 13.5211 h -27.0423 l 3.3803,13.5211 H 8433.803 v 13.5212 h -13.5211 l -10.1409,10.1408 -3.3802,3.3803 v 37.1831 h -13.5212 v 27.0422 h -13.5211 v 23.662 h -10.1408 v 27.0423 h -13.5212 v 27.0422 h -13.5211 l -3.3803,30.4226 -6.7605,-6.7606 -3.3803,40.5634 h -13.5211 v 23.6619 h -13.5212 v 27.0423 h 324.5071 158.8732 l -3.3803,-13.5211 h 91.2676 v -13.5212 h 50.7043 v -10.1408 h 27.0422 v -13.5211 h 30.4226 l -3.3803,-13.5212 h 23.662 v -13.5211 h 27.0422 v -13.5211 h 13.5211 v -13.5211 h 13.5212 v -10.1409 h 13.5211 v -13.5211 h 10.1408 v -13.5211 h 13.5212 v -13.5212 h 13.5211 v -13.5211 h 13.5211 v -23.662 h 13.5211 v -13.5211 h 13.5212 v -27.0422 h 10.1408 v -27.0423 h 13.5211 v -37.1831 h 13.5212 v -50.7042 h 13.5211 l 3.3803,-87.8874 3.3803,10.1409 h 3.3802 l -3.3802,-13.5211 c 21.5324,-18.8282 3.1774,-90.5578 6.7605,-118.3099 -21.2281,-2.9408 -13.5211,-41.3746 -13.5211,-57.4648 0,-56.2817 8.6535,-120.676 -3.3803,-175.7746 l -6.7605,6.7605 c -14.1634,-76.3267 -8.7212,-172.631 -3.3803,-250.1408 l -3.3803,-3.3803 -6.7606,3.3803 -3.3803,-131.831 h 13.5212 v -37.1831 h 13.5211 v -13.5211 h 13.5211 v -13.5212 h 13.5212 v -13.5211 h 10.1408 v -13.5211 h 47.3239 c 6.862,-22.1848 52.2254,-13.5212 70.986,-13.5212 h 219.7183 v -23.6619 h 13.5211 c 0,-10.5228 -2.5352,-25.1831 10.1408,-27.0423 l 3.3803,-3.3803 v -33.8028 h 13.5212 v -27.0422 h 10.1408 v -27.0423 h 13.5211 v -23.662 h 13.5212 v -27.0422 h 13.5211 v -27.0423 h 13.5211 v -23.6619 h 13.5211 c -0.7098,-9.6643 -0.5746,-13.5212 -10.1408,-13.5212 l -3.3803,-3.3803 3.3803,-6.7605 c -30.5916,-11.1786 -75.4817,-3.3803 -108.169,-3.3803 h -236.6197 c -24.0339,0 -91.2677,-11.6011 -104.7888,10.1408 l -3.3803,-10.1408 m 706.4789,0 v 13.5211 h -13.5211 v 23.662 h -10.1408 v 27.0423 h -13.5212 c 0,10.5228 2.5352,25.1831 -10.1408,27.0422 l -3.3803,3.3803 v 33.8028 l -10.1408,-3.3803 -3.3803,30.4226 h -13.5212 v 27.0422 h -13.5211 v 23.662 h -10.1408 v 27.0422 h -13.5212 v 27.0423 h -13.5211 v 23.662 h -13.5211 c 0,10.5228 2.5352,25.1831 -10.1409,27.0422 l -3.3802,3.3803 v 33.8028 l -10.1409,-3.3803 -3.3803,30.4226 h -10.1408 v 27.0422 h -13.5211 v 23.662 h -13.5212 v 27.0423 h -13.5211 v 27.0422 h -13.5211 v 23.662 h -10.1409 v 30.4225 l -13.5211,-3.3803 v 40.5634 c -14.2648,0.7437 -13.3859,11.2226 -13.5211,23.662 h -13.5211 v 27.0423 h -13.5212 v 27.0422 h -13.5211 v 23.662 h -10.1408 v 27.0422 h -13.5212 v 27.0423 h -13.5211 l -3.3803,37.1831 h -3.3803 v -13.5211 h -3.3802 l -3.3803,40.5633 h -13.5212 v 23.662 h -13.5211 v 27.0423 h -10.1408 v 27.0422 h -13.5212 v 23.662 h -13.5211 v 27.0422 h -13.5211 v 27.0423 h -13.5211 v 33.8028 h -3.3803 v -10.1408 h -3.3803 l -6.7606,40.5634 h -10.1408 v 27.0422 h -13.5211 v 23.662 h -13.5212 v 27.0422 h -13.5211 v 27.0423 h -13.5211 v 23.662 h -13.5211 v 27.0422 h -10.1409 v 37.1831 l -10.1408,-6.7605 -3.3803,33.8028 h -13.5211 v 27.0422 h -13.5212 v 23.662 h -13.5211 v 27.0423 h -13.5211 v 27.0422 h -10.1409 v 23.662 h -13.5211 v 27.0422 h -13.5211 v 40.5634 l -3.3803,-13.5211 h -3.3803 l -6.7605,37.1831 h -13.5212 v 27.0422 h -13.5211 v 27.0423 h -10.1408 v 37.1831 h 348.169 v -13.5211 h 13.5211 v -13.5212 h 13.5211 v -23.6619 h 13.5212 c 0,-10.5127 -2.5353,-25.1831 10.1408,-27.0423 v -37.1831 h 13.5211 v -27.0422 h 13.5212 v -27.0423 h 13.5211 v -23.662 h 13.5211 v -27.0422 h 13.5211 v -27.0423 h 10.1409 v -23.6619 h 13.5211 v -27.0423 h 13.5211 c 0.1691,-14.062 0.3381,-23.4592 13.5212,-30.4225 v -33.8029 h 13.5211 v -27.0422 h 10.1408 v -27.0423 h 13.5212 v -23.6619 h 13.5211 v -27.0423 h 13.5211 v -27.0422 h 13.5211 v -23.662 h 13.5212 c 0,-10.5127 -2.5352,-25.1831 10.1408,-27.0423 -0.9127,-14.0957 0.3718,-23.4929 13.5211,-30.4225 v -3.3803 l -6.7605,3.3803 v -3.3803 l 6.7605,-30.4225 h 13.5212 v -27.0423 h 13.5211 v -23.662 h 13.5211 v -27.0422 h 13.5212 v -27.0423 h 10.1408 v -23.6619 h 13.5211 v -27.0423 h 13.5212 c 0.1352,-12.169 -0.6761,-24.9465 13.5211,-27.0422 v -30.4226 h 3.3803 l 3.3802,6.7606 6.7606,-10.1409 h -6.7606 l 6.7606,-30.4225 h 13.5211 v -27.0422 h 10.1409 v -23.662 h 13.5215 v -27.0423 h 13.521 v -27.0422 h 13.521 v -23.662 h 13.521 v -27.0423 h 13.521 l 10.141,-64.2253 h 13.521 v -27.0423 h 13.521 v -23.6619 h 13.521 v -27.0423 h 13.521 v -27.0422 h 13.522 v -23.662 h 10.14 v -27.0423 h 13.522 v -27.0422 h 13.521 v -27.0423 l 6.76,-6.7605 h 3.381 v 10.1408 h 3.38 v -40.5634 h 13.521 v -27.0422 h 13.521 v -23.662 h 10.141 v -27.0423 h 13.521 v -27.0422 h 13.521 v -23.662 h 13.521 v -27.0422 h 13.521 v -27.0423 h 13.522 v -37.1831 h -365.0709 m 493.5209,0 v 27.0423 h -3.38 l -3.38,-13.5212 h -3.381 l 3.381,13.5212 -6.761,50.7042 h -13.521 v 50.7042 h -13.521 c 0,17.1516 5.814,43.7476 -10.141,54.0845 v 64.2254 h -13.521 v 50.7042 h -13.521 v 54.0845 l -10.141,-3.3803 h -3.38 v 67.6057 h -13.521 v 50.7042 h -13.522 l -10.14,114.9296 -10.141,-3.3803 -3.381,57.4648 h -13.521 v 50.7042 h -13.521 c 0,13.1493 6.423,48.2704 -10.141,50.7042 l -3.38,3.3803 v 64.2254 h -13.521 v 50.7042 h -10.141 v 50.7042 h -13.521 l -6.761,64.2254 v -10.1409 h -3.38 l -3.38,64.2254 h -13.521 v 50.7042 h -13.521 c 0,18.9296 5.746,43.9099 -13.522,54.0845 v 3.3803 l 10.141,6.7606 -10.141,-3.3803 v 57.4648 h -10.14 v 50.7042 h -13.522 v 57.4648 h -3.38 l -3.38,-6.7606 v 6.7606 h -3.38 v -6.7606 h -3.381 v 64.2254 h -13.521 v 54.0845 h -13.521 c 0,13.1493 6.423,48.2704 -10.141,50.7042 l -3.38,3.3803 v 54.0845 h -3.38 l -3.381,-6.7606 -3.38,13.5212 h 3.38 l 3.381,-6.7606 3.38,20.2817 h 375.211 c 24.642,0 109.589,12.7775 118.31,-13.5211 h 13.521 v -23.662 h 13.521 v -13.5211 h 13.521 v -27.0423 h 10.141 v -13.5211 h 13.521 v -23.662 h 13.522 v -13.5211 h 13.521 v -27.0423 h 13.521 v -13.5211 h 13.521 v -16.9014 h 10.141 v -20.2817 h 13.521 v -13.5211 h 13.521 v -27.0423 h 13.521 v -13.5211 h 13.521 v -23.662 h 13.521 v -13.5211 h 10.141 v -27.0423 h 13.521 v -13.5211 h 13.522 v -23.662 h 13.521 v -13.5211 h 13.521 v -27.0422 h 13.521 v -13.5212 l 23.662,-13.5211 v -23.662 h 13.521 v -13.5211 h 13.521 v -27.0422 h 13.521 v -10.1409 h 13.521 v -27.0422 h 10.141 v -13.5212 h 13.521 v -27.0422 h 13.522 v -10.1409 h 13.521 v -27.0422 h 13.521 v -13.5212 h 13.521 l 6.76,-16.9014 3.381,-20.2817 h 13.521 v -13.5211 h 13.521 v -27.0422 h 13.521 v -13.5212 h 13.521 v -23.6619 h 13.521 v -13.5212 h 10.141 v -27.0422 h 13.521 v -13.5211 h 13.521 v -23.662 h 13.522 v -13.5211 h 13.521 v -27.0423 h 13.521 v -13.5211 h 10.141 l 3.38,-16.9014 6.761,3.3803 3.38,-23.662 h 13.521 l 13.521,-13.5211 v -27.0423 h 13.521 v -13.5211 h 13.521 v -23.662 h 10.141 v -13.5211 h 13.521 v -27.0423 h 13.521 v -13.5211 h 13.522 v -23.662 h 13.521 v -13.5211 h 13.521 v -27.0423 c 9.566,0 9.431,-3.8602 10.141,-13.5211 h 13.521 l 10.141,-10.1408 3.38,-3.3803 v -23.662 h 13.521 v -13.5211 h 13.521 v -27.0423 l 10.141,-10.1408 h 13.521 v -27.0423 h 13.521 v -13.5211 h 13.521 v -27.0423 h 13.522 v -10.1408 h 13.521 v -27.0423 h 10.14 v -13.5211 h 13.522 v -16.9014 l 13.521,3.3803 v -23.662 h 13.521 l 13.521,-13.5211 v -27.0423 h 13.521 v -13.5211 h 10.141 v -23.662 h 13.521 v -13.5211 h 13.521 v -27.0422 h 13.521 v -13.5212 h 13.521 v -23.6619 h 13.522 v -27.0423 h -375.212 v 13.5211 h -13.521 v 23.662 h -13.521 v 13.5211 h -13.521 v 27.0423 h -13.521 v 27.0422 h -13.521 l -10.141,10.1409 v 27.0422 h -13.521 v 13.5212 h -13.521 v 27.0422 h -13.522 v 23.662 h -13.521 v 13.5211 h -13.521 v 27.0423 h -10.141 v 13.5211 h -13.521 v 23.662 h -13.521 v 27.0422 h -13.521 v 13.5212 h -13.521 v 23.6619 h -13.521 v 13.5212 h -10.141 v 27.0422 h -13.521 v 27.0423 h -13.521 v 10.1408 h -13.521 v 27.0423 h -13.522 l -13.521,13.5211 v 27.0422 h -10.141 v 23.662 h -13.521 v 13.5211 h -13.521 v 27.0423 h -13.521 v 16.9014 l -13.521,-3.3803 v 23.662 h -13.521 v 27.0423 h -10.141 v 13.5211 h -13.521 v 23.662 h -13.521 v 16.9014 l -13.521,-3.3803 6.76,6.7605 v 3.3803 l -6.76,16.9014 h -13.522 v 27.0423 h -13.521 l -10.141,10.1408 v 27.0423 h -13.521 v 27.0422 l -13.521,-3.3802 v 16.9014 h -13.521 v 23.6619 h -13.521 v 13.5212 h -13.521 v 27.0422 h -10.141 v 23.662 h -13.521 v 13.5211 h -13.521 v 27.0423 h -13.521 v 13.5211 h -13.522 v 23.662 h -13.521 v 27.0422 h -10.141 v 13.5212 h -13.521 v 27.0422 h -13.521 v 10.1409 h -13.521 v 27.0422 h -13.521 v 27.0423 h -13.521 v 13.5211 h -10.141 v 23.662 h -13.521 v 13.5211 h -13.521 v 27.0422 h -13.521 v 23.662 h -13.522 v 13.5211 h -13.521 v 27.0423 h -10.14 l -3.381,20.2817 -10.141,-6.7606 v 23.662 h -13.521 v 27.0423 h -13.521 v 13.5211 h -13.521 v -40.5634 h 13.521 v -37.1831 h 13.521 v -40.5634 h 13.521 l 3.381,-50.7042 h 3.38 l -3.38,13.5211 h 3.38 l 6.761,-50.7042 c 15.988,-3.4141 10.14,-27.0761 10.14,-40.5634 h 13.521 v -37.1831 h 13.522 v -40.5634 h 13.521 c 0,-13.6901 -3.82,-34.6141 13.521,-37.1831 l 3.38,-50.7042 3.38,10.1408 h 3.381 l 3.38,-50.7042 h 10.141 v -40.5634 h 13.521 v -37.1831 h 13.521 v -40.5633 h 13.521 v -40.5634 l 10.141,3.3803 3.38,-43.9437 13.521,3.3803 v -50.7042 h 10.141 v -40.5634 h 13.521 v -37.1831 h 13.522 v -40.5634 h 13.521 v -40.5634 l 10.141,3.3803 3.38,-3.3803 v -40.5634 l 13.521,3.3803 v -50.7042 h 10.141 v -37.1831 h 13.521 v -40.5634 h 13.521 v -37.1831 h 13.521 l 3.38,-43.9437 10.141,3.3803 c 0,-14.782 -3.279,-34.9791 13.521,-40.5634 v -3.3802 l -13.521,-3.3803 v -3.3803 h 13.521 v -40.5634 h 10.141 v -37.1831 h 13.521 v -40.5634 h 13.522 v -50.7042 h -375.212 m -6434.9407,5.6349 1.1493,2.2513 -1.1493,-2.2513 m 5.645,-2.2546 3.3803,3.3803 -3.3803,-3.3803 m 4374.0846,0 3.3803,3.3803 -3.3803,-3.3803 m 16.9015,0 3.3802,3.3803 v 3.3802 l -3.3802,3.3803 h -3.3803 l -3.3803,-3.3803 v -3.3802 l 6.7606,-3.3803 m 861.9718,0 -16.9014,10.1408 16.9014,-10.1408 m 432.6761,0 3.3803,3.3803 -3.3803,-3.3803 m -4422.5241,5.6349 -1.1493,2.2513 1.1493,-2.2513 m 3124.4959,-2.2546 3.3803,3.3802 -3.3803,-3.3802 m 13.5211,0 -3.3803,3.3802 3.3803,-3.3802 m 841.6902,0 3.3802,3.3802 -3.3802,-3.3802 m 20.2817,0 -3.3803,3.3802 3.3803,-3.3802 m -855.2113,3.3802 -3.3803,3.3803 3.3803,-3.3803 m 2031.5492,0 -3.38,3.3803 3.38,-3.3803 m -9711.54942,3.3803 v 13.5212 h -13.52113 v 37.1831 h -13.52112 v 27.0422 H 686.1972 v 23.662 h -13.52113 v 27.0422 h -10.14084 v 27.0423 H 649.0141 v 23.662 h -13.52113 v 27.0422 h -13.52112 v 40.5634 h -3.38029 v -10.1408 h -3.38028 l -6.76056,6.7605 v 27.0423 h -13.52113 v 27.0422 h -10.14084 v 27.0423 h -13.52113 v 23.662 h -13.52113 v 27.0422 h -13.52112 v 27.0423 h -13.52113 v 37.1831 l -10.14085,-3.3803 -3.38028,30.4225 h -10.14084 v 23.662 h -13.52113 v 27.0422 h -13.52113 v 27.0423 h -13.52113 v 23.662 h -13.52112 v 27.0422 h -13.52113 v 40.5634 h -10.14085 v 23.662 h -13.52112 v 27.0422 h -13.52113 v 27.0423 H 388.7324 v 23.662 h -13.52112 v 27.0422 h -13.52113 v 30.4225 H 351.5493 v 33.8029 h -13.52112 v 27.0422 h -13.52113 v 23.662 h -13.52113 v 27.0422 H 297.4648 v 27.0423 h -13.52113 v 23.662 h -10.14085 v 33.8028 l -13.52112,-6.7606 v 40.5634 h -13.52113 v 23.662 h -13.52113 v 27.0422 h -13.52112 v 27.0423 h -13.52113 v 23.662 h -10.14085 v 27.0422 h -13.52112 v 37.1831 l -10.14085,-6.7605 -3.38028,33.8028 h -13.52113 v 27.0422 h -13.52113 v 23.662 h -13.52112 v 27.0423 h -10.14085 v 27.0422 h -13.52113 v 23.662 H 91.267608 l -6.760564,40.5634 3.380282,-10.1409 h -3.380282 l -6.760563,37.1831 H 64.225354 v 23.662 H 50.704227 v 27.0422 H 40.563381 v 27.0423 H 27.042254 v 23.662 H 13.521127 v 13.5211 H 388.7324 v -27.0423 h 13.52113 v -23.6619 h 13.52113 v -27.0423 h 13.52112 v -30.4225 h 10.14085 v -33.8028 h 13.52113 v -27.0423 h 13.52112 v -23.662 h 13.52113 v -27.0422 h 13.52113 v -27.0423 h 13.52113 v -23.6619 h 10.14084 v -40.5634 h 13.52113 v -27.0423 h 13.52113 v -23.662 h 13.52112 v -27.0422 h 13.52113 v -27.0423 h 13.52113 v -23.6619 h 10.14084 c 0,-10.5127 -2.54535,-25.1831 10.14085,-27.0423 l 3.38028,-3.3803 v -33.8028 h 13.52113 v -27.0422 l 23.66197,-6.7606 h 3.38028 v 6.7606 h 3.38028 10.14085 l 3.38028,-3.3803 -6.76056,-10.1409 h 290.70423 v 3.3803 h -10.14085 v 10.1409 h 10.14085 3.38028 v -6.7606 h 3.38028 v 6.7606 h 3.38028 v -6.7606 l 23.66198,6.7606 v -10.1409 l 3.38028,10.1409 h 3.38028 l -3.38028,-13.5212 6.76056,13.5212 h 3.38028 v -13.5212 H 1139.155 v -13.5211 h 54.0845 v -13.5211 h 37.1831 v -10.1409 h 27.0422 v -13.5211 h 27.0423 v -13.5211 h 10.1408 v -13.5212 h 13.5211 v -13.5211 h 27.0423 v -13.5211 h 13.5211 l 3.3803,-13.5211 10.1409,3.3802 v -27.0422 h 10.1408 v -13.5211 h 13.5211 v -13.5212 h 13.5212 v -23.6619 h 13.5211 v -27.0423 h 13.5211 l 10.1409,-13.5211 3.3802,-3.3803 v -23.662 h 10.1409 c 0.013,-15.7521 -1.5279,-28.9014 13.5211,-37.1831 v -27.0422 h 13.5211 v -23.662 h 13.5212 v -27.0422 h 13.5211 v -27.0423 h 13.5211 v -23.662 h 10.1409 v -40.5634 h 13.5211 v -27.0422 h 13.5211 v -23.662 h 13.5211 v -27.0422 h 13.5212 v -27.0423 h 13.5211 l 3.3803,-30.4225 3.3803,6.7605 h 3.3802 v -40.5633 h 13.5212 v -37.1831 h 13.5211 v -57.4648 l 13.5211,3.3802 v -87.8873 h -13.5211 v -54.0845 h -13.5211 v -23.662 h -13.5212 v -13.5211 h -10.1408 v -13.5211 h -13.5211 v -13.5211 h -13.5212 v -13.5212 h -16.9014 v -13.5211 l -6.7605,6.7606 -16.9014,-6.7606 v -10.1408 l -40.5634,-3.3803 3.3803,-6.7606 v -3.3803 h -3.3803 l -3.3803,10.1409 h -3.3803 l 3.3803,-10.1409 H 1233.8028 726.76058 m 1230.42252,0 v 23.662 h -13.5211 v 27.0423 h -13.5211 v 27.0422 h -13.5211 v 23.662 h -13.5212 c 0,10.5228 2.5454,25.1831 -10.1408,27.0422 v 40.5634 h -13.5211 v 23.662 h -13.5212 v 27.0422 h -13.5211 v 27.0423 h -13.5211 v 23.662 h -13.5211 v 27.0422 h -10.1409 v 27.0423 h -13.5211 v 30.4225 h -3.3803 l -3.3803,-6.7605 v 6.7605 h -3.3803 v -6.7605 h -3.3802 v 40.5633 h -13.5212 v 23.662 h -13.5211 v 27.0423 h -13.5211 v 27.0422 h -10.1409 v 23.662 h -13.5211 v 27.0422 h -13.5211 v 27.0423 h -13.5212 v 27.0423 l -13.5211,-3.3803 v 40.5634 h -13.5211 v 27.0422 h -10.1409 v 23.662 h -13.5211 v 27.0422 h -13.5211 v 27.0423 h -13.5211 v 23.662 h -13.5212 l -10.1408,27.0422 c 0.4361,8.0451 3.5358,36.6085 -10.1408,27.0423 l -3.3803,37.1831 h -13.5212 v 27.0422 h -13.5211 v 23.662 h -13.5211 v 27.0422 h -13.5211 v 27.0423 h -10.1409 v 23.662 h -13.5211 v 27.0422 h -13.5211 l -6.7606,40.5634 v -10.1408 h -3.3803 l -3.3803,33.8028 h -13.5211 v 27.0422 h -13.5211 v 27.0423 H 1440 v 23.662 h -13.5211 v 27.0422 h -13.5211 v 27.0423 h -13.5211 v 27.0422 l -13.5212,-3.3803 v 40.5634 h -13.5211 v 23.662 h -10.1408 v 27.0423 h -13.5212 v 27.0422 h -13.5211 v 23.662 h -13.5211 v 27.0422 h -13.5212 v 27.0423 h -13.5211 l -3.3803,30.4225 -3.3802,-6.7605 h -3.3803 v 40.5633 c -15.4919,0.8113 -13.4738,14.0958 -13.5212,27.0423 h -13.5211 v 23.662 h -13.5211 v 13.5211 h 361.6901 v -27.0423 h 13.5212 v -23.6619 h 13.5211 v -27.0423 h 13.5211 v -37.1831 h 13.5211 v -27.0422 h 10.1409 v -27.0423 h 13.5211 v -23.662 h 13.5211 v -27.0422 h 13.5212 v -30.4226 l 13.5211,3.3803 v -37.1831 h 13.5211 v -27.0422 h 10.1409 v -27.0423 h 13.5211 v -23.662 h 13.5211 v -27.0422 h 13.5212 v -37.1831 h 13.5211 v -27.0423 h 13.5211 v -27.0422 h 10.1409 v -23.662 h 13.5211 v -27.0422 h 13.5211 v -30.4226 l 13.5211,3.3803 v -37.1831 h 13.5212 v -13.5211 h 202.8169 v 3.3803 h -10.1409 c 13.7679,14.2309 35.5471,10.1408 54.0845,10.1408 v 13.5211 l 10.1409,10.1409 h 13.5211 v 13.5211 h 13.5211 v 40.5634 h 13.5212 v 27.0422 l -10.1409,-3.3802 -3.3803,67.6056 h -13.5211 c -0.044,10.0394 1.5718,21.938 -10.1408,23.662 l -3.3803,3.3802 v 37.1831 h -10.1409 v 23.662 h -13.5211 v 27.0423 h -13.5211 v 27.0422 h -13.5211 v 37.1831 h -13.5212 v 27.0423 h -13.5211 v 37.1831 h -10.1408 v 27.0422 h -13.5212 v 40.5634 h -13.5211 v 23.662 h -13.5211 v 40.5634 h -13.5212 l -3.3802,33.8028 h -3.3803 l -3.3803,-10.1409 -3.3803,27.0423 h 365.0704 v -27.0423 h 13.5212 v -50.7042 h 10.1408 v -37.1831 h 13.5211 v -40.5634 h 13.5212 v -27.0422 h 13.5211 v -37.1831 h 13.5211 v -27.0423 h 13.5212 v -37.1831 h 10.1408 v -27.0422 h 13.5211 v -37.1831 h 13.5212 v -27.0423 h 13.5211 c 0,-13.2507 -3.7826,-29.6789 6.7605,-27.0422 l -3.3802,-10.1409 10.1408,6.7606 v -33.8028 h 13.5211 v -40.5634 h 10.1409 v -87.8873 c 0,-11.3578 2.9104,-25.386 -10.1409,-27.0423 v -40.5634 h -13.5211 v -13.5211 h -13.5211 v -10.1409 h -13.5211 v -13.5211 h -13.5212 v -13.5211 h -13.5211 v -27.0423 h 54.0845 v -13.5211 h 37.1831 v -10.1408 h 40.5634 l -3.3803,-13.5212 h 16.9014 v -13.5211 h 23.662 v -13.5211 h 13.5211 v -13.5211 h 13.5211 v -13.5212 h 13.5212 v -10.1408 h 13.5211 v -13.5211 h 10.1408 v -13.5212 h 13.5212 v -13.5211 h 13.5211 v -27.0422 h 13.5211 v -23.662 h 13.5212 v -27.0423 h 13.5211 v -27.0422 h 10.1408 v -23.662 h 13.5212 v -27.0423 h 13.5211 v -30.4225 l 13.5211,3.3803 v -37.1831 h 13.5211 v -27.0423 h 13.5212 v -23.6619 h 10.1408 v -27.0423 h 13.5211 c 0,-10.5228 -2.5453,-25.1831 10.1409,-27.0422 l 3.3803,-3.3803 v -33.8028 h 13.5211 v -54.0846 h 13.5211 v -114.9295 c -14.4507,-1.991 -13.3825,-14.613 -13.5211,-27.0423 h -13.5211 v -23.662 h -13.5212 v -13.5211 h -13.5211 v -13.5211 h -10.1408 v -13.5211 h -13.5212 v -13.5212 h -13.5211 v -13.5211 h -27.0422 v -10.1408 h -37.1831 v -13.5212 h -3.3803 v 13.5212 h -3.3803 v -13.5212 h -3.3803 v 13.5212 h -3.3803 v -13.5212 h -763.9437 m 3860.2818,0 v 23.662 h -13.5211 v 27.0423 h -13.5211 v 27.0422 h -13.5212 v 23.662 h -13.5211 v 40.5634 h -10.1408 v 27.0422 h -13.5212 v 23.662 h -13.5211 v 27.0422 h -13.5211 v 27.0423 h -13.5211 v 23.662 h -13.5212 v 27.0422 h -10.1408 v 27.0423 h -13.5211 l -3.3803,30.4225 -10.1409,-6.7605 v 10.1408 l 6.7606,-3.3803 -6.7606,33.8028 h -13.5211 v 23.662 h -13.5211 v 27.0423 h -13.5211 v 27.0422 h -10.1409 v 23.662 h -13.5211 v 27.0422 h -13.5211 v 27.0423 h -13.5212 v 30.4225 l -13.5211,-3.3802 v 37.1831 h -13.5211 v 27.0422 h -10.1409 v 23.662 h -13.5211 v 27.0422 h -13.5211 v 27.0423 h -13.5211 v 23.662 h -13.5212 v 27.0422 h -13.5211 v 37.1831 h -3.3803 v -10.1408 h -3.3803 l -3.3802,37.1831 h -13.5212 v 27.0422 h -13.5211 v 23.662 h -13.5211 v 27.0422 h -13.5212 v 27.0423 h -13.5211 v 23.662 h -10.1408 v 27.0422 h -13.5212 v 40.5634 h -3.3802 v -10.1408 h -10.1409 l 6.7606,6.7605 -6.7606,27.0423 h -13.5211 v 27.0422 h -13.5211 v 27.0423 h -13.5212 v 23.662 h -10.1408 v 27.0422 h -13.5211 v 27.0423 h -13.5212 v 27.0422 l -13.5211,-3.3803 v 40.5634 h -13.5211 v 23.662 h -13.5211 v 27.0423 h -10.1409 v 27.0422 h -13.5211 v 23.662 h -13.5211 v 27.0422 h -13.5212 v 27.0423 h -13.5211 v 27.0422 l -13.5211,-3.3802 v 40.5633 h -10.1409 v 27.0423 h -13.5211 v 23.662 h -13.5211 v 13.5211 h 361.6901 v -27.0423 h 13.5212 v -23.6619 h 13.5211 v -27.0423 h 13.5211 v -37.1831 h 13.5211 v -27.0422 h 10.1409 v -27.0423 h 13.5211 v -23.662 h 13.5211 v -27.0422 h 13.5212 l 3.3802,-33.8028 10.1409,6.7605 v -37.1831 h 13.5211 v -27.0422 h 10.1409 v -27.0423 h 13.5211 v -23.662 h 13.5211 v -27.0422 h 13.5211 v -37.1831 h 13.5212 v -27.0423 h 13.5211 v -27.0422 h 10.1408 v -23.662 h 13.5212 v -27.0422 h 13.5211 l 3.3803,-30.4226 10.1408,3.3803 v -37.1831 h 13.5211 v -13.5211 h 199.4367 l -6.7606,10.1408 6.7606,3.3803 h 3.3803 v -13.5211 h 3.3802 v 13.5211 h 40.5634 v 13.5211 l 10.1409,10.1409 h 13.5211 v 13.5211 h 13.5211 l 6.7606,40.5634 -3.3803,13.5211 h 3.3803 l 3.3803,-13.5211 h 3.3802 v 23.662 h -13.5211 v 67.6056 h -13.5211 v 27.0422 l -13.5211,-3.3802 v 40.5633 h -10.1409 v 23.662 h -13.5211 v 27.0423 h -13.5211 v 27.0422 h -13.5212 v 37.1831 h -13.5211 v 27.0423 h -13.5211 v 37.1831 h -10.1409 v 27.0422 h -13.5211 v 40.5634 c -14.2648,0.7437 -13.3859,11.2226 -13.5211,23.662 h -13.5211 v 40.5634 h -13.5212 v 23.6619 h -13.5211 v 27.0423 h 365.0704 v -27.0423 h 13.5212 v -50.7042 h 10.1408 v -37.1831 h 13.5211 v -40.5634 h 13.5212 v -27.0422 h 13.5211 v -37.1831 h 13.5211 v -27.0423 h 13.5211 v -37.1831 h 10.1409 v -27.0422 h 13.5211 v -37.1831 h 13.5211 v -27.0423 h 13.5212 v -40.5634 h 3.3802 v 13.5212 h 3.3803 v -13.5212 l 6.7606,3.3803 v -27.0422 h 13.5211 v -43.9437 l 10.1409,3.3803 V 3826.479 h -10.1409 v -40.5634 h -13.5211 v -13.5211 h -13.5211 v -10.1409 h -13.5212 v -13.5211 h -13.5211 v -13.5211 h -13.5211 v -27.0423 h 54.0845 v -13.5211 h 37.1831 v -10.1408 c 12.3042,0 27.3803,4.1239 30.4225,-10.1409 h 3.3803 l 3.3803,10.1409 v -10.1409 l 16.9014,-3.3803 v -13.5211 h 23.662 v -13.5211 h 13.5211 v -13.5211 h 13.5211 v -13.5212 h 13.5212 l 10.1408,-10.1408 v -13.5211 h 13.5211 v -13.5212 h 13.5212 v -13.5211 h 13.5211 v -27.0422 h 13.5211 v -23.662 h 13.5211 v -27.0423 h 10.1409 v -27.0422 h 13.5211 v -23.662 h 13.5211 v -27.0423 h 13.5212 v -30.4225 l 13.5211,3.3803 v -37.1831 h 13.5211 v -27.0423 h 10.1409 v -23.6619 h 13.5211 v -27.0423 h 13.5211 c 0,-10.5228 -2.5352,-25.1831 10.1409,-27.0422 l 3.3802,-3.3803 v -33.8028 h 13.5212 v -54.0846 h 13.5211 v -111.5493 l -3.3803,-3.3802 -6.7605,3.3802 -3.3803,-30.4225 h -13.5212 v -23.662 h -13.5211 v -13.5211 h -13.5211 v -13.5211 h -13.5211 v -13.5211 h -10.1409 v -13.5212 h -13.5211 v -13.5211 h -27.0423 v -10.1408 c -13.6901,0 -34.6141,3.8197 -37.1831,-13.5212 h -253.5211 -523.9437 m 1294.6479,0 v 13.5212 c -14.2985,0.7504 -13.3859,11.2225 -13.5211,23.6619 h -13.5211 v 27.0423 h -13.5211 v 27.0422 h -10.1409 v 23.662 h -13.5211 v 27.0423 h -13.5211 v 27.0422 h -13.5212 v 33.8028 h -3.3802 v -6.7605 h -3.3803 l 3.3803,10.1408 -10.1409,-3.3803 v 30.4226 h -13.5211 v 23.6619 h -10.1409 v 27.0423 h -13.5211 v 27.0423 h -13.5211 v 23.6619 h -13.5211 v 27.0423 h -13.5212 c 0,10.5228 2.5352,25.1831 -10.1408,27.0422 l -3.3803,3.3803 v 33.8028 h -10.1408 v 27.0423 h -13.5212 v 27.0422 h -13.5211 v 23.662 h -13.5211 v 27.0423 h -13.5212 v 27.0422 H 6838.31 v 27.0423 l -10.1408,-3.3803 v 3.3803 l 6.7605,3.3803 h -6.7605 v 3.3802 h 6.7605 l -6.7605,30.4226 h -13.5212 v 23.662 h -13.5211 v 27.0422 h -13.5211 v 27.0423 h -13.5211 v 23.6619 h -13.5212 v 27.0423 h -10.1408 v 27.0422 h -13.5211 v 37.1831 h -3.3803 v -10.1408 h -10.1409 l 6.7606,6.7606 -6.7606,30.4225 h -13.5211 v 27.0422 h -13.5211 v 23.662 h -13.5211 v 27.0423 h -10.1409 v 27.0422 h -13.5211 v 23.662 h -13.5211 v 33.8028 h -3.3803 l -3.3803,-6.7605 -6.7606,3.3802 v 33.8029 h -13.5211 v 27.0422 h -13.5211 v 27.0423 h -10.1409 v 23.6619 h -13.5211 v 27.0423 h -13.5211 v 27.0422 h -13.5211 c -0.034,10.0395 1.5549,21.9381 -10.1409,23.662 l -3.3803,3.3803 v 37.1831 h -13.5211 v 27.0423 h -10.1408 v 23.6619 h -13.5212 v 27.0423 h -13.5211 v 27.0422 h -13.5211 v 23.662 h -13.5212 v 27.0423 h -10.1408 l -6.7606,37.1831 3.3803,-6.7606 -10.1408,33.8028 h -13.5212 v 27.0423 h -13.5211 v 23.6619 h -13.5211 v 27.0423 h 895.7747 v -13.5211 h 10.1408 v -23.662 h 13.5211 v -27.0423 h 13.5212 v -27.0422 h 13.5211 v -23.662 h 13.5211 v -27.0422 h 13.5211 v -27.0423 h 10.1409 v -23.662 h 13.5211 v -27.0422 l 13.5211,-3.3803 v -37.1831 h 13.5212 v -23.662 c -176.5183,14.6028 -360.2705,0.3719 -537.4648,0 l 6.7605,-40.5634 h 13.5212 v -23.6619 h 10.1408 v -27.0423 h 13.5211 v -27.0422 h 13.5212 v -23.662 h 13.5211 v -27.0423 h 13.5211 c 0,-10.5126 -2.5352,-25.1831 10.1409,-27.0422 l 3.3802,-3.3803 v -23.662 h 10.1409 v -37.1831 h 13.5211 v -27.0422 h 13.5211 v -23.662 h 13.5212 v -27.0423 h 13.5211 v -27.0422 h 13.5211 v -23.662 h 10.1409 v -13.5211 h 466.4788 V 3718.31 l 13.5212,3.3803 -6.7606,-10.1409 v -3.3803 l 6.7606,-23.6619 h 13.5211 v -27.0423 h 13.5211 v -27.0422 h 13.5212 v -23.662 h 13.5211 v -27.0423 h 10.1408 v -27.0422 h 13.5212 v -30.4226 h 3.3802 l 3.3803,6.7606 v -6.7606 h 3.3803 v 6.7606 h 3.3803 v -40.5634 h 13.5211 v -13.5211 h -348.169 l -104.7887,-6.7606 -6.7606,3.3803 v -3.3803 l 6.7606,-30.4225 h 13.5211 v -27.0423 h 10.1408 v -27.0422 h 13.5212 c 0.3718,-11.5538 0.5746,-21.7386 13.5211,-23.662 v -40.5634 h 13.5211 v -23.6619 h 13.5211 v -27.0423 h 13.5212 v -27.0422 h 10.1408 v -23.662 h 13.5211 v -27.0423 h 13.5212 v -27.0422 h 13.5211 v -13.5212 h 480 v -10.1408 h 13.5211 v -27.0423 h 10.1409 v -27.0422 h 13.5211 c 0.3718,-11.5538 0.5746,-21.7386 13.5211,-23.662 v -40.5634 h 13.5212 v -27.0422 h 13.5211 v -23.662 h 13.5211 v -27.0422 h 10.1409 v -27.0423 h 13.5211 v -23.662 h -828.1691 m 4624.2252,0 v 23.662 h -13.521 v 27.0423 h -13.521 v 27.0422 h -13.521 v 27.0423 h -10.141 v 37.1831 h -13.521 v 27.0422 h -13.521 v 23.662 h -13.521 v 27.0422 h -13.521 v 27.0423 h -13.522 v 23.662 h -10.14 v 27.0422 h -13.522 v 37.1831 h -13.521 v 27.0423 h -13.521 v 27.0422 h -13.521 v 23.662 h -13.521 v 27.0423 h -10.141 v 27.0422 h -13.521 v 23.662 h -13.521 v 37.1831 h -3.38 l -3.381,-6.7606 v 6.7606 h -3.38 v -6.7606 h -3.38 v 37.1831 h -13.521 v 23.662 h -13.522 v 27.0423 h -10.14 v 27.0422 h -13.521 v 23.662 h -13.522 v 27.0422 h -13.521 v 37.1831 l -10.141,-6.7605 -3.38,33.8028 h -13.521 v 27.0422 h -10.141 v 23.662 h -13.521 v 27.0423 h -13.521 v 27.0422 h -13.521 v 23.662 h -13.521 c 0,10.5127 2.535,25.1831 -10.141,27.0422 v 40.5634 h -13.521 v 23.662 h -13.521 v 27.0423 h -13.522 v 27.0422 h -13.521 v 23.662 h -13.521 v 27.0422 h -10.141 v 27.0423 h -13.521 v 37.1831 h -13.521 v 27.0422 h -13.521 v 23.662 h -13.521 v 27.0423 h -13.521 v 27.0422 h -10.141 v 23.662 h -13.521 v 27.0423 h -13.521 v 40.5633 h -13.522 v 23.662 h -13.521 v 27.0423 h -13.521 v 27.0422 h -10.141 v 23.662 h -13.521 v 27.0422 h -13.521 v 27.0423 h -13.521 v 37.1831 h 892.394 v -13.5211 h 13.521 v -23.662 h 13.522 l 3.38,-30.4225 10.141,3.3802 v -30.4225 l 13.521,3.3803 v -37.1831 h 13.521 v -27.0423 h 10.141 v -27.0422 h 13.521 v -23.662 h 13.521 v -27.0422 h 13.521 v -27.0423 h 13.521 l -6.76,-10.1408 3.38,-13.5212 h -3.38 l -3.38,13.5212 h -3.381 l 3.381,-10.1409 c -51.922,-14.8394 -123.584,-3.1775 -177.736,-2.8056 -118.783,0.7774 -237.6,-0.3381 -356.349,-0.5747 v -13.5211 h 13.521 v -27.0423 h 10.141 l 3.38,-27.0422 6.761,3.3803 3.38,-3.3803 v -37.1831 h 13.521 v -27.0423 h 13.521 v -23.6619 h 13.521 v -27.0423 h 13.522 v -27.0422 h 10.14 v -23.662 h 13.522 v -27.0423 h 13.521 v -27.0422 h 13.521 v -27.0423 l 13.521,3.3803 v -33.8028 l 10.141,6.7605 3.38,-37.1831 h 10.141 v -27.0422 h 324.507 l 155.493,-3.3803 v -23.662 h 13.521 v -23.6619 h 13.521 v -27.0423 h 13.521 l 3.381,-30.4225 6.76,3.3803 3.38,-3.3803 v -33.8028 H 12240 v -27.0423 h 13.521 v -27.0422 h 13.522 v -23.662 h 13.521 v -40.5634 h -452.958 v -23.662 h 13.521 v -27.0422 h 10.141 v -27.0423 h 13.521 v -23.662 h 13.521 v -27.0422 h 13.521 v -27.0423 h 13.521 l 3.381,-27.0422 6.76,3.3803 6.761,-33.8029 3.38,6.7606 h 3.38 v -40.5634 h 13.521 v -23.6619 h 13.522 v -27.0423 h 13.521 v -27.0423 h 493.521 v -23.6619 c 13.487,-2.8868 10.141,-15.1775 10.141,-27.0423 h 13.521 v -27.0422 h 13.521 v -23.662 h 13.521 v -27.0423 h 13.521 v -27.0422 h 13.521 c 0.03,-10.053 -1.555,-21.9448 10.141,-23.662 v -40.5634 h 13.521 v -23.6619 h 13.521 v -13.5212 h -841.69 m 1058.029,0 -3.381,13.5212 v -10.1409 h -3.38 c -1.724,13.0716 -16.124,10.1409 -27.042,10.1409 v 10.1408 h -13.521 v 13.5211 h -13.522 v 13.5212 H 12720 v 27.0422 h -13.521 v 101.4085 H 12720 v 27.0422 h 13.521 v 13.5211 h 13.522 v 13.5212 h 13.521 v 13.5211 l 30.422,10.1408 h 3.381 v -10.1408 h 3.38 v 10.1408 h 77.746 v -10.1408 h 27.043 v -13.5211 h 13.521 v -13.5212 h 13.521 v -13.5211 h 10.141 v -13.5211 h 13.521 v -37.1831 h 13.521 v -54.0845 h -13.521 v -3.3803 h 10.141 v -3.3803 h -10.141 v -30.4225 h -13.521 v -13.5211 h -10.141 v -13.5212 h -13.521 v -13.5211 h -13.521 v -10.1408 h -27.043 v -13.5212 h -81.126 m -8105.9162,3.3803 v 10.1409 h -3.3803 -3.3802 l 6.7605,-10.1409 m 1903.0987,10.1409 h -3.3803 c -2.1972,-6.6254 -3.3803,-8.6333 -3.3803,0 h -3.3803 l 3.3803,-10.1409 6.7606,10.1409 m 513.8028,-10.1409 3.3803,3.3803 -3.3803,-3.3803 m 1723.9437,0 -6.7606,6.7606 6.7606,-6.7606 m 314.3662,0 -3.3803,3.3803 3.3803,-3.3803 m -5780.2818,3.3803 3.3802,6.7606 -3.3802,-6.7606 m -1882.817,3.3803 -3.3803,3.3803 3.3803,-3.3803 m 6.7606,0 -3.3803,3.3803 3.3803,-3.3803 m 11388.169,3.3803 v 10.1408 h 27.043 v 13.5211 h 13.521 v 13.5212 h 13.521 v 13.5211 h 10.141 v 37.1831 h 13.521 c 0,15.8805 7.707,52.9724 -13.521,54.0845 v 37.1831 h -10.141 v 13.5211 h -13.521 v 13.5211 h -13.521 v 13.5212 h -27.043 v 13.5211 h -77.746 v -13.5211 h -23.662 v -13.5212 h -27.042 v -27.0422 h -13.522 v -13.5211 H 12720 v -101.4085 h 13.521 l 3.381,-23.662 h 3.38 v 10.1409 l 6.761,-27.0423 h 27.042 v -13.5211 h 23.662 c 4.056,-18.8958 60.642,-10.1408 77.746,-10.1408 m -11350.9859,3.3802 -6.7606,6.7606 6.7606,-6.7606 m 1805.0704,3.3803 v 3.3803 h -10.1408 l 10.1408,-3.3803 m 747.0423,-3.3803 3.3803,3.3803 -3.3803,-3.3803 m -3353.2395,3.3803 -3.38028,3.3803 3.38028,-3.3803 m 3346.479,0 -3.3803,3.3803 3.3803,-3.3803 m 2585.9155,6.7606 -3.3803,3.3803 3.3803,-3.3803 m -5110.986,3.3803 h 3.3803 3.3802 v 3.3802 h -10.1408 l 3.3803,-3.3802 m 1247.3239,0 -3.3802,3.3802 3.3802,-3.3802 m 507.0423,0 -3.3803,3.3802 3.3803,-3.3802 m 2082.2536,0 -3.3803,3.3802 3.3803,-3.3802 m 1270.9859,3.3802 -3.3803,3.3803 3.3803,-3.3803 m -5949.29589,6.7606 6.76056,6.7606 -6.76056,-6.7606 m 2562.25359,0 3.3803,3.3803 -3.3803,-3.3803 m 5756.6198,0 -3.3802,3.3803 3.3802,-3.3803 m 6.7606,0 -3.3803,3.3803 3.3803,-3.3803 m 3725.0704,3.3803 3.38,3.3803 -3.38,-3.3803 m -3731.831,3.3803 -3.3802,3.3803 3.3802,-3.3803 m 6.7606,0 -3.3803,3.3803 3.3803,-3.3803 m 3755.4934,3.3803 v 141.9718 h 13.521 v -50.7042 h 13.521 c 4.056,-13.5753 11.256,-13.4029 23.662,-16.9014 l 3.38,16.9014 h 13.521 v 27.0422 l 10.141,10.1409 h 13.521 v 13.5211 h 13.521 v -13.5211 h -13.521 v -23.662 h -13.521 v -27.0423 h 27.042 v -13.5211 h 13.522 v -37.1831 h -13.522 v -13.5211 c -13.284,0.1589 -22.512,-0.1555 -27.042,13.5211 l 13.521,-3.3803 v 16.9014 l 13.521,10.1409 h -13.521 v 13.5211 h -77.746 l 3.38,-40.5634 10.141,3.3803 -3.38,-10.1408 c 13.555,-4.6243 44.383,1.4095 47.324,-13.5212 h 3.38 v 10.1409 h 3.38 v -13.5211 l -67.605,6.7605 v -6.7605 h -3.381 -6.76 m -3789.2962,3.3802 3.3803,3.3803 -3.3803,-3.3803 m 3819.7182,0 h 3.38 3.381 v 3.3803 h -10.141 l 3.38,-3.3803 m 16.902,0 -6.761,6.7606 6.761,-6.7606 m 6.76,0 3.38,6.7606 -3.38,-6.7606 m 10.141,0 3.38,6.7606 -3.38,-6.7606 m -8721.127,3.3803 -3.3802,3.3803 3.3802,-3.3803 m 5780.2819,0 -3.3803,3.3803 3.3803,-3.3803 m 2886.7611,0 6.76,10.1409 -13.521,-3.3803 6.761,-6.7606 m 13.521,0 -3.381,3.3803 3.381,-3.3803 m -263.662,6.7606 v 10.1408 h -3.381 l 3.381,-10.1408 m 263.662,0 -3.381,3.3803 3.381,-3.3803 m 60.845,3.3803 h 3.38 3.38 v 3.3802 h -10.141 l 3.381,-3.3802 m -67.606,3.3802 -3.38,3.3803 3.38,-3.3803 m 6.761,0 -3.381,3.3803 3.381,-3.3803 m -8278.3104,10.1409 -3.3803,3.3803 3.3803,-3.3803 m 3579.7184,10.1408 h -3.3803 c -2.1972,-6.6253 -3.3803,-8.6332 -3.3803,0 h -3.3803 l 3.3803,-10.1408 6.7606,10.1408 m 1781.4085,-10.1408 h 3.3802 3.3803 v 10.1408 h -10.1408 l 3.3803,-10.1408 m 2991.5495,0 h 3.38 3.38 v 3.3803 h -10.14 l 3.38,-3.3803 m -1710.423,3.3803 3.381,3.3803 -3.381,-3.3803 m 534.085,0 -3.381,3.3803 3.381,-3.3803 m -8484.5075,3.3803 -3.3803,3.3802 3.3803,-3.3802 m 1311.5494,0 -3.3803,3.3802 3.3803,-3.3802 m 4407.8874,6.7605 3.3803,3.3803 -3.3803,-3.3803 m 4005.6337,0 -3.38,3.3803 3.38,-3.3803 m 6.761,0 -3.381,3.3803 3.381,-3.3803 m -11344.2259,3.3803 -3.3803,3.3803 3.3803,-3.3803 m 7321.6903,6.7606 -3.3802,3.3802 3.3802,-3.3802 m 6.7606,0 -3.3803,3.3802 3.3803,-3.3802 m 2754.93,0 v 10.1408 h -3.381 l 3.381,-10.1408 m -2761.6906,6.7605 -3.3802,3.3803 3.3802,-3.3803 m 6.7606,0 -3.3803,3.3803 3.3803,-3.3803 m 3877.183,6.7606 3.38,6.7606 -3.38,-6.7606 m 10.141,0 -3.38,3.3803 3.38,-3.3803 m 6.761,0 -3.381,3.3803 3.381,-3.3803 m 6.76,0 -3.38,3.3803 3.38,-3.3803 m -2440.563,3.3803 -3.381,3.3803 3.381,-3.3803 m 2447.324,3.3803 -3.381,3.3802 3.381,-3.3802 m -10941.9724,6.7605 -3.3802,10.1409 h -3.3803 l 6.7605,-10.1409 m 3854.6367,2.2547 1.1493,2.2512 -1.1493,-2.2512 m 2125.0818,-2.2547 3.3803,3.3803 -3.3803,-3.3803 m 162.2535,0 3.3803,3.3803 -3.3803,-3.3803 m 3633.8034,3.3803 3.38,3.3803 -3.38,-3.3803 m -3796.0569,3.3803 3.3803,3.3803 -3.3803,-3.3803 m -4999.4367,6.7605 3.3802,3.3803 v 3.3803 l -3.3802,3.3803 h -3.3803 l -3.3803,-3.3803 v -3.3803 l 6.7606,-3.3803 m 2579.1549,10.1409 h -3.3802 c -2.1972,-6.6254 -3.3803,-8.6333 -3.3803,0 h -3.3803 l 3.3803,-10.1409 6.7605,10.1409 m 1277.7466,-10.1409 h 3.3802 3.3803 v 10.1409 h -10.1408 l 3.3803,-10.1409 m 4766.1971,0 -3.38,3.3803 3.38,-3.3803 m 6.761,0 -3.381,3.3803 3.381,-3.3803 m -8633.2399,3.3803 3.3803,3.3803 -3.3803,-3.3803 m 8258.0279,0 -3.38,3.3803 3.38,-3.3803 m -3268.732,6.7606 3.3802,6.7606 -3.3802,-6.7606 m -3414.0846,3.3803 v 10.1408 h -3.3803 l 3.3803,-10.1408 m 8498.0286,0 -3.381,3.3803 3.381,-3.3803 m 6.76,0 3.381,3.3803 -3.381,-3.3803 m -5094.0843,3.3803 -3.3803,3.3802 3.3803,-3.3802 m 2890.1413,0 -3.381,3.3802 3.381,-3.3802 m 2190.422,0 3.38,6.7605 -3.38,-6.7605 m -77.746,3.3802 -3.381,3.3803 3.381,-3.3803 m 91.267,0 3.381,3.3803 -3.381,-3.3803 m -4935.2111,6.7606 h 3.3803 3.3803 v 3.3803 h -10.1409 l 3.3803,-3.3803 m 1581.9719,0 6.7606,6.7606 -6.7606,-6.7606 m 777.4652,1.1256 c 2.602,0 0.54,1.6834 -1.116,1.129 l 1.116,-1.129 m 1098.591,5.635 3.38,3.3802 v 3.3803 l -3.38,3.3803 h -3.38 l -3.38,-3.3803 v -3.3803 l 6.76,-3.3802 m -3.38,3.3802 3.38,3.3803 -3.38,-3.3803 m -1889.5776,10.1409 h 3.3803 3.3802 v 10.1408 h -10.1408 l 3.3803,-10.1408 m -2582.5353,3.3803 3.3803,3.3803 -3.3803,-3.3803 m 1855.7747,0 3.3803,3.3803 -3.3803,-3.3803 m 1882.8172,0 3.38,6.7605 -3.38,-6.7605 m 1990.986,0 -3.381,3.3803 3.381,-3.3803 m 6.76,0 -3.38,3.3803 3.38,-3.3803 m 43.944,0 3.38,3.3803 -3.38,-3.3803 m 6.761,0 3.38,3.3803 -3.38,-3.3803 m 84.507,0 3.38,3.3803 -3.38,-3.3803 m 6.76,0 3.38,3.3803 -3.38,-3.3803 m -4147.6056,3.3803 3.3803,3.3802 -3.3803,-3.3802 m 4002.2536,3.3802 -3.38,3.3803 3.38,-3.3803 m 47.324,0 3.38,3.3803 -3.38,-3.3803 m 91.268,0 3.38,3.3803 -3.38,-3.3803 m -12246.76131,10.1409 -3.38028,3.3803 3.38028,-3.3803 m 8092.39461,6.7605 3.3802,3.3803 v 3.3803 l -3.3802,3.3803 h -3.3803 l -3.3803,-3.3803 v -3.3803 l 6.7606,-3.3803 m -3.3803,3.3803 3.3803,3.3803 -3.3803,-3.3803 m 1467.042,10.1409 -6.76,6.7605 6.76,-6.7605 m -9579.71828,3.3803 3.38028,3.3802 -3.38028,-3.3802 m 2491.26768,0 3.3803,3.3802 -3.3803,-3.3802 m 7632.6766,0 3.38,6.7605 -3.38,-6.7605 m 2061.972,0 -3.381,3.3802 3.381,-3.3802 m 0,6.7605 -3.381,3.3803 3.381,-3.3803 m -11550.4233,3.3803 v 10.1408 h 27.0422 v 91.2677 h -13.5211 v 27.0422 h -13.5211 v 27.0423 h -13.5211 v 23.6619 h -13.5212 c 0,12.4631 4.9217,35.2902 -10.1408,37.1831 v 27.0423 c -14.4507,1.9944 -13.3825,14.6028 -13.5211,27.0422 h -13.5212 v 27.0423 h -13.5211 v 23.662 h -13.5211 v 27.0422 h -13.5211 v 27.0423 h -10.1409 v 23.662 h -13.5211 v 27.0422 h -13.5211 v 13.5211 h -13.5212 v 13.5212 h -16.9014 l 3.3803,13.5211 -13.5211,-10.1409 3.3803,10.1409 h -27.0423 c -3.8873,18.1521 -48.43605,10.1408 -64.22535,10.1408 H 763.94368 v -37.1831 h 13.52113 v -27.0422 h 13.52112 v -23.662 h 13.52113 v -27.0422 h 13.52113 v -40.5634 h 10.14084 v -23.662 h 13.52113 v -27.0423 h 13.52113 v -27.0422 h 13.52113 v -23.662 h 13.52112 v -27.0422 h 13.52113 v -37.1831 c 13.07155,-1.7071 10.14084,-16.1105 10.14084,-27.0423 h 13.52113 v -27.0422 h 13.52113 v -23.662 h 13.52113 v -27.0423 h 13.52112 v -27.0422 h 13.52113 v -23.662 h 270.42255 m 1240.5634,0 16.9014,10.1408 v 13.5212 h 13.5211 v 64.2253 h -13.5211 v 27.0423 h -13.5211 v 27.0422 h -13.5211 v 23.662 h -13.5212 v 40.5634 h -3.3803 l -3.3802,-6.7606 -6.7606,3.3803 v 30.4225 h -10.1408 v 23.662 h -13.5212 v 27.0423 h -13.5211 v 27.0422 h -13.5211 v 23.662 h -13.5212 v 27.0423 h -3.3802 l -3.3803,-6.7606 -6.7606,3.3803 v 16.9014 h -10.1408 v 13.5211 h -13.5212 v 10.1409 h -27.0422 v 13.5211 h -37.1831 v 13.5211 h -273.8028 v -37.1831 h 13.5211 v -27.0422 h 13.5211 v -27.0423 h 13.5212 v -23.662 h 10.1408 v -27.0422 h 13.5211 l 3.3803,-40.5634 6.7606,6.7606 3.3803,-30.4226 13.5211,3.3803 v -30.4225 h 13.5211 v -27.0423 h 13.5211 v -23.662 h 10.1409 v -27.0422 h 13.5211 v -27.0423 h 13.5211 v -23.6619 h 13.5212 v -27.0423 h 13.5211 v -27.0423 h 13.5211 v -10.1408 h 280.5634 m 1003.9437,0 h 267.0422 v 10.1408 h 13.5212 v 13.5212 h 13.5211 v 54.0845 h -13.5211 v 23.662 h -13.5212 v 27.0422 h -10.1408 v 27.0423 h -13.5211 v 33.8028 l -3.3803,3.3803 -6.7606,-3.3803 -3.3803,30.4225 h -13.5211 v 23.662 h -13.5211 v 27.0422 h -13.5211 v 27.0423 h -10.1409 v 23.662 h -13.5211 v 27.0422 h -13.5211 v 27.0423 l -13.5212,10.1408 h 3.3803 v -6.7605 h 3.3803 l -6.7606,33.8028 -13.5211,-3.3803 v 30.4225 h -13.5211 v 27.0423 h -10.1409 v 23.662 h -13.5211 v 27.0422 h -13.5211 v 27.0423 h -13.5211 v 23.6619 h -13.5212 v 37.1831 l -3.3802,3.3803 -6.7606,-3.3803 -3.3803,27.0423 h -10.1408 v 27.0422 h -13.5212 v 27.0423 h -13.5211 v 23.662 h -13.5211 v 27.0422 h -13.5211 v 27.0423 h -13.5212 v 37.1831 c -13.0817,1.7239 -10.1408,16.1239 -10.1408,27.0422 h -13.5211 v 27.0423 h -13.5212 v 23.662 h -13.5211 v 27.0422 h -13.5211 v 23.662 l -3.3803,3.3803 -6.7606,-3.3803 -13.5211,13.5211 v 13.5211 h -13.5211 v 13.5212 h -13.5212 v 13.5211 h -27.0422 v 13.5211 h -270.4226 v -13.5211 h -13.5211 v -64.2254 h 13.5211 v -27.0422 h 13.5212 v -37.1831 h 3.3803 l 3.3802,6.7606 v -6.7606 h 3.3803 v 6.7606 h 3.3803 v -33.8029 h 10.1408 v -27.0422 h 13.5212 v -23.662 h 13.5211 v -27.0422 h 13.5211 v -27.0423 h 13.5212 v -23.662 h 13.5211 v -40.5634 l 10.1408,-27.0422 h 13.5212 v -23.662 h 13.5211 v -27.0422 h 13.5211 v -27.0423 h 13.5211 v -23.662 h 13.5212 v -37.1831 l 3.3802,-3.3802 6.7606,3.3802 v -27.0422 h 13.5211 v -27.0423 h 13.5212 v -27.0422 h 13.5211 v -23.662 h 13.5211 v -27.0422 h 10.1409 v -27.0423 h 13.5211 v -37.1831 l 13.5211,3.3803 v -30.4226 h 13.5211 v -27.0422 h 13.5212 v -23.662 h 13.5211 v -27.0422 h 10.1408 v -27.0423 h 13.5212 v -23.662 h 13.5211 v -40.5633 h 13.5211 v -23.662 h 13.5212 v -13.5211 h 13.5211 v -27.0423 h 10.1408 v -13.5211 h 13.5212 v -13.5212 l 30.4225,-10.1408 m 1308.169,0 h 3.3803 3.3803 v 3.3803 h -10.1408 l 3.3802,-3.3803 m 1548.1691,0 16.9014,10.1408 v 13.5212 h 13.5211 v 64.2253 h -13.5211 v 27.0423 h -13.5211 v 27.0422 h -13.5212 v 23.662 l -13.5211,10.1409 h 3.3803 v -6.7606 h 3.3803 l -6.7606,37.1831 -10.1408,-3.3803 -3.3803,30.4225 h -10.1409 v 23.662 h -13.5211 v 27.0423 h -13.5211 v 27.0422 h -13.5211 v 23.662 h -13.5212 v 27.0423 l -10.1408,-3.3803 -3.3803,16.9014 h -10.1408 v 13.5211 h -13.5212 v 10.1409 h -27.0422 v 13.5211 h -37.1831 v 13.5211 h -273.8028 v -37.1831 h 13.5211 v -27.0422 h 13.5211 v -27.0423 h 13.5211 v -23.662 h 10.1409 c 0,-15.8535 -4.1916,-34.6817 13.5211,-40.5634 v -27.0422 h 13.5211 v -23.662 h 13.5212 v -27.0422 h 13.5211 v -27.0423 h 13.5211 v -33.8028 h 10.1409 v -30.4225 h 13.5211 v -23.662 h 13.5211 v -27.0423 h 13.5211 v -27.0422 h 13.5212 v -23.662 h 216.338 77.7465 m -4705.3522,3.3803 -3.3803,3.3803 3.3803,-3.3803 m 836.0552,2.2546 1.129,2.2513 -1.129,-2.2513 m 6.7606,0 1.129,2.2513 -1.129,-2.2513 m 1009.5786,-2.2546 6.7605,6.7605 -6.7605,-6.7605 m 2562.2536,0 3.3802,3.3803 -3.3802,-3.3803 m 6.7605,0 3.3803,3.3803 -3.3803,-3.3803 m 6724.4958,2.2546 1.149,2.2513 -1.149,-2.2513 m -6450.693,1.1257 3.3803,3.3802 -3.3803,-3.3802 m 6.7606,0 3.3803,3.3802 -3.3803,-3.3802 m 4732.3944,0 -3.38,3.3802 3.38,-3.3802 m -1791.5493,3.3802 -6.7605,6.7606 v -6.7606 h 6.7605 m -6196.0564,3.3803 3.3802,3.3803 -3.3802,-3.3803 m 1686.7606,0 3.3802,3.3803 -3.3802,-3.3803 m 3214.6479,0 3.3803,3.3803 -3.3803,-3.3803 m 436.0564,0 3.3803,3.3803 -3.3803,-3.3803 m 6.7605,0 3.3803,3.3803 -3.3803,-3.3803 m 3542.5353,0 v 10.1409 l 10.141,-10.1409 h -10.141 m -10712.1129,3.3803 3.3803,3.3803 -3.3803,-3.3803 m 2203.9437,0 3.3803,3.3803 -3.3803,-3.3803 m 5820.8452,0 3.3803,3.3803 -3.3803,-3.3803 m -4512.6761,3.3803 3.3802,3.3803 -3.3802,-3.3803 m 3654.0846,0 3.3802,3.3803 -3.3802,-3.3803 m -6240.0002,6.7606 -6.7606,6.7605 6.7606,-6.7605 m 1977.4648,0 v 10.1408 h 3.3803 l -3.3803,-10.1408 m 5638.31,0 -3.3802,3.3802 3.3802,-3.3802 m 0,6.7605 -3.3802,3.3803 3.3802,-3.3803 m -5056.9015,6.7606 -3.3803,3.3803 3.3803,-3.3803 m 6.7606,3.3803 -3.3803,3.3802 3.3803,-3.3802 m 682.8169,10.1408 -3.3803,3.3803 3.3803,-3.3803 m 4350.4226,0 h 3.3803 3.3803 v 10.1409 h -10.1409 l 3.3803,-10.1409 m 1818.5913,0 3.381,6.7606 -3.381,-6.7606 m -3.38,6.7606 -3.38,3.3803 3.38,-3.3803 m -7453.5213,3.3803 h 3.3803 3.3803 v 10.1408 h -10.1408 l 3.3802,-10.1408 m -733.5211,16.9014 3.3803,3.3802 -3.3803,-3.3802 m -561.1268,6.7605 h 3.3803 3.3803 v 10.1409 h -10.1409 l 3.3803,-10.1409 m 3860.2818,0 v 10.1409 h -3.3803 l 3.3803,-10.1409 m 1264.2254,3.3803 -6.7606,10.1409 6.7606,-10.1409 m 2371.842,5.6349 -1.149,2.2513 1.149,-2.2513 m -5.645,1.1257 -3.38,3.3803 3.38,-3.3803 m -5266.4788,6.7605 v 3.3803 l -3.3803,6.7606 h -3.3802 l -3.3803,-6.7606 10.1408,-3.3803 m -3275.493,6.7606 v 3.3803 h -10.1409 l 10.1409,-3.3803 m 3859.1663,-1.1256 -1.1493,2.2512 1.1493,-2.2512 m 5345.3405,-2.2547 -3.38,3.3803 3.38,-3.3803 m -7609.0138,3.3803 3.3803,3.3803 -3.3803,-3.3803 m 8528.4508,3.3803 -6.76,6.7605 6.76,-6.7605 m -4989.2958,3.3803 3.3803,6.7605 -3.3803,-6.7605 m -5334.0846,10.1408 -6.7606,6.7606 6.7606,-6.7606 m 1784.7887,3.3803 3.3803,6.7606 -3.3803,-6.7606 m 743.662,0 3.3803,3.3803 -3.3803,-3.3803 m 202.8169,0 h 3.3803 3.3803 v 10.1408 h -10.1409 l 3.3803,-10.1408 m 1656.3381,0 6.7606,10.1408 -6.7606,-10.1408 m -936.3381,3.3803 3.3803,3.3803 -3.3803,-3.3803 m -926.1972,3.3803 3.3803,3.3802 -3.3803,-3.3802 m 1264.2254,3.3802 6.7606,10.1409 -6.7606,-10.1409 m 5952.6766,0 -3.381,3.3803 3.381,-3.3803 m -4421.4089,3.3803 h 3.3802 3.3803 v 10.1409 h -10.1408 l 3.3803,-10.1409 m 4413.5329,2.2547 -1.15,2.2512 1.15,-2.2512 m 575.763,-2.2547 -3.38,3.3803 3.38,-3.3803 m -567.887,3.3803 -3.381,3.3803 3.381,-3.3803 m -7233.8034,6.7606 -3.3802,3.3802 3.3802,-3.3802 m 6.7606,0 -3.3803,3.3802 3.3803,-3.3802 m 6561.1268,0 h 3.38 3.381 v 3.3802 h -10.141 l 3.38,-3.3802 m -10134.08463,6.7605 v 3.3803 h -10.14085 l 10.14085,-3.3803 m 358.30986,-3.3803 -3.38028,6.7606 3.38028,-6.7606 m 1568.45077,10.1409 3.3803,6.7606 -3.3803,-6.7606 m 3863.662,0 -3.3802,3.3803 3.3802,-3.3803 m -3867.0423,6.7606 -3.3803,3.3802 3.3803,-3.3802 m 3867.0423,0 -3.3802,3.3802 3.3802,-3.3802 m -2616.3381,3.3802 v 10.1409 h 10.1409 v -10.1409 h -10.1409 m -2829.29579,6.7606 -3.38029,3.3803 3.38029,-3.3803 m 10424.78889,0 3.38,3.3803 -3.38,-3.3803 m -8859.7184,6.7606 -3.3803,6.7605 3.3803,-6.7605 m 2220.8451,0 v 10.1408 h -10.1409 l 10.1409,-10.1408 m 1632.6761,3.3802 3.3803,3.3803 -3.3803,-3.3803 m 7.876,2.2547 1.1493,2.2513 -1.1493,-2.2513 m 4349.3072,-2.2547 h 3.38 3.381 v 3.3803 h -10.141 l 3.38,-3.3803 m -9454.6481,10.1409 v 10.1408 h 3.3803 l -3.3803,-10.1408 m 6037.1832,0 3.3803,6.7606 -3.3803,-6.7606 m 2836.0569,3.3803 3.38,3.3803 -3.38,-3.3803 m 861.971,0 -3.38,3.3803 3.38,-3.3803 m -3701.4082,3.3803 -3.3802,3.3802 3.3802,-3.3802 m 3693.5322,2.2546 -1.149,2.2513 1.149,-2.2513 m -854.095,1.1256 3.38,3.3803 -3.38,-3.3803 m 861.971,0 -3.38,3.3803 3.38,-3.3803 m -8852.9576,6.7606 v 10.1408 h 3.3803 l -3.3803,-10.1408 m 344.7888,0 3.3802,3.3803 -3.3802,-3.3803 m 2220.8451,3.3803 -3.3803,3.3803 3.3803,-3.3803 m -1865.9156,6.7605 v 6.7606 l -6.7605,-6.7606 h 6.7605 m 3860.2818,0 v 6.7606 l -6.7605,-6.7606 h 6.7605 m 2180.2818,0 -6.7606,6.7606 6.7606,-6.7606 m -5844.5072,3.3803 -3.3803,3.3803 3.3803,-3.3803 m 7081.6899,0 -3.38,3.3803 3.38,-3.3803 m -2096.8898,9.0254 -1.1493,2.231 1.1493,-2.231 m 7.8761,-2.2648 -3.3803,3.3803 3.3803,-3.3803 m 848.4507,3.3803 3.3803,3.3803 -3.3803,-3.3803 m 344.7887,0 h 3.3803 3.3803 v 10.1408 h -10.1409 l 3.3803,-10.1408 m 2335.7743,0 v 10.1408 h -3.38 l 3.38,-10.1408 m -9434.366,3.3803 v 3.3802 h 10.1409 v -3.3802 h -10.1409 m 5905.3523,0 -3.3803,3.3802 3.3803,-3.3802 m 845.0704,3.3802 3.3803,3.3803 -3.3803,-3.3803 m 875.493,0 -3.3803,3.3803 3.3803,-3.3803 m -1730.7043,6.7606 v 10.1408 h 3.3803 l -3.3803,-10.1408 m 351.5493,0 3.3803,10.1408 h -10.1408 l 6.7605,-10.1408 m 1984.2253,0 -3.38,3.3803 3.38,-3.3803 m -1129.014,3.3803 -3.3803,3.3803 3.3803,-3.3803 m 1129.014,3.3803 -3.38,3.3802 3.38,-3.3802 m -8771.8311,6.7605 v 10.1409 h 3.3803 l -3.3803,-10.1409 m 4390.986,0 3.3803,3.3803 -3.3803,-3.3803 m 3762.2537,0 3.3802,3.3803 v 3.3803 l -3.3802,3.3803 h -3.3803 l -3.3803,-3.3803 v -3.3803 l 6.7606,-3.3803 m -1369.0142,3.3803 -3.3802,3.3803 3.3802,-3.3803 m 1365.6339,0 3.3803,3.3803 -3.3803,-3.3803 m -3762.2536,3.3803 3.3802,3.3803 -3.3802,-3.3803 m 5577.4653,0 -3.381,3.3803 3.381,-3.3803 m -9796.057,20.2817 v 10.1408 h -3.3803 l 3.3803,-10.1408 m 1605.6339,0 -3.3803,3.3803 v 3.3802 l 3.3803,3.3803 h 3.3802 l 3.3803,-3.3803 v -3.3802 l -6.7605,-3.3803 m 2254.6479,0 3.3803,6.7605 -3.3803,-6.7605 m -2251.2677,3.3803 -3.3802,3.3802 3.3802,-3.3802 m 2599.4367,0 -3.3803,3.3802 3.3803,-3.3802 m 4969.0142,13.5211 v 3.3803 h -10.141 l 10.141,-3.3803 m 953.239,-3.3803 6.761,6.7606 -6.761,-6.7606 m -4637.7461,6.7606 v 13.5211 h -3.3803 l -3.3803,-13.5211 h 6.7606 m -6375.21143,3.3803 3.38028,3.3802 -3.38028,-3.3802 m 872.11273,0 3.3802,3.3802 v 3.3803 l -3.3802,3.3803 h -3.3803 l -3.3803,-3.3803 v -3.3803 l 6.7606,-3.3802 m -3.3803,3.3802 3.3803,3.3803 -3.3803,-3.3803 m 3863.662,0 3.3803,6.7606 h -6.7605 l 3.3802,-6.7606 m -4732.39443,3.3803 3.38028,3.3803 -3.38028,-3.3803 m 6016.90153,10.1409 -3.3803,3.3802 3.3803,-3.3802 m -4461.9719,6.7605 -3.3803,6.7606 3.3803,-6.7606 m 1642.8169,0 -3.3803,3.3803 3.3803,-3.3803 m 5.6451,2.2648 -1.1493,2.231 1.1493,-2.231 m -3578.60291,1.1155 h 3.38029 3.38028 l -10.14085,10.1409 3.38028,-10.1409 m 5783.66211,0 3.3803,3.3803 -3.3803,-3.3803 m 7.8761,2.2648 1.1493,2.231 -1.1493,-2.231 m 4961.1386,-2.2648 -3.381,3.3803 3.381,-3.3803 m -7179.719,3.3803 -3.3803,3.3803 3.3803,-3.3803 m 3613.5212,20.2817 h 3.3803 3.3803 v 3.3803 h -10.1408 l 3.3802,-3.3803 m -7203.38042,3.3803 3.38029,3.3802 -3.38029,-3.3802 m 3211.26772,0 -3.3803,3.3802 3.3803,-3.3802 m 0,6.7605 -3.3803,3.3803 3.3803,-3.3803 m 7533.5325,5.6451 -1.149,2.231 1.149,-2.231 m -5.645,1.1155 -3.38,3.3803 3.38,-3.3803 m -564.507,6.7606 3.38,3.3802 v 3.3803 l -3.38,3.3803 h -3.38 l -3.381,-3.3803 v -3.3803 l 6.761,-3.3802 m -6990.4228,3.3802 3.3803,3.3803 -3.3803,-3.3803 m 6.7606,0 3.3803,3.3803 -3.3803,-3.3803 m 6980.2822,0 3.38,3.3803 -3.38,-3.3803 m -2978.0286,3.3803 -3.3803,3.3803 3.3803,-3.3803 m 3190.9856,10.1409 3.381,10.1408 h -3.381 -3.38 l 3.38,-10.1408 m -8525.0702,3.3802 -3.3803,3.3803 3.3803,-3.3803 m 3860.2817,0 -3.3802,3.3803 3.3802,-3.3803 m -1301.4084,10.1409 -3.3803,3.3803 3.3803,-3.3803 m 6.7605,0 -3.3803,3.3803 3.3803,-3.3803 m 6.7606,0 -3.3803,3.3803 3.3803,-3.3803 m 6.7605,0 -3.3802,3.3803 3.3802,-3.3803 m 6.7606,0 -3.3803,3.3803 3.3803,-3.3803 m 6.7606,0 -3.3803,3.3803 3.3803,-3.3803 m 6.7605,0 -3.3802,3.3803 3.3802,-3.3803 m 6.7606,0 -3.3803,3.3803 3.3803,-3.3803 m 6.7606,0 -3.3803,3.3803 3.3803,-3.3803 m 6.7605,0 -3.3803,3.3803 3.3803,-3.3803 m 6.7606,0 -3.3803,3.3803 3.3803,-3.3803 m 6.7606,0 -3.3803,3.3803 3.3803,-3.3803 m 6.7605,0 -3.3803,3.3803 3.3803,-3.3803 m 6.7606,0 -3.3803,3.3803 3.3803,-3.3803 m 6.7605,0 -3.3802,3.3803 3.3802,-3.3803 m 6.7606,0 -3.3803,3.3803 3.3803,-3.3803 m 6.7606,0 -3.3803,3.3803 3.3803,-3.3803 m 6.7605,0 -3.3802,3.3803 3.3802,-3.3803 m 6.7606,0 -3.3803,3.3803 3.3803,-3.3803 m 6.7606,0 -3.3803,3.3803 3.3803,-3.3803 m 6.7605,0 -3.3803,3.3803 3.3803,-3.3803 m 6.7606,0 -3.3803,3.3803 3.3803,-3.3803 m 6.7606,0 -3.3803,3.3803 3.3803,-3.3803 m 6.7605,0 -3.3803,3.3803 3.3803,-3.3803 m 6.7606,0 -3.3803,3.3803 3.3803,-3.3803 m 6.7605,0 -3.3802,3.3803 3.3802,-3.3803 m 6.7606,0 -3.3803,3.3803 3.3803,-3.3803 m 6.7606,0 -3.3803,3.3803 3.3803,-3.3803 m 6.7605,0 -3.3802,3.3803 3.3802,-3.3803 m 6.7606,0 -3.3803,3.3803 3.3803,-3.3803 m 6.7606,0 -3.3803,3.3803 3.3803,-3.3803 m 6.7605,0 -3.3803,3.3803 3.3803,-3.3803 m 6.7606,0 -3.3803,3.3803 3.3803,-3.3803 m 6.7606,0 -3.3803,3.3803 3.3803,-3.3803 m 6.7605,0 -3.3803,3.3803 3.3803,-3.3803 m 6.7606,0 -3.3803,3.3803 3.3803,-3.3803 m 6.7605,0 -3.3802,3.3803 3.3802,-3.3803 m 6.7606,0 -3.3803,3.3803 3.3803,-3.3803 m 6.7606,0 -3.3803,3.3803 3.3803,-3.3803 m 6.7605,0 -3.3802,3.3803 3.3802,-3.3803 m 6.7606,0 -3.3803,3.3803 3.3803,-3.3803 m 6.7606,0 -3.3803,3.3803 3.3803,-3.3803 m 6.7605,0 -3.3803,3.3803 3.3803,-3.3803 m 6.7606,0 -3.3803,3.3803 3.3803,-3.3803 m 6.7606,0 -3.3803,3.3803 3.3803,-3.3803 m 6.7605,0 -3.3803,3.3803 3.3803,-3.3803 m 6.7606,0 -3.3803,3.3803 3.3803,-3.3803 m 6.7605,0 -3.3802,3.3803 3.3802,-3.3803 m 6.7606,0 -3.3803,3.3803 3.3803,-3.3803 m 6.7606,0 -3.3803,3.3803 3.3803,-3.3803 m 6.7605,0 -3.3802,3.3803 3.3802,-3.3803 m 6.7606,0 -3.3803,3.3803 3.3803,-3.3803 m 6.7606,0 -3.3803,3.3803 3.3803,-3.3803 m 6.7605,0 -3.3803,3.3803 3.3803,-3.3803 m 6.7606,0 -3.3803,3.3803 3.3803,-3.3803 m 6.7606,0 -3.3803,3.3803 3.3803,-3.3803 m 6.7605,0 -3.3803,3.3803 3.3803,-3.3803 m 6.7606,0 -3.3803,3.3803 3.3803,-3.3803 m 6.7605,0 -3.3802,3.3803 3.3802,-3.3803 m 6.7606,0 -3.3803,3.3803 3.3803,-3.3803 m 10.1409,0 -3.3803,3.3803 3.3803,-3.3803 m 5009.5778,0 -3.381,3.3803 3.381,-3.3803 m -5002.8173,3.3803 h 3.3803 3.3803 v 3.3803 h -10.1409 l 3.3803,-3.3803 m 5885.0703,0 3.381,3.3803 -3.381,-3.3803 m -6297.4647,3.3803 -3.3802,3.3802 3.3802,-3.3802 m 392.1127,0 -3.3803,3.3802 3.3803,-3.3802 m 10.1409,0 -3.3803,3.3802 3.3803,-3.3802 m 5016.3381,0 -3.38,3.3802 3.38,-3.3802 m 324.507,3.3802 -3.38,3.3803 3.38,-3.3803 m -9136.9016,3.3803 -3.3802,6.7606 3.3802,-6.7606 m 9130.1416,0 -3.381,3.3803 3.381,-3.3803 m 834.929,0 -3.38,3.3803 3.38,-3.3803 m -828.169,3.3803 -3.38,3.3803 3.38,-3.3803 m -9133.5213,3.3803 3.3803,3.3803 -3.3803,-3.3803 m 9958.3103,0 -3.38,3.3803 3.38,-3.3803 m -10353.8032,3.3803 6.7605,6.7605 -6.7605,-6.7605 m 8900.2819,0 3.3802,6.7605 -3.3802,-6.7605 m -5239.4368,6.7605 -3.3803,3.3803 3.3803,-3.3803 m 5246.1973,3.3803 3.3803,3.3803 -3.3803,-3.3803 m -8528.4509,3.3803 -3.3803,3.3803 3.3803,-3.3803 m -392.1127,3.3803 -3.3803,3.3803 3.3803,-3.3803 m 2180.2818,0 3.3803,3.3803 -3.3803,-3.3803 m 1308.169,0 3.3803,3.3803 -3.3803,-3.3803 m -3495.2113,3.3803 -3.3803,3.3802 3.3803,-3.3802 m 8552.1128,0 -3.3802,3.3802 3.3802,-3.3802 m 2629.8591,13.5211 h -3.38 c -2.197,-6.6254 -3.38,-8.6197 -3.38,0 h -3.381 l 3.381,-10.1409 6.76,10.1409 m -7517.7465,-6.7606 h 3.3803 3.3803 v 10.1409 h -10.1409 l 3.3803,-10.1409 m 5242.817,0 -3.3802,3.3803 3.3802,-3.3803 m 6.7606,0 -3.3803,3.3803 3.3803,-3.3803 m 294.0849,0 h 3.38 3.38 v 10.1409 h -10.141 l 3.381,-10.1409 m -8815.7752,10.1409 v 10.1408 h -10.1409 l 10.1409,-10.1408 m 3089.5775,0 -3.3803,3.3802 3.3803,-3.3802 m -1308.1691,3.3802 v 10.1409 h 3.3803 l -3.3803,-10.1409 m 1308.1691,3.3803 -3.3803,3.3803 3.3803,-3.3803 m 4661.4086,0 h 3.3802 3.3803 v 3.3803 h -10.1408 l 3.3803,-3.3803 m -6327.8875,10.1409 3.3803,10.1408 h -10.1409 l 6.7606,-10.1408 m 1835.493,0 3.3803,3.3803 -3.3803,-3.3803 m 4492.3945,0 -3.3803,3.3803 3.3803,-3.3803 m 6.7605,0 -3.3803,3.3803 3.3803,-3.3803 m 0,6.7605 -3.3803,3.3803 3.3803,-3.3803 m -351.5493,3.3803 -3.3803,3.3803 3.3803,-3.3803 m -7240.5635,3.3803 3.3802,6.7606 -3.3802,-6.7606 m 3855.786,2.2648 -1.1493,2.231 1.1493,-2.231 m 7.876,-2.2648 -3.3803,3.3803 3.3803,-3.3803 m 5273.2394,0 3.38,3.3803 -3.38,-3.3803 m 6.761,0 3.38,3.3803 -3.38,-3.3803 m -2410.1412,3.3803 -3.3802,3.3803 3.3802,-3.3803 m 507.0423,0 -3.3803,3.3803 3.3803,-3.3803 m -3376.9015,3.3803 -3.3803,3.3802 3.3803,-3.3802 m -2893.5212,3.3802 3.3803,3.3803 v 3.3803 l -3.3803,3.3803 h -3.3803 l -3.3802,-3.3803 v -3.3803 l 6.7605,-3.3803 m 3856.9015,0 -3.3803,3.3803 3.3803,-3.3803 m 6.7606,0 -3.3803,3.3803 3.3803,-3.3803 m -3867.0424,3.3803 3.3803,3.3803 -3.3803,-3.3803 m 280.5634,0 v 10.1409 l -6.7605,-3.3803 v -3.3803 l 6.7605,-3.3803 m 5989.8593,0 -3.3803,10.1409 3.3803,-10.1409 m -2092.3944,3.3803 -3.3803,3.3803 3.3803,-3.3803 m 3488.4506,0 3.38,3.3803 -3.38,-3.3803 m -2244.5069,6.7606 -3.3803,3.3802 3.3803,-3.3802 m -7632.67623,3.3802 3.38028,6.7606 -3.38028,-6.7606 m 3574.07333,2.2648 1.1493,2.231 -1.1493,-2.231 m -2343.6508,1.1155 -3.3802,3.3803 3.3802,-3.3803 m 6.7606,0 -3.3803,3.3803 3.3803,-3.3803 m 6392.1128,6.7606 3.3803,3.3803 -3.3803,-3.3803 m -446.1972,10.1408 3.3803,10.1409 h -3.3803 v -10.1409 m -5097.4649,3.3803 -3.3803,3.3803 3.3803,-3.3803 m 1098.5916,0 3.3803,6.7606 -3.3803,-6.7606 m 2761.6902,0 -3.3803,3.3803 3.3803,-3.3803 m -2389.8592,3.3803 -3.3803,3.3803 3.3803,-3.3803 m 2389.8592,3.3803 -3.3803,3.3803 3.3803,-3.3803 m 5861.4085,3.3803 6.761,10.1408 h -10.141 l 3.38,-10.1408 m -8640.0001,16.9014 3.3803,3.3803 -3.3803,-3.3803 m 591.5493,0 -3.3803,3.3803 3.3803,-3.3803 m 6916.0568,3.3803 -3.381,3.3802 3.381,-3.3802 m -6919.4371,3.3802 -3.3803,3.3803 3.3803,-3.3803 m -2754.9296,3.3803 -3.3803,3.3803 3.3803,-3.3803 m -7.8862,5.6451 -1.129,2.231 1.129,-2.231 m 9185.3509,-2.2648 3.381,3.3803 -3.381,-3.3803 m -9177.4647,3.3803 -3.3803,3.3803 3.3803,-3.3803 m 9180.8457,3.3803 3.38,3.3802 -3.38,-3.3802 m -6439.4372,6.7605 h 3.3803 3.3803 v 3.3803 h -10.1409 l 3.3803,-3.3803 m 6581.4082,0 3.381,3.3803 -3.381,-3.3803 m 321.127,6.7606 -3.38,3.3803 3.38,-3.3803 m -480,13.5211 -3.38,3.3803 3.38,-3.3803 m 6.761,0 -3.381,3.3803 3.381,-3.3803 m 1145.915,0 6.761,10.1409 -6.761,-10.1409 m -6500.2816,3.3803 -3.3803,3.3803 3.3803,-3.3803 m -3860.2818,3.3803 3.3803,3.3803 -3.3803,-3.3803 m 5053.5213,0 -3.3803,3.3803 3.3803,-3.3803 m 3846.7611,0 -3.381,3.3803 3.381,-3.3803 m -7071.55,10.1408 3.3803,3.3803 -3.3803,-3.3803 m 8176.902,0 -3.381,10.1409 h -3.38 l 6.761,-10.1409 m -8176.902,6.7606 3.3803,3.3803 -3.3803,-3.3803 m 8521.69,3.3803 3.381,3.3803 v 3.3802 l -3.381,3.3803 h -3.38 l -3.38,-3.3803 v -3.3802 l 6.76,-3.3803 m -9579.7181,3.3803 -6.7606,6.7605 6.7606,-6.7605 m 432.676,0 3.3803,3.3802 -3.3803,-3.3802 m 9143.6621,0 3.38,3.3802 -3.38,-3.3802 m -6858.5916,10.1408 3.3803,13.5211 h -10.1409 l 6.7606,-13.5211 m -3.3803,3.3803 3.3803,3.3803 -3.3803,-3.3803 m 5712.6759,0 -3.38,3.3803 3.38,-3.3803 m -8643.3802,3.3803 3.3803,3.3802 -3.3803,-3.3802 m 7622.5354,0 -3.3803,3.3802 3.3803,-3.3802 m 353.8141,9.0253 -1.1493,2.231 1.1493,-2.231 m -7986.4903,7.8761 3.3803,3.3803 v 3.3802 l -3.3803,3.3803 h -3.3803 l -3.3803,-3.3803 v -3.3802 l 6.7606,-3.3803 m 3863.662,3.3803 v 3.3802 l -6.7605,3.3803 h -3.3803 l 3.3803,-10.1408 6.7605,3.3803 m -3867.0423,0 3.3803,3.3802 -3.3803,-3.3802 m -1575.21131,3.3802 -3.38028,3.3803 3.38028,-3.3803 m 9197.74671,3.3803 -3.3803,3.3803 3.3803,-3.3803 m -2825.9156,6.7606 -3.3803,3.3803 3.3803,-3.3803 m 6.7606,0 -3.3803,3.3803 3.3803,-3.3803 m 2548.7324,6.7605 -3.3802,3.3803 -6.7606,-10.1408 10.1408,6.7605 m 628.7325,-6.7605 -3.3803,3.3803 3.3803,-3.3803 m -8690.7045,3.3803 3.3803,3.3802 -3.3803,-3.3802 m 8055.2115,0 3.3803,3.3802 -3.3803,-3.3802 m -2548.7325,3.3802 -3.3803,3.3803 3.3803,-3.3803 m 6.7606,0 -3.3803,3.3803 3.3803,-3.3803 m -6020.28185,3.3803 h 3.38029 3.38028 l -10.14085,10.1409 3.38028,-10.1409 m 13.52113,0 10.14085,10.1409 -13.52113,-3.3803 v -3.3803 l 3.38028,-3.3803 m 307.60564,0 v 3.3803 3.3803 h -10.14084 l 10.14084,-6.7606 m 6.76057,0 c 2.20732,6.6254 3.38028,8.6197 3.38028,0 H 983.662 c -4.99606,5.6451 -20.0586,13.7916 -16.90141,0 m -297.4648,3.3803 3.38028,3.3803 -3.38028,-3.3803 m 263.66198,0 3.38028,3.3803 -3.38028,-3.3803 m 40.56338,0 3.38028,3.3803 -3.38028,-3.3803 m 27.04225,0 3.3803,3.3803 -3.3803,-3.3803 m 6.7606,0 3.3802,3.3803 -3.3802,-3.3803 m 496.9014,3.3803 v 3.3803 l -6.7606,3.3803 h -3.3803 l 3.3803,-10.1409 6.7606,3.3803 m 3860.2818,6.7606 h -3.3803 l -6.7606,-3.3803 c 6.1183,-5.0704 6.8282,-3.9212 10.1409,3.3803 m 1636.0563,-10.1409 3.3803,3.3803 -3.3803,-3.3803 m 1345.3522,0 -3.3803,3.3803 3.3803,-3.3803 m 5.6451,2.2648 -1.1493,2.231 1.1493,-2.231 m -8081.13826,1.1155 v 6.7606 l -6.76056,-6.7606 h 6.76056 m 419.15494,0 3.38028,3.3803 -3.38028,-3.3803 m 16.90141,0 3.38028,3.3803 -3.38028,-3.3803 m 16.90141,0 3.38028,3.3803 -3.38028,-3.3803 m 16.90141,0 3.38028,3.3803 -3.38028,-3.3803 m 16.90141,0 3.38028,3.3803 -3.38028,-3.3803 m 16.90141,0 3.38028,3.3803 -3.38028,-3.3803 m 16.9014,0 3.38029,3.3803 -3.38029,-3.3803 m 16.90141,0 3.38028,3.3803 -3.38028,-3.3803 m 16.90141,0 3.38028,3.3803 -3.38028,-3.3803 m 16.90141,0 3.38028,3.3803 -3.38028,-3.3803 m 16.90141,0 3.38028,3.3803 -3.38028,-3.3803 m 16.90141,0 3.38028,3.3803 -3.38028,-3.3803 m 16.90141,0 3.38028,3.3803 -3.38028,-3.3803 m 16.90141,0 3.38028,3.3803 -3.38028,-3.3803 m 16.90141,0 3.38028,3.3803 -3.38028,-3.3803 m 98.02819,0 3.3803,3.3803 -3.3803,-3.3803 m -354.92961,3.3803 3.38028,3.3803 -3.38028,-3.3803 m 10.14085,0 3.38028,3.3803 -3.38028,-3.3803 m 16.9014,0 3.38029,3.3803 -3.38029,-3.3803 m 16.90141,0 3.38029,3.3803 -3.38029,-3.3803 m 16.90141,0 3.38028,3.3803 -3.38028,-3.3803 m 16.90141,0 3.38028,3.3803 -3.38028,-3.3803 m 16.90141,0 3.38028,3.3803 -3.38028,-3.3803 m 16.90141,0 3.38028,3.3803 -3.38028,-3.3803 m 16.90141,0 3.38028,3.3803 -3.38028,-3.3803 m 16.90141,0 3.38028,3.3803 -3.38028,-3.3803 m 16.90141,0 3.38028,3.3803 -3.38028,-3.3803 m 16.9014,0 3.38029,3.3803 -3.38029,-3.3803 m 16.90141,0 3.38029,3.3803 -3.38029,-3.3803 m 16.90141,0 3.38028,3.3803 -3.38028,-3.3803 m 16.90141,0 3.38028,3.3803 -3.38028,-3.3803 m 16.90141,0 3.38028,3.3803 -3.38028,-3.3803 m 16.90141,0 3.38028,3.3803 -3.38028,-3.3803 m 67.60563,0 3.3803,3.3803 -3.3803,-3.3803 m 6.7606,0 3.3802,3.3803 -3.3802,-3.3803 m 10.1408,0 3.3803,3.3803 -3.3803,-3.3803 m 2822.5353,0 3.3803,3.3803 -3.3803,-3.3803 m 3163.9437,0 3.3803,3.3803 -3.3803,-3.3803 m 1341.9719,0 -3.3803,3.3803 3.3803,-3.3803 m 3.3803,6.7605 -3.3803,3.3803 3.3803,-3.3803 m -1703.662,6.7606 v 3.3803 h -10.1409 l 10.1409,-3.3803 m 344.7887,3.3803 v 10.1408 h -3.3803 l 3.3803,-10.1408 m -4823.6621,3.3803 3.3803,3.3802 -3.3803,-3.3802 m 0,6.7605 3.3803,3.3803 -3.3803,-3.3803 m 564.5071,6.7606 -3.3803,3.3803 3.3803,-3.3803 m 2031.5493,0 -3.3803,3.3803 3.3803,-3.3803 m -1325.0704,6.7606 -3.3803,10.1408 h 3.3803 v -10.1408 m 946.4789,0 v 10.1408 h -3.3803 l 3.3803,-10.1408 m 723.3803,0 -3.3803,3.3802 3.3803,-3.3802 m 5.645,2.2647 -1.1493,2.231 1.1493,-2.231 m -2943.1099,1.1155 6.7606,10.1409 h -10.1409 l 3.3803,-10.1409 m 1649.5775,0 -3.3803,3.3803 3.3803,-3.3803 m 2210.7043,0 v 10.1409 h -3.3803 l 3.3803,-10.1409 m 6.7605,0 -3.3802,3.3803 3.3802,-3.3803 m 344.7888,0 -3.3803,3.3803 3.3803,-3.3803 m 594.9296,0 -6.7606,6.7606 6.7606,-6.7606 m -1869.2958,3.3803 -3.3803,3.3803 3.3803,-3.3803 m 5472.6762,0 -3.38,3.3803 3.38,-3.3803 m -4543.0988,3.3803 -3.3802,3.3803 3.3802,-3.3803 m -5438.87333,3.3803 h 3.38029 3.38028 v 10.1408 h -10.14085 l 3.38028,-10.1408 m 2109.29583,3.3803 3.3803,3.3802 -3.3803,-3.3802 m 6148.7325,0 -3.3802,3.3802 3.3802,-3.3802 m 0,6.7605 -3.3802,3.3803 3.3802,-3.3803 m -855.2112,16.9014 -3.3803,3.3803 3.3803,-3.3803 m 351.5493,10.1409 h -3.3803 l -6.7606,-3.3803 c 6.1183,-5.0704 6.8282,-3.9211 10.1409,3.3803 m 500.2817,-10.1409 3.3802,3.3803 -3.3802,-3.3803 m 354.9295,3.3803 -3.3802,3.3803 3.3802,-3.3803 m -1206.7605,3.3803 -3.3803,3.3803 3.3803,-3.3803 m 848.4507,0 3.3803,3.3803 -3.3803,-3.3803 m 354.9296,3.3803 -6.7606,6.7605 6.7606,-6.7605 m -1203.3803,3.3803 -3.3803,3.3802 3.3803,-3.3802 m 848.4507,0 -3.3803,6.7605 3.3803,-6.7605 m 2007.8873,0 6.761,10.1408 h -10.141 l 3.38,-10.1408 m -6861.9719,3.3802 3.3802,10.1409 h -3.3802 v -10.1409 m 4350.4226,3.3803 3.3803,3.3803 -3.3803,-3.3803 m -344.7887,3.3803 -3.3803,3.3803 3.3803,-3.3803 m -6206.1974,6.7606 -3.3803,6.7605 3.3803,-6.7605 m 3860.2818,0 3.3803,3.3803 -3.3803,-3.3803 m 3197.7466,0 h 3.3802 3.3803 v 3.3803 h -10.1408 l 3.3803,-3.3803 m 2371.842,2.2648 -1.149,2.231 1.149,-2.231 m 6.761,0 -1.149,2.231 1.149,-2.231 m -8179.1666,1.1155 3.3803,3.3802 -3.3803,-3.3802 m -561.1267,3.3802 -3.3803,3.3803 3.3803,-3.3803 m 6.7605,0 -3.3803,3.3803 3.3803,-3.3803 m 6358.31,3.3803 -3.3802,3.3803 3.3802,-3.3803 m 1310.4338,2.2648 -1.149,2.231 1.149,-2.231 m -3808.462,1.1155 3.3803,3.3803 -3.3803,-3.3803 m 2494.648,3.3803 -3.3803,3.3803 3.3803,-3.3803 m -7071.5495,6.7605 -3.3803,3.3803 3.3803,-3.3803 m 361.6901,0 h 3.3803 3.3803 v 10.1409 h -10.1408 l 3.3802,-10.1409 m 3863.6621,0 3.3803,3.3803 v 3.3803 l -3.3803,3.3803 h -3.3803 l -3.3803,-3.3803 v -3.3803 l 6.7606,-3.3803 m 4827.0423,0 6.761,6.7606 -6.761,-6.7606 m -4830.4226,3.3803 3.3803,3.3803 -3.3803,-3.3803 m 5209.0146,0 3.38,3.3803 -3.38,-3.3803 m -699.719,10.1409 -3.38,3.3803 3.38,-3.3803 m 6.761,0 -3.38,3.3803 3.38,-3.3803 m -7842.2538,3.3803 3.3802,6.7605 -3.3802,-6.7605 m 7774.6478,3.3802 3.381,3.3803 -3.381,-3.3803 m 60.845,0 -3.38,3.3803 3.38,-3.3803 m 6.761,0 -3.38,3.3803 3.38,-3.3803 m -6547.6059,6.7606 3.3803,3.3803 -3.3803,-3.3803 m -6.7606,3.3803 3.3803,3.3803 -3.3803,-3.3803 m -598.3099,6.7605 10.1409,10.1409 v -10.1409 h -10.1409 m 8183.6624,10.1409 h -3.38 c -2.198,-6.6254 -3.381,-8.6197 -3.381,0 h -3.38 l 3.38,-10.1409 6.761,10.1409 m -3556.0566,-6.7606 v 10.1409 h -10.1409 l 10.1409,-10.1409 m 1754.3662,6.7606 3.3803,3.3803 -3.3803,-3.3803 m -4705.3522,3.3803 h 3.3803 3.3803 v 3.3803 h -10.1409 l 3.3803,-3.3803 m 1281.1268,6.7605 3.3803,3.3803 -3.3803,-3.3803 m 3407.324,3.3803 6.7606,10.1409 h -10.1409 l 3.3803,-10.1409 m -5415.2114,3.3803 -3.3803,3.3803 3.3803,-3.3803 m 6.7606,0 -3.3803,3.3803 3.3803,-3.3803 m 2224.2254,0 h 3.3803 3.3803 v 10.1408 h -10.1409 l 3.3803,-10.1408 m 2281.6902,0 h 3.3803 3.3802 v 10.1408 h -10.1408 l 3.3803,-10.1408 m -851.831,3.3803 -3.3803,3.3803 3.3803,-3.3803 m -3660.8452,3.3803 -3.3803,3.3802 3.3803,-3.3802 m 6.7606,0 -3.3803,3.3802 3.3803,-3.3802 m -2927.324,6.7605 3.3803,3.3803 v 3.3803 l -3.3803,3.3803 h -3.3803 l -3.3803,-3.3803 v -3.3803 l 6.7606,-3.3803 m 2569.0141,0 v 10.1409 h -10.1408 l 10.1408,-10.1409 m 1291.2677,0 3.3802,10.1409 h -10.1408 l 6.7606,-10.1409 m -3863.6621,3.3803 3.3803,3.3803 -3.3803,-3.3803 m -868.73243,10.1409 -3.38028,10.1408 3.38028,-10.1408 m 8278.31003,0 h 3.3803 3.3803 l -10.1409,10.1408 3.3803,-10.1408 m 919.4367,0 -3.3803,3.3802 3.3803,-3.3802 m -2836.0564,10.1408 -3.3803,13.5211 h -3.3803 v -13.5211 h 6.7606 m -4235.4931,3.3803 -3.3803,3.3803 3.3803,-3.3803 m 5273.2396,0 -3.3803,3.3803 3.3803,-3.3803 m 855.2113,0 3.3802,3.3803 v 3.3802 l -3.3802,3.3803 h -3.3803 l -3.3803,-3.3803 v -3.3802 l 6.7606,-3.3803 m -7399.4368,3.3803 3.3802,3.3802 -3.3802,-3.3802 m 1277.7465,0 -3.3803,3.3802 3.3803,-3.3802 m 2582.5352,0 3.3803,3.3802 -3.3803,-3.3802 m 1649.5775,0 3.3803,3.3802 -3.3803,-3.3802 m 1886.1973,0 3.3803,3.3802 -3.3803,-3.3802 m -851.831,3.3802 -3.3803,3.3803 3.3803,-3.3803 m -1027.6057,6.7606 -3.3803,3.3803 3.3803,-3.3803 m 6.7606,0 -3.3803,3.3803 3.3803,-3.3803 m 6.7605,0 3.3803,6.7606 -3.3803,-6.7606 m 10.1409,0 -3.3803,3.3803 3.3803,-3.3803 m 6.7605,0 6.7606,10.1409 -6.7606,-10.1409 m 13.5212,0 -3.3803,3.3803 3.3803,-3.3803 m 6.7605,0 -3.3802,3.3803 3.3802,-3.3803 m 13.5212,0 3.3802,6.7606 -3.3802,-6.7606 m 13.5211,0 -3.3803,3.3803 3.3803,-3.3803 m 6.7606,0 3.3802,6.7606 -3.3802,-6.7606 m 16.9014,0 3.3802,6.7606 -3.3802,-6.7606 m 16.9014,0 -3.3803,3.3803 3.3803,-3.3803 m 6.7605,0 6.7606,10.1409 -6.7606,-10.1409 m 13.5212,0 -3.3803,3.3803 3.3803,-3.3803 m 6.7605,0 -3.3803,3.3803 3.3803,-3.3803 m 13.5212,0 3.3802,6.7606 -3.3802,-6.7606 m 13.5211,0 -3.3803,3.3803 3.3803,-3.3803 m 6.7605,0 3.3803,6.7606 -3.3803,-6.7606 m 16.9015,0 3.3802,6.7606 -3.3802,-6.7606 m 16.9014,0 -3.3803,3.3803 3.3803,-3.3803 m 6.7605,0 6.7606,10.1409 -6.7606,-10.1409 m 13.5212,0 -3.3803,3.3803 3.3803,-3.3803 m 6.7605,0 -3.3803,3.3803 3.3803,-3.3803 m 13.5211,0 3.3803,6.7606 -3.3803,-6.7606 m 13.5212,0 -3.3803,3.3803 3.3803,-3.3803 m 6.7605,0 3.3803,6.7606 -3.3803,-6.7606 m 16.9014,0 3.3803,6.7606 -3.3803,-6.7606 m 16.9015,0 -3.3803,3.3803 3.3803,-3.3803 m 6.7605,0 6.7606,10.1409 -6.7606,-10.1409 m 13.5211,0 -3.3802,3.3803 3.3802,-3.3803 m 6.7606,0 -3.3803,3.3803 3.3803,-3.3803 m 13.5211,0 3.3803,6.7606 -3.3803,-6.7606 m 13.5212,0 -3.3803,3.3803 3.3803,-3.3803 m 6.7605,0 3.3803,6.7606 -3.3803,-6.7606 m 16.9014,0 3.3803,6.7606 -3.3803,-6.7606 m 16.9014,0 -3.3802,3.3803 3.3802,-3.3803 m 6.7606,0 6.7606,10.1409 -6.7606,-10.1409 m 13.5211,0 -3.3802,3.3803 3.3802,-3.3803 m 6.7606,0 -3.3803,3.3803 3.3803,-3.3803 m 13.5211,0 3.3803,6.7606 -3.3803,-6.7606 m 13.5212,0 -3.3803,3.3803 3.3803,-3.3803 m 6.7605,0 3.3803,6.7606 -3.3803,-6.7606 m 16.9014,0 3.3803,6.7606 -3.3803,-6.7606 m 16.9014,0 -3.3802,3.3803 3.3802,-3.3803 m 6.7606,0 3.3803,6.7606 -3.3803,-6.7606 m 13.5211,0 6.7606,10.1409 -6.7606,-10.1409 m 4127.3241,0 -6.761,6.7606 6.761,-6.7606 m 16.901,0 -6.76,6.7606 6.76,-6.7606 m 6.761,0 -3.38,3.3803 3.38,-3.3803 m 20.282,0 -3.381,3.3803 3.381,-3.3803 m 6.76,0 -3.38,3.3803 3.38,-3.3803 m 6.761,0 h 3.38 3.38 v 10.1409 l -6.76,-10.1409 m 23.662,0 v 10.1409 h -3.381 l 3.381,-10.1409 m 16.901,0 -6.76,6.7606 6.76,-6.7606 m 6.761,0 6.76,10.1409 -6.76,-10.1409 m 13.521,0 -3.38,3.3803 3.38,-3.3803 m 6.76,0 -3.38,3.3803 3.38,-3.3803 m 13.522,0 3.38,6.7606 -3.38,-6.7606 m 13.521,0 -3.381,3.3803 3.381,-3.3803 m 6.76,0 3.38,6.7606 -3.38,-6.7606 m 16.902,0 3.38,6.7606 -3.38,-6.7606 m 16.901,0 -3.38,3.3803 3.38,-3.3803 m 6.761,0 6.76,10.1409 -6.76,-10.1409 m 13.521,0 -3.381,3.3803 3.381,-3.3803 m 6.76,0 -3.38,3.3803 3.38,-3.3803 m 13.521,0 3.381,6.7606 -3.381,-6.7606 m 13.522,0 -3.381,3.3803 3.381,-3.3803 m 6.76,0 3.38,6.7606 -3.38,-6.7606 m 16.902,0 3.38,6.7606 -3.38,-6.7606 m 16.901,0 -3.38,3.3803 3.38,-3.3803 m 6.76,0 6.761,10.1409 -6.761,-10.1409 m 13.522,0 -3.381,3.3803 3.381,-3.3803 m 6.76,0 -3.38,3.3803 3.38,-3.3803 m 13.521,0 3.381,6.7606 -3.381,-6.7606 m 13.521,0 -3.38,3.3803 3.38,-3.3803 m 6.761,0 3.38,6.7606 -3.38,-6.7606 m 16.901,0 3.381,6.7606 -3.381,-6.7606 m 16.902,0 -3.38,3.3803 3.38,-3.3803 m 6.76,0 6.761,10.1409 -6.761,-10.1409 m 13.521,0 -3.38,3.3803 3.38,-3.3803 m 6.761,0 -3.38,3.3803 3.38,-3.3803 m 13.521,0 3.38,6.7606 -3.38,-6.7606 m 13.521,0 -3.38,3.3803 3.38,-3.3803 m 6.761,0 3.38,6.7606 -3.38,-6.7606 m 16.901,0 3.381,6.7606 -3.381,-6.7606 m 16.902,0 -3.381,3.3803 3.381,-3.3803 m 6.76,0 v 10.1409 h -3.38 l 3.38,-10.1409 m 16.902,0 -3.381,3.3803 3.381,-3.3803 m 6.76,0 -3.38,3.3803 3.38,-3.3803 m -9954.9296,3.3803 -3.3803,3.3803 3.3803,-3.3803 m 3860.2818,0 -3.3803,3.3803 3.3803,-3.3803 m 1000.5634,0 3.3803,6.7606 -3.3803,-6.7606 m 37.1831,0 3.3803,6.7606 -3.3803,-6.7606 m 16.9014,0 3.3803,6.7606 -3.3803,-6.7606 m 40.5634,0 3.3803,6.7606 -3.3803,-6.7606 m 37.1831,0 3.3803,6.7606 -3.3803,-6.7606 m 16.9014,0 3.3803,6.7606 -3.3803,-6.7606 m 40.5634,0 3.3803,6.7606 -3.3803,-6.7606 m 37.1831,0 3.3803,6.7606 -3.3803,-6.7606 m 16.9014,0 3.3803,6.7606 -3.3803,-6.7606 m 40.5634,0 3.3803,6.7606 -3.3803,-6.7606 m 37.1831,0 3.3803,6.7606 -3.3803,-6.7606 m 16.9014,0 3.3803,6.7606 -3.3803,-6.7606 m 40.5634,0 3.3802,6.7606 -3.3802,-6.7606 m 37.1831,0 3.3802,6.7606 -3.3802,-6.7606 m 16.9014,0 3.3803,6.7606 -3.3803,-6.7606 m 3062.5353,0 h 3.38 3.381 v 3.3803 h -10.141 l 3.38,-3.3803 m 1098.592,0 -6.761,6.7606 6.761,-6.7606 m 23.662,0 -6.761,6.7606 6.761,-6.7606 m 6.76,0 -3.38,3.3803 3.38,-3.3803 m 33.803,0 -3.38,3.3803 3.38,-3.3803 m 16.901,0 -3.38,3.3803 3.38,-3.3803 m 43.944,0 3.38,6.7606 -3.38,-6.7606 m 37.183,0 3.38,6.7606 -3.38,-6.7606 m 16.901,0 3.381,6.7606 -3.381,-6.7606 m 40.564,0 3.38,6.7606 -3.38,-6.7606 m 37.183,0 3.38,6.7606 -3.38,-6.7606 m 16.901,0 3.381,6.7606 -3.381,-6.7606 m 40.564,0 3.38,6.7606 -3.38,-6.7606 m 37.183,0 3.38,6.7606 -3.38,-6.7606 m 16.901,0 3.381,6.7606 -3.381,-6.7606 m 40.564,0 3.38,6.7606 -3.38,-6.7606 m 37.183,0 3.38,6.7606 -3.38,-6.7606 m 16.901,0 -3.38,3.3803 3.38,-3.3803 m 23.662,0 -3.38,3.3803 3.38,-3.3803 m -5134.6479,3.3803 -3.3803,3.3803 3.3803,-3.3803 m 6.7606,0 -3.3803,3.3803 3.3803,-3.3803 m 16.9014,0 -3.3803,3.3803 3.3803,-3.3803 m 16.9014,0 -3.3803,3.3803 3.3803,-3.3803 m 6.7605,0 -3.3802,3.3803 3.3802,-3.3803 m 23.662,0 -3.3803,3.3803 3.3803,-3.3803 m 6.7606,0 -3.3803,3.3803 3.3803,-3.3803 m 40.5634,0 -3.3803,3.3803 3.3803,-3.3803 m 16.9014,0 -3.3803,3.3803 3.3803,-3.3803 m 6.7605,0 -3.3803,3.3803 3.3803,-3.3803 m 23.662,0 -3.3803,3.3803 3.3803,-3.3803 m 6.7606,0 -3.3803,3.3803 3.3803,-3.3803 m 40.5633,0 -3.3802,3.3803 3.3802,-3.3803 m 16.9015,0 -3.3803,3.3803 3.3803,-3.3803 m 6.7605,0 -3.3803,3.3803 3.3803,-3.3803 m 23.662,0 -3.3803,3.3803 3.3803,-3.3803 m 6.7606,0 -3.3803,3.3803 3.3803,-3.3803 m 40.5633,0 -3.3802,3.3803 3.3802,-3.3803 m 16.9014,0 -3.3802,3.3803 3.3802,-3.3803 m 6.7606,0 -3.3803,3.3803 3.3803,-3.3803 m 23.662,0 -3.3803,3.3803 3.3803,-3.3803 m 6.7605,0 -3.3802,3.3803 3.3802,-3.3803 m 40.5634,0 -3.3803,3.3803 3.3803,-3.3803 m 16.9014,0 -3.3802,3.3803 3.3802,-3.3803 m 6.7606,0 -3.3803,3.3803 3.3803,-3.3803 m 23.662,0 -3.3803,3.3803 3.3803,-3.3803 m 6.7605,0 -3.3802,3.3803 3.3802,-3.3803 m 40.5634,0 -3.3803,3.3803 3.3803,-3.3803 m 13.5211,0 -3.3802,3.3803 3.3802,-3.3803 m 4150.9864,0 -3.381,3.3803 3.381,-3.3803 m 27.042,0 -3.38,3.3803 3.38,-3.3803 m 6.76,0 -3.38,3.3803 3.38,-3.3803 m 47.324,0 -3.38,3.3803 3.38,-3.3803 m 16.902,0 -3.38,3.3803 3.38,-3.3803 m 6.76,0 -3.38,3.3803 3.38,-3.3803 m 23.662,0 -3.38,3.3803 3.38,-3.3803 m 6.761,0 -3.38,3.3803 3.38,-3.3803 m 40.563,0 -3.38,3.3803 3.38,-3.3803 m 16.902,0 -3.381,3.3803 3.381,-3.3803 m 6.76,0 -3.38,3.3803 3.38,-3.3803 m 23.662,0 -3.38,3.3803 3.38,-3.3803 m 6.761,0 -3.38,3.3803 3.38,-3.3803 m 40.563,0 -3.38,3.3803 3.38,-3.3803 m 16.902,0 -3.381,3.3803 3.381,-3.3803 m 6.76,0 -3.38,3.3803 3.38,-3.3803 m 23.662,0 -3.38,3.3803 3.38,-3.3803 m 6.761,0 -3.381,3.3803 3.381,-3.3803 m 40.563,0 -3.38,3.3803 3.38,-3.3803 m 16.901,0 -3.38,3.3803 3.38,-3.3803 m 6.761,0 -3.38,3.3803 3.38,-3.3803 m 23.662,0 -3.38,3.3803 3.38,-3.3803 m 6.761,0 -3.381,3.3803 3.381,-3.3803 m 37.183,0 -3.381,3.3803 3.381,-3.3803 m 23.662,0 -3.381,3.3803 3.381,-3.3803 m -2880.0004,6.7605 -3.3803,3.3803 3.3803,-3.3803 m 6.7606,0 -3.3803,3.3803 3.3803,-3.3803 m -7450.1411,6.7606 v 10.1408 h -3.3802 l -3.3803,-10.1408 h 6.7605 m 3863.6621,3.3803 v 3.3803 h -10.1408 l 10.1408,-3.3803 m 1835.493,0 v 10.1408 h 3.3803 l -3.3803,-10.1408 m 997.1831,0 h 3.3803 3.3803 v 10.1408 h -10.1409 l 3.3803,-10.1408 m 1717.1827,20.2817 v 3.3803 h -10.14 l 10.14,-3.3803 m -2731.2672,3.3803 -3.3803,3.3802 3.3803,-3.3802 m 6.7606,0 -3.3803,3.3802 3.3803,-3.3802 m 3728.4506,3.3802 -3.38,3.3803 3.38,-3.3803 m 6.761,0 -3.381,3.3803 3.381,-3.3803 m -3741.9722,3.3803 -3.3803,3.3803 3.3803,-3.3803 m 6.7606,0 -3.3803,3.3803 3.3803,-3.3803 m 3309.2956,0 -3.38,3.3803 3.38,-3.3803 m 419.155,3.3803 -3.38,3.3803 3.38,-3.3803 m 6.761,0 -3.381,3.3803 3.381,-3.3803 m -743.662,3.3803 -3.381,3.3803 3.381,-3.3803 m -2863.0989,3.3803 -3.3803,3.3802 3.3803,-3.3802 m -5117.7466,3.3802 3.3802,3.3803 -3.3802,-3.3803 m 3860.2817,0 3.3803,3.3803 -3.3803,-3.3803 m 4120.5638,0 -3.381,3.3803 3.381,-3.3803 m -2859.7187,3.3803 -3.3802,3.3803 3.3802,-3.3803 m 3583.0987,10.1409 3.38,3.3803 -3.38,-3.3803 m -429.296,6.7605 3.381,6.7606 -3.381,-6.7606 m -3170.7041,3.3803 3.3803,3.3803 -3.3803,-3.3803 m -7419.71845,10.1409 v 10.1408 h -3.380279 l 3.380279,-10.1408 m -23.661969,27.0422 3.380281,3.3803 -3.380281,-3.3803 m 6172.394519,3.3803 3.3803,3.3803 -3.3803,-3.3803 m 3035.493,0 -3.3803,3.3803 3.3803,-3.3803 m 1379.155,0 3.38,3.3803 -3.38,-3.3803 m -4205.0705,10.1408 -3.3803,3.3803 3.3803,-3.3803 m -6013.52131,3.3803 3.38029,3.3803 -3.38029,-3.3803 m 3174.08461,0 3.3803,3.3803 -3.3803,-3.3803 m 2839.4367,3.3803 -3.3803,3.3803 3.3803,-3.3803 m -2852.9579,6.7606 3.3803,3.3803 -3.3803,-3.3803 m 2278.31,0 3.3802,3.3803 -3.3802,-3.3803 m -3856.9015,3.3803 3.3802,3.3802 -3.3802,-3.3802 m 1575.2113,3.3802 3.3802,3.3803 -3.3802,-3.3803 m 6.7605,0 3.3803,3.3803 -3.3803,-3.3803 m -3177.46483,3.3803 3.38028,6.7606 -3.38028,-6.7606 m 1220.28173,3.3803 3.3803,3.3803 -3.3803,-3.3803 m 3860.2818,0 3.3802,3.3803 -3.3802,-3.3803 m 4113.8029,3.3803 3.3803,3.3803 -3.3803,-3.3803 m 2349.2955,3.3803 3.381,3.3802 v 3.3803 l -3.381,3.3803 h -3.38 l -3.38,-3.3803 v -3.3803 l 6.76,-3.3802 m -6824.7886,3.3802 3.3803,3.3803 v 3.3803 l -3.3803,3.3803 h -3.3803 l -3.3802,-3.3803 v -3.3803 l 6.7605,-3.3803 m -3856.9015,3.3803 -6.7605,6.7606 6.7605,-6.7606 m 3853.5212,0 3.3803,3.3803 -3.3803,-3.3803 m -3512.1127,6.7606 -3.3803,3.3803 3.3803,-3.3803 m 6.7605,0 -3.3802,3.3803 3.3802,-3.3803 m 7974.0847,0 v 10.1408 h -3.3802 l 3.3802,-10.1408 m -5614.648,3.3803 3.3803,3.3803 -3.3803,-3.3803 m 6.7606,0 3.3803,3.3803 -3.3803,-3.3803 m -2372.9578,3.3803 -3.3803,3.3802 3.3803,-3.3802 m 6.7605,0 -3.3802,3.3802 3.3802,-3.3802 m 6692.9579,0 h 3.3803 3.3803 v 3.3802 h -10.1408 l 3.3802,-3.3802 m -4333.5212,3.3802 3.3803,3.3803 -3.3803,-3.3803 m 6.7606,0 3.3803,3.3803 -3.3803,-3.3803 m 6081.1268,6.7606 -10.141,10.1408 10.141,-10.1408 m 1872.676,0 -3.38,3.3803 3.38,-3.3803 m -8443.9437,10.1408 -3.3803,3.3803 3.3803,-3.3803 m 4607.3241,3.3803 3.3803,3.3803 -3.3803,-3.3803 m 6.7605,0 3.3803,3.3803 -3.3803,-3.3803 m 848.4508,0 3.3802,3.3803 -3.3802,-3.3803 m 6.7605,0 3.3803,3.3803 -3.3803,-3.3803 m -5469.2959,3.3803 -3.3803,3.3803 3.3803,-3.3803 m 4610.7044,3.3803 3.3802,3.3803 -3.3802,-3.3803 m 855.2112,0 3.3803,3.3803 -3.3803,-3.3803 m -5496.3381,6.7606 3.3803,3.3802 -3.3803,-3.3802 m 6.7606,0 3.3802,3.3802 -3.3802,-3.3802 m 564.507,0 -3.3803,6.7605 3.3803,-6.7605 m 3397.1832,0 -3.3803,3.3802 3.3803,-3.3802 m -3968.4508,6.7605 3.3803,3.3803 -3.3803,-3.3803 m 6.7606,0 3.3802,3.3803 -3.3802,-3.3803 m 3961.6902,0 -3.3803,3.3803 3.3803,-3.3803 m -5104.2255,6.7606 -3.3803,3.3803 3.3803,-3.3803 m 8694.0849,0 -3.38,3.3803 3.38,-3.3803 m -8237.7468,10.1408 -3.3803,3.3803 3.3803,-3.3803 m 1311.5493,0 3.3803,3.3803 -3.3803,-3.3803 m 1727.324,0 h 3.3802 3.3803 l -10.1408,10.1409 3.3803,-10.1409 m -2433.8029,3.3803 3.3803,3.3803 -3.3803,-3.3803 m -1426.4789,3.3803 -3.3803,3.3803 3.3803,-3.3803 m 6.7605,0 -3.3802,3.3803 3.3802,-3.3803 m 2129.5776,0 3.3802,3.3803 -3.3802,-3.3803 m 3802.817,3.3803 -3.3803,3.3803 3.3803,-3.3803 m 10.1408,0 v 10.1408 h -13.5211 v -3.3803 l 6.7605,-6.7605 h 6.7606 m 838.3099,0 3.3803,6.7605 -3.3803,-6.7605 m 1788.1695,0 3.38,6.7605 -3.38,-6.7605 m -7703.6626,3.3803 -3.3803,3.3802 3.3803,-3.3802 m 476.6197,0 -3.3803,3.3802 3.3803,-3.3802 m 4583.6621,0 -3.3803,3.3802 3.3803,-3.3802 m 865.3521,0 3.3803,10.1408 h 3.3803 l 3.3803,-10.1408 h -10.1409 m -4080.0001,3.3802 3.3803,3.3803 -3.3803,-3.3803 m 2734.648,0 3.3803,3.3803 -3.3803,-3.3803 m 1331.831,0 -3.3803,3.3803 3.3803,-3.3803 m 1788.1688,0 -3.38,3.3803 z"
       id="path332" />
  </g>
</svg>
