<?xml version="1.0" encoding="UTF-8" standalone="no"?>
<!-- Created with Inkscape (http://www.inkscape.org/) -->

<svg
   version="1.1"
   id="svg305"
   width="1732.2269"
   height="1732.2269"
   viewBox="0 0 1732.2269 1732.2269"
   sodipodi:docname="progressive_logo_carrier.svg"
   inkscape:version="1.2.1 (9c6d41e410, 2022-07-14)"
   xmlns:inkscape="http://www.inkscape.org/namespaces/inkscape"
   xmlns:sodipodi="http://sodipodi.sourceforge.net/DTD/sodipodi-0.dtd"
   xmlns="http://www.w3.org/2000/svg"
   xmlns:svg="http://www.w3.org/2000/svg">
  <defs
     id="defs309" />
  <sodipodi:namedview
     id="namedview307"
     pagecolor="#ffffff"
     bordercolor="#000000"
     borderopacity="0.25"
     inkscape:showpageshadow="2"
     inkscape:pageopacity="0.0"
     inkscape:pagecheckerboard="0"
     inkscape:deskcolor="#d1d1d1"
     showgrid="false"
     inkscape:zoom="0.46991534"
     inkscape:cx="866.11346"
     inkscape:cy="867.17749"
     inkscape:window-width="1920"
     inkscape:window-height="1001"
     inkscape:window-x="-9"
     inkscape:window-y="-9"
     inkscape:window-maximized="1"
     inkscape:current-layer="g311" />
  <g
     inkscape:groupmode="layer"
     inkscape:label="Image"
     id="g311">
    <path
       style="fill:#ffffff;stroke:none;stroke-width:0.81287"
       d="m 455.5521,681.76256 c -5.79251,1.66232 -12.02235,2.30287 -17.41412,5.28285 -23.5196,12.99617 -32.66926,42.58466 -43.15936,65.67261 -9.5244,20.96312 -20.30794,41.35804 -29.72342,62.3553 -8.0653,17.98882 -21.32403,39.57866 -8.77168,58.84369 5.00078,7.68162 13.18232,9.86011 21.50205,12.11177 8.27177,2.23539 18.28552,0.81287 26.82391,0.81287 16.13791,0 33.61056,1.8696 49.35261,-1.99967 38.00576,-9.32362 51.44982,-54.58424 65.54906,-86.60077 11.42327,-25.94032 28.97314,-51.95706 35.56146,-79.66374 4.63661,-19.4967 -5.76407,-33.97961 -25.28109,-37.18151 -11.85896,-1.9452 -25.37049,-0.21053 -37.39204,-0.21053 -11.30946,0 -26.17442,-2.54429 -37.04738,0.57713 m 96.38693,103.47028 -4.87723,10.56732 c -0.43488,4.89673 -4.00663,9.34476 -5.89737,13.81879 -7.83607,18.54971 -21.3663,39.53802 -11.7029,60.1199 9.86825,21.02083 41.1345,17.1028 59.86954,17.1028 17.55637,0 38.77635,3.06452 54.89801,-5.39746 23.37003,-12.25809 31.4841,-47.72363 41.92624,-69.85484 4.96501,-10.52261 14.30408,-23.76833 16.2444,-35.25012 0.72508,-4.29359 -5.59011,-3.29944 -8.20837,-3.29944 h -30.0762 c -8.08725,0 -25.35181,-3.28888 -32.34168,0.83563 -2.90601,1.71434 -4.16271,6.0193 -5.48931,8.91881 -3.65711,7.99214 -8.11326,16.08183 -10.94124,24.38611 l 24.38611,0.81287 c -3.32951,9.22608 -7.97344,17.94818 -12.12884,26.8166 -2.50526,5.34056 -4.7813,11.25826 -10.63153,13.705 -7.52718,3.15393 -19.55035,0.9348 -27.63759,0.9348 -2.9873,0 -6.98744,0.65029 -9.70649,-0.83726 -3.22466,-1.76393 -3.70994,-5.64132 -2.91658,-8.91719 4.44884,-18.379 17.64986,-36.68565 25.52007,-53.88437 5.96403,-13.03356 12.44098,-25.81595 18.56271,-38.78286 4.23018,-8.95946 7.59221,-19.01223 13.99925,-26.73612 6.31275,-7.61009 24.46171,-4.19604 33.38947,-4.15214 3.52054,0.0171 9.14317,-0.1 10.30801,4.15133 2.71011,9.88857 -10.63722,21.88328 -11.93375,31.61415 h 30.88907 c 3.90097,0 9.92922,1.12989 13.54324,-0.49016 4.27082,-1.91431 5.93883,-10.11373 7.74259,-14.00332 5.83397,-12.57835 16.12328,-33.21957 4.68132,-45.86296 -7.78405,-8.60098 -21.54676,-10.36328 -32.47011,-10.36328 -25.82814,0 -58.98594,-5.60068 -81.85686,8.80826 -23.81792,15.00559 -33.99669,47.11072 -45.30859,71.66591 -3.49941,7.59627 -5.8673,17.47265 -11.83539,23.57324 M 992.5148,886.84165 h 52.0237 c 10.86,0 21.1672,-0.98358 31.702,-3.62541 44.7972,-11.23387 39.4811,-69.1265 35.9613,-103.74584 -0.7478,-7.32071 -1.0079,-14.51461 -1.0079,-21.87515 0,-9.91377 -3.7392,-19.70723 0.6584,-29.26334 9.4049,-20.41768 34.482,-4.07898 49.5201,-11.17046 4.8772,-2.30205 7.3239,-13.25792 9.5837,-17.85796 1.6745,-3.41649 8.3726,-12.58242 6.6981,-16.23383 -1.1868,-2.5768 -5.682,-1.88342 -7.9336,-1.88423 h -21.9475 c -27.0442,0 -67.3789,-1.75255 -79.3931,29.26658 -11.4371,29.52427 -1.9428,64.99387 -1.894,95.91546 0.016,10.77054 3.9749,24.8901 -1.9427,34.70957 -10.7462,17.83438 -37.9774,2.99949 -53.8771,8.78713 -3.918,1.43065 -4.8854,6.74682 -6.2103,10.15275 -3.5604,9.16105 -8.7709,17.4442 -11.9411,26.82473 m 115.4276,0 h 52.0237 c 10.2584,0 20.1348,-0.96732 30.0762,-3.60915 24.3617,-6.4867 36.7661,-31.64504 38.9365,-54.91753 0.7966,-8.60829 -1.138,-16.71668 -1.5119,-25.19898 -0.4065,-9.33988 -0.049,-18.33836 -1.3087,-27.63759 -0.7723,-5.61694 -0.2846,-11.41352 -0.3496,-17.07028 -0.1219,-10.28688 -3.8123,-20.72413 0.5853,-30.64522 8.6733,-19.53896 35.3355,-3.89527 49.5688,-10.5982 4.9667,-2.34107 7.2833,-13.47658 9.4456,-18.08393 1.5851,-3.35716 8.4213,-12.32556 6.82,-16.01436 -1.1218,-2.58249 -5.682,-1.88017 -7.893,-1.88098 h -23.5733 c -30.8159,0 -69.2646,0.30401 -80.5392,35.76629 -4.422,13.8944 -1.5607,28.2375 -0.7803,42.26927 0.8047,14.6146 -0.081,29.28528 0.9185,43.895 0.7235,10.5917 3.9587,27.47502 -1.0404,37.25385 -9.153,17.9238 -37.4571,4.96664 -52.6415,9.4293 -3.5929,1.06486 -4.609,5.12108 -6.1209,8.12058 -4.227,8.36443 -11.4534,19.68772 -12.6158,28.92193 m 122.7434,0 h 34.9535 c 3.7798,0 10.0633,1.18679 13.201,-1.34124 4.0318,-3.25961 5.0154,-9.64877 7.1939,-14.07079 6.2184,-12.60762 12.0467,-25.35343 17.9319,-38.09923 16.8589,-36.51983 35.5875,-72.23655 51.8042,-109.06283 5.5763,-12.67265 18.379,-29.07638 18.7936,-43.08213 h -34.1406 c -3.8692,0 -10.6892,-1.30547 -13.9895,1.07136 -3.8936,2.8044 -6.1046,10.91929 -8.088,15.18604 l -16.9727,36.57917 c -16.3144,35.2924 -33.0839,70.34012 -49.6177,105.53497 -6.7956,14.46097 -18.9073,31.39306 -21.0696,47.28468 m 113.8019,0 h 47.1465 c 5.1617,0 14.4366,1.78831 19.0618,-0.69907 3.9262,-2.11347 6.4298,-8.76275 8.9334,-12.29873 7.0151,-9.91702 13.6807,-20.10229 20.5901,-30.08434 26.3857,-38.09192 53.5275,-75.79366 78.6939,-114.72365 7.389,-11.43465 15.4934,-22.4019 23.1018,-33.68942 1.7396,-2.58005 8.0068,-9.12528 7.389,-12.28003 -0.6178,-3.16532 -9.1529,-1.88098 -11.4533,-1.88098 h -26.0119 c -3.4303,0 -8.6245,-0.95675 -11.746,0.69663 -7.1451,3.79041 -12.8189,19.12521 -17.1597,25.89642 -14.843,23.13511 -30.3038,46.32793 -43.9519,70.17023 -15.664,27.35959 -33.6203,53.37389 -49.8858,80.44247 -1.9347,-11.09568 7.8848,-28.39356 11.0225,-39.24538 8.7953,-30.35096 18.5903,-60.58486 28.296,-90.6757 3.3247,-10.33646 6.5843,-20.67536 9.8276,-31.02727 1.6827,-5.35356 4.2838,-10.54618 3.6905,-16.2574 h -36.5792 l -13.1279,1.30303 -4.3082,14.00657 -8.6083,37.52697 -25.264,109.73751 -9.6569,43.08214 M 95.105841,682.81117 C 82.407992,717.14844 63.995501,750.68829 48.101771,783.67945 31.700728,817.72327 18.163752,853.7253 0,886.84165 h 50.397967 c 4.131089,-18.21643 16.75456,-36.63607 24.451305,-53.64945 2.365616,-5.22676 4.541507,-15.13565 10.517568,-17.39543 6.415987,-2.42235 16.72644,-0.48772 23.5578,-0.48772 23.27004,0 48.20403,2.21913 67.18374,-13.59526 7.30202,-6.08271 12.48081,-15.81521 16.23546,-24.37717 8.55465,-19.50402 20.64041,-38.53738 25.13558,-59.57202 2.35164,-11.0079 -1.88179,-24.68851 -11.83539,-30.707 -10.38036,-6.27698 -24.19834,-4.24643 -35.75411,-4.24643 H 95.105841 m 165.012699,0 -26.47682,56.09131 -45.12325,96.72833 -23.50577,51.21084 h 47.95935 c 1.30791,-5.77138 5.05768,-10.85182 7.35811,-16.25741 6.03881,-14.20085 12.42879,-28.21474 19.13822,-42.10669 2.92146,-6.04776 4.8504,-16.00948 9.95197,-20.5705 2.8044,-2.50852 8.04254,-1.53958 11.51106,-1.53958 9.06025,0 23.33995,-1.48349 26.57355,9.75445 2.09964,7.29957 -1.80457,14.49348 -4.28383,21.13463 -5.91932,15.86723 -17.60515,32.70178 -19.85111,49.5851 h 48.77223 c 3.90584,-23.06927 19.60562,-42.96021 23.36271,-65.84251 1.46804,-8.94239 0.0179,-22.33849 -10.35679,-25.19898 v -4.06435 c 30.60133,-0.0236 41.96688,-32.56685 52.08793,-56.08807 6.73626,-15.65344 12.29466,-32.57903 -1.81677,-45.98814 -9.06188,-8.61074 -23.38465,-6.84843 -34.82662,-6.84843 h -80.47417 m 420.25402,204.03048 h 34.14055 c 3.60346,0 10.21616,1.26807 13.32051,-0.83726 4.94144,-3.3409 7.31421,-13.45301 9.55692,-18.67163 6.01524,-13.99763 13.27336,-27.45064 19.27478,-41.4564 2.20776,-5.1536 4.65125,-14.73327 9.24071,-18.20586 3.0312,-2.2931 8.43516,-1.30303 12.01098,-1.30303 10.30882,0 26.04193,-0.57144 26.07119,13.8188 0.0154,8.13683 -4.31634,16.44437 -7.53775,23.71143 -6.13473,13.84318 -13.53348,28.40982 -17.72057,42.94395 h 34.95343 c 3.49534,0 10.33158,1.30059 13.29043,-0.83726 4.30008,-3.10517 5.78764,-16.71262 8.00677,-21.78493 6.76308,-15.47705 20.64691,-38.87959 16.41999,-56.22625 -1.70703,-7.01832 -7.29958,-9.77151 -10.89247,-15.44453 7.68163,-1.83059 15.10313,-2.66785 21.93125,-7.10937 17.30601,-11.26476 25.47536,-36.94821 33.07569,-55.28169 4.0481,-9.76095 10.73802,-30.40461 -2.17036,-36.77914 l 0.81287,-1.62574 c -13.9895,-9.79265 -26.49958,-8.94157 -43.08213,-8.94157 H 805.5546 c -6.61432,0 -24.19427,-3.10761 -29.32836,1.23068 -4.81626,4.07004 -7.10774,14.30652 -9.65609,19.90395 -6.45988,14.19109 -13.63021,28.01476 -19.94865,42.26926 -20.92817,47.21233 -43.52353,94.25233 -66.24894,140.62659 m 173.1414,0 h 84.53852 24.38612 c 2.99949,0 7.47028,0.81287 10.25029,-0.48773 2.96698,-1.39813 4.43828,-6.51109 5.77138,-9.26672 4.00745,-8.32379 11.02253,-18.30584 11.61592,-27.63759 l -48.06503,0.10567 -24.28044,-0.91854 c 9.11228,-10.57545 13.03844,-27.58883 19.67147,-39.90056 1.91837,-3.57257 3.76359,-10.76485 7.34022,-12.91408 3.3978,-2.04111 9.79509,-0.83481 13.63183,-0.83481 h 32.51482 c 4.01558,0 11.38834,1.41358 14.79424,-1.07137 4.6821,-3.41405 8.3482,-14.60159 10.2015,-20.034 1.5526,-4.54882 4.5765,-8.14659 5.0805,-13.03519 -19.0944,0 -42.39935,3.60833 -60.96531,-0.81287 l 13.64809,-29.26334 6.78747,-12.17355 14.51786,-0.83237 h 34.14059 l 14.5178,-0.83564 5.1211,-8.91881 11.2501,-25.19898 h -80.47412 c -7.59221,0 -24.15851,-3.13931 -30.67773,0.83563 -4.14564,2.5329 -5.64945,10.08366 -7.53531,14.26425 -5.47875,12.13371 -11.59966,23.99268 -17.12718,36.11095 -15.84285,34.7177 -31.71821,69.47848 -48.39831,103.81169 -5.25114,10.81117 -10.27468,21.75241 -15.07875,32.75055 -2.2679,5.18611 -6.38103,10.65673 -7.17764,16.25741 m 713.70024,-204.03048 -26.0444,56.08806 -42.3099,91.51295 -17.81,37.39204 -7.3158,19.03743 h 86.9771 22.7604 l 9.1123,-1.07299 6.0071,-10.07147 11.7053,-25.43471 -72.3454,-0.81287 18.2977,-39.83066 7.8198,-13.79603 14.526,-0.83563 h 31.7019 l 13.6075,-0.47878 5.2836,-7.65074 11.1851,-26.01104 h -60.9652 l 12.6807,-28.45047 7.8524,-13.82855 14.4203,-0.80311 h 34.1405 l 14.2903,-0.49017 4.8122,-8.45141 11.7866,-26.01185 h -112.1761 m 141.4395,0.65273 c -22.5247,7.4841 -10.3479,41.11987 12.0548,32.69284 19.9641,-7.51011 7.9255,-39.33155 -12.0548,-32.69284 m 1.0486,1.34693 c 20.3217,-5.37714 27.5644,26.21182 7.0801,30.9541 -19.1431,4.43096 -26.2395,-25.88423 -7.0801,-30.9541 m -2.6744,5.31617 0.8129,19.50889 h 0.8129 c 0.016,-4.58703 0.4226,-7.67837 4.8772,-9.75444 l 6.5029,9.75444 h 0.8129 v -3.25148 l -1.6257,0.81287 -1.6258,-7.31583 c 5.9421,-0.87384 5.9421,-7.25487 0,-8.12871 v 0.81287 l 3.2515,4.06435 -12.193,1.62574 c 0.4308,-6.28755 4.2675,-6.83867 9.7544,-7.31583 L 1707.0279,690.127 M 99.983064,779.54275 c 0.642166,-5.14547 3.731886,-9.07651 5.686846,-13.75377 4.70814,-11.26313 9.79834,-22.50594 14.97144,-33.55204 1.93707,-4.13507 4.47323,-12.72386 8.24495,-15.26245 3.82374,-2.57355 12.94659,-0.83564 17.43038,-0.83564 5.02923,0 17.02557,-2.1858 20.64447,1.97853 5.6909,6.5493 -3.75465,18.74561 -6.1071,24.84701 -3.57094,9.26266 -9.69348,27.54412 -18.05629,33.31468 -10.38442,7.16464 -30.62327,3.26368 -42.814696,3.26368 M 332.46401,716.95172 c 3.44332,9.64146 -1.83546,17.10442 -6.08921,25.6672 -3.99364,8.0401 -6.67855,18.94639 -13.72776,25.03722 -11.01358,9.51709 -32.57497,5.38365 -46.02554,5.38365 0.86652,-13.48553 12.46781,-30.97362 18.42452,-43.08214 1.73386,-3.52542 4.10175,-11.45903 7.81088,-13.21565 3.25392,-1.5412 8.4506,-0.60315 11.96951,-0.60315 9.2399,0 18.46761,-0.34628 27.6376,0.81287 m 134.12362,-0.56819 c 8.62537,-1.28515 18.10913,-0.25849 26.82472,-0.24468 3.17183,0.005 7.51743,-0.42188 9.49514,2.66541 3.76034,5.86811 -5.18448,18.73016 -7.67837,24.15607 -10.49172,22.83353 -20.45914,46.35475 -32.25795,68.51685 -6.20058,11.64355 -10.88352,35.42001 -26.45975,37.80172 -8.05879,1.22744 -17.04833,0.18696 -25.19898,0.17071 -3.38642,-0.008 -6.94923,0.10567 -8.79526,-3.30026 -3.29456,-6.08027 4.99834,-19.58205 7.84095,-25.15021 11.12332,-21.76379 20.60383,-44.38273 31.1809,-66.42289 5.27878,-10.99895 10.88677,-36.08251 25.0486,-38.19272 m 316.2066,56.65626 c -0.39993,-5.02923 2.71499,-9.48133 4.71465,-13.95699 4.37974,-9.8024 8.62455,-19.73568 13.17744,-29.4381 1.72898,-3.68393 3.60346,-10.29419 7.01182,-12.67021 4.24319,-2.95804 15.54452,-0.83564 20.61683,-0.83564 5.49501,0 16.29806,-2.05818 20.41118,2.43293 5.47062,5.97622 -3.6254,18.02052 -6.21033,23.57893 -3.81236,8.22625 -6.87688,19.24633 -13.80254,25.49405 -10.6486,9.59919 -32.75543,5.39503 -45.91905,5.39503 z"
       id="path315" />
  </g>
</svg>
